%TF.GenerationSoftware,KiCad,Pcbnew,7.0.9*%
%TF.CreationDate,2024-02-03T21:53:43-08:00*%
%TF.ProjectId,Phorae_v1.0,50686f72-6165-45f7-9631-2e302e6b6963,rev?*%
%TF.SameCoordinates,Original*%
%TF.FileFunction,Legend,Top*%
%TF.FilePolarity,Positive*%
%FSLAX46Y46*%
G04 Gerber Fmt 4.6, Leading zero omitted, Abs format (unit mm)*
G04 Created by KiCad (PCBNEW 7.0.9) date 2024-02-03 21:53:43*
%MOMM*%
%LPD*%
G01*
G04 APERTURE LIST*
%ADD10C,0.150000*%
%ADD11C,0.100000*%
%ADD12C,0.120000*%
G04 APERTURE END LIST*
D10*
X66500000Y-90500000D02*
G75*
G03*
X66500000Y-90500000I-250000J0D01*
G01*
X43740180Y-84336779D02*
X44740180Y-84336779D01*
X43740180Y-84908207D02*
X44311609Y-84479636D01*
X44740180Y-84908207D02*
X44168752Y-84336779D01*
X43740180Y-85765350D02*
X44263990Y-85765350D01*
X44263990Y-85765350D02*
X44359228Y-85717731D01*
X44359228Y-85717731D02*
X44406847Y-85622493D01*
X44406847Y-85622493D02*
X44406847Y-85432017D01*
X44406847Y-85432017D02*
X44359228Y-85336779D01*
X43787800Y-85765350D02*
X43740180Y-85670112D01*
X43740180Y-85670112D02*
X43740180Y-85432017D01*
X43740180Y-85432017D02*
X43787800Y-85336779D01*
X43787800Y-85336779D02*
X43883038Y-85289160D01*
X43883038Y-85289160D02*
X43978276Y-85289160D01*
X43978276Y-85289160D02*
X44073514Y-85336779D01*
X44073514Y-85336779D02*
X44121133Y-85432017D01*
X44121133Y-85432017D02*
X44121133Y-85670112D01*
X44121133Y-85670112D02*
X44168752Y-85765350D01*
X44406847Y-86098684D02*
X44406847Y-86479636D01*
X44740180Y-86241541D02*
X43883038Y-86241541D01*
X43883038Y-86241541D02*
X43787800Y-86289160D01*
X43787800Y-86289160D02*
X43740180Y-86384398D01*
X43740180Y-86384398D02*
X43740180Y-86479636D01*
X43740180Y-86812970D02*
X44406847Y-86812970D01*
X44740180Y-86812970D02*
X44692561Y-86765351D01*
X44692561Y-86765351D02*
X44644942Y-86812970D01*
X44644942Y-86812970D02*
X44692561Y-86860589D01*
X44692561Y-86860589D02*
X44740180Y-86812970D01*
X44740180Y-86812970D02*
X44644942Y-86812970D01*
X43787800Y-87670112D02*
X43740180Y-87574874D01*
X43740180Y-87574874D02*
X43740180Y-87384398D01*
X43740180Y-87384398D02*
X43787800Y-87289160D01*
X43787800Y-87289160D02*
X43883038Y-87241541D01*
X43883038Y-87241541D02*
X44263990Y-87241541D01*
X44263990Y-87241541D02*
X44359228Y-87289160D01*
X44359228Y-87289160D02*
X44406847Y-87384398D01*
X44406847Y-87384398D02*
X44406847Y-87574874D01*
X44406847Y-87574874D02*
X44359228Y-87670112D01*
X44359228Y-87670112D02*
X44263990Y-87717731D01*
X44263990Y-87717731D02*
X44168752Y-87717731D01*
X44168752Y-87717731D02*
X44073514Y-87241541D01*
X43130180Y-84241541D02*
X43130180Y-84908207D01*
X43130180Y-84908207D02*
X42130180Y-84241541D01*
X42130180Y-84241541D02*
X42130180Y-84908207D01*
X42130180Y-85717731D02*
X42653990Y-85717731D01*
X42653990Y-85717731D02*
X42749228Y-85670112D01*
X42749228Y-85670112D02*
X42796847Y-85574874D01*
X42796847Y-85574874D02*
X42796847Y-85384398D01*
X42796847Y-85384398D02*
X42749228Y-85289160D01*
X42177800Y-85717731D02*
X42130180Y-85622493D01*
X42130180Y-85622493D02*
X42130180Y-85384398D01*
X42130180Y-85384398D02*
X42177800Y-85289160D01*
X42177800Y-85289160D02*
X42273038Y-85241541D01*
X42273038Y-85241541D02*
X42368276Y-85241541D01*
X42368276Y-85241541D02*
X42463514Y-85289160D01*
X42463514Y-85289160D02*
X42511133Y-85384398D01*
X42511133Y-85384398D02*
X42511133Y-85622493D01*
X42511133Y-85622493D02*
X42558752Y-85717731D01*
X42177800Y-86622493D02*
X42130180Y-86527255D01*
X42130180Y-86527255D02*
X42130180Y-86336779D01*
X42130180Y-86336779D02*
X42177800Y-86241541D01*
X42177800Y-86241541D02*
X42225419Y-86193922D01*
X42225419Y-86193922D02*
X42320657Y-86146303D01*
X42320657Y-86146303D02*
X42606371Y-86146303D01*
X42606371Y-86146303D02*
X42701609Y-86193922D01*
X42701609Y-86193922D02*
X42749228Y-86241541D01*
X42749228Y-86241541D02*
X42796847Y-86336779D01*
X42796847Y-86336779D02*
X42796847Y-86527255D01*
X42796847Y-86527255D02*
X42749228Y-86622493D01*
X42130180Y-87051065D02*
X43130180Y-87051065D01*
X42130180Y-87479636D02*
X42653990Y-87479636D01*
X42653990Y-87479636D02*
X42749228Y-87432017D01*
X42749228Y-87432017D02*
X42796847Y-87336779D01*
X42796847Y-87336779D02*
X42796847Y-87193922D01*
X42796847Y-87193922D02*
X42749228Y-87098684D01*
X42749228Y-87098684D02*
X42701609Y-87051065D01*
X92399819Y-79663220D02*
X91399819Y-79663220D01*
X91399819Y-79663220D02*
X91399819Y-79282268D01*
X91399819Y-79282268D02*
X91447438Y-79187030D01*
X91447438Y-79187030D02*
X91495057Y-79139411D01*
X91495057Y-79139411D02*
X91590295Y-79091792D01*
X91590295Y-79091792D02*
X91733152Y-79091792D01*
X91733152Y-79091792D02*
X91828390Y-79139411D01*
X91828390Y-79139411D02*
X91876009Y-79187030D01*
X91876009Y-79187030D02*
X91923628Y-79282268D01*
X91923628Y-79282268D02*
X91923628Y-79663220D01*
X92352200Y-78282268D02*
X92399819Y-78377506D01*
X92399819Y-78377506D02*
X92399819Y-78567982D01*
X92399819Y-78567982D02*
X92352200Y-78663220D01*
X92352200Y-78663220D02*
X92256961Y-78710839D01*
X92256961Y-78710839D02*
X91876009Y-78710839D01*
X91876009Y-78710839D02*
X91780771Y-78663220D01*
X91780771Y-78663220D02*
X91733152Y-78567982D01*
X91733152Y-78567982D02*
X91733152Y-78377506D01*
X91733152Y-78377506D02*
X91780771Y-78282268D01*
X91780771Y-78282268D02*
X91876009Y-78234649D01*
X91876009Y-78234649D02*
X91971247Y-78234649D01*
X91971247Y-78234649D02*
X92066485Y-78710839D01*
X92399819Y-77377506D02*
X91876009Y-77377506D01*
X91876009Y-77377506D02*
X91780771Y-77425125D01*
X91780771Y-77425125D02*
X91733152Y-77520363D01*
X91733152Y-77520363D02*
X91733152Y-77710839D01*
X91733152Y-77710839D02*
X91780771Y-77806077D01*
X92352200Y-77377506D02*
X92399819Y-77472744D01*
X92399819Y-77472744D02*
X92399819Y-77710839D01*
X92399819Y-77710839D02*
X92352200Y-77806077D01*
X92352200Y-77806077D02*
X92256961Y-77853696D01*
X92256961Y-77853696D02*
X92161723Y-77853696D01*
X92161723Y-77853696D02*
X92066485Y-77806077D01*
X92066485Y-77806077D02*
X92018866Y-77710839D01*
X92018866Y-77710839D02*
X92018866Y-77472744D01*
X92018866Y-77472744D02*
X91971247Y-77377506D01*
X91733152Y-76901315D02*
X92399819Y-76901315D01*
X91828390Y-76901315D02*
X91780771Y-76853696D01*
X91780771Y-76853696D02*
X91733152Y-76758458D01*
X91733152Y-76758458D02*
X91733152Y-76615601D01*
X91733152Y-76615601D02*
X91780771Y-76520363D01*
X91780771Y-76520363D02*
X91876009Y-76472744D01*
X91876009Y-76472744D02*
X92399819Y-76472744D01*
X91733152Y-75567982D02*
X92399819Y-75567982D01*
X91733152Y-75996553D02*
X92256961Y-75996553D01*
X92256961Y-75996553D02*
X92352200Y-75948934D01*
X92352200Y-75948934D02*
X92399819Y-75853696D01*
X92399819Y-75853696D02*
X92399819Y-75710839D01*
X92399819Y-75710839D02*
X92352200Y-75615601D01*
X92352200Y-75615601D02*
X92304580Y-75567982D01*
X91733152Y-75234648D02*
X91733152Y-74853696D01*
X91399819Y-75091791D02*
X92256961Y-75091791D01*
X92256961Y-75091791D02*
X92352200Y-75044172D01*
X92352200Y-75044172D02*
X92399819Y-74948934D01*
X92399819Y-74948934D02*
X92399819Y-74853696D01*
X93486009Y-79329887D02*
X93533628Y-79187030D01*
X93533628Y-79187030D02*
X93581247Y-79139411D01*
X93581247Y-79139411D02*
X93676485Y-79091792D01*
X93676485Y-79091792D02*
X93819342Y-79091792D01*
X93819342Y-79091792D02*
X93914580Y-79139411D01*
X93914580Y-79139411D02*
X93962200Y-79187030D01*
X93962200Y-79187030D02*
X94009819Y-79282268D01*
X94009819Y-79282268D02*
X94009819Y-79663220D01*
X94009819Y-79663220D02*
X93009819Y-79663220D01*
X93009819Y-79663220D02*
X93009819Y-79329887D01*
X93009819Y-79329887D02*
X93057438Y-79234649D01*
X93057438Y-79234649D02*
X93105057Y-79187030D01*
X93105057Y-79187030D02*
X93200295Y-79139411D01*
X93200295Y-79139411D02*
X93295533Y-79139411D01*
X93295533Y-79139411D02*
X93390771Y-79187030D01*
X93390771Y-79187030D02*
X93438390Y-79234649D01*
X93438390Y-79234649D02*
X93486009Y-79329887D01*
X93486009Y-79329887D02*
X93486009Y-79663220D01*
X93343152Y-78234649D02*
X94009819Y-78234649D01*
X93343152Y-78663220D02*
X93866961Y-78663220D01*
X93866961Y-78663220D02*
X93962200Y-78615601D01*
X93962200Y-78615601D02*
X94009819Y-78520363D01*
X94009819Y-78520363D02*
X94009819Y-78377506D01*
X94009819Y-78377506D02*
X93962200Y-78282268D01*
X93962200Y-78282268D02*
X93914580Y-78234649D01*
X93343152Y-77901315D02*
X93343152Y-77520363D01*
X93009819Y-77758458D02*
X93866961Y-77758458D01*
X93866961Y-77758458D02*
X93962200Y-77710839D01*
X93962200Y-77710839D02*
X94009819Y-77615601D01*
X94009819Y-77615601D02*
X94009819Y-77520363D01*
X93343152Y-77329886D02*
X93343152Y-76948934D01*
X93009819Y-77187029D02*
X93866961Y-77187029D01*
X93866961Y-77187029D02*
X93962200Y-77139410D01*
X93962200Y-77139410D02*
X94009819Y-77044172D01*
X94009819Y-77044172D02*
X94009819Y-76948934D01*
X93962200Y-76234648D02*
X94009819Y-76329886D01*
X94009819Y-76329886D02*
X94009819Y-76520362D01*
X94009819Y-76520362D02*
X93962200Y-76615600D01*
X93962200Y-76615600D02*
X93866961Y-76663219D01*
X93866961Y-76663219D02*
X93486009Y-76663219D01*
X93486009Y-76663219D02*
X93390771Y-76615600D01*
X93390771Y-76615600D02*
X93343152Y-76520362D01*
X93343152Y-76520362D02*
X93343152Y-76329886D01*
X93343152Y-76329886D02*
X93390771Y-76234648D01*
X93390771Y-76234648D02*
X93486009Y-76187029D01*
X93486009Y-76187029D02*
X93581247Y-76187029D01*
X93581247Y-76187029D02*
X93676485Y-76663219D01*
X94009819Y-75758457D02*
X93343152Y-75758457D01*
X93533628Y-75758457D02*
X93438390Y-75710838D01*
X93438390Y-75710838D02*
X93390771Y-75663219D01*
X93390771Y-75663219D02*
X93343152Y-75567981D01*
X93343152Y-75567981D02*
X93343152Y-75472743D01*
X94619819Y-79377506D02*
X95334104Y-79377506D01*
X95334104Y-79377506D02*
X95476961Y-79425125D01*
X95476961Y-79425125D02*
X95572200Y-79520363D01*
X95572200Y-79520363D02*
X95619819Y-79663220D01*
X95619819Y-79663220D02*
X95619819Y-79758458D01*
X95572200Y-78520363D02*
X95619819Y-78615601D01*
X95619819Y-78615601D02*
X95619819Y-78806077D01*
X95619819Y-78806077D02*
X95572200Y-78901315D01*
X95572200Y-78901315D02*
X95476961Y-78948934D01*
X95476961Y-78948934D02*
X95096009Y-78948934D01*
X95096009Y-78948934D02*
X95000771Y-78901315D01*
X95000771Y-78901315D02*
X94953152Y-78806077D01*
X94953152Y-78806077D02*
X94953152Y-78615601D01*
X94953152Y-78615601D02*
X95000771Y-78520363D01*
X95000771Y-78520363D02*
X95096009Y-78472744D01*
X95096009Y-78472744D02*
X95191247Y-78472744D01*
X95191247Y-78472744D02*
X95286485Y-78948934D01*
X95619819Y-77901315D02*
X95572200Y-77996553D01*
X95572200Y-77996553D02*
X95476961Y-78044172D01*
X95476961Y-78044172D02*
X94619819Y-78044172D01*
X95619819Y-77377505D02*
X95572200Y-77472743D01*
X95572200Y-77472743D02*
X95476961Y-77520362D01*
X95476961Y-77520362D02*
X94619819Y-77520362D01*
X94953152Y-77091790D02*
X95619819Y-76853695D01*
X94953152Y-76615600D02*
X95619819Y-76853695D01*
X95619819Y-76853695D02*
X95857914Y-76948933D01*
X95857914Y-76948933D02*
X95905533Y-76996552D01*
X95905533Y-76996552D02*
X95953152Y-77091790D01*
X94953152Y-76377504D02*
X94953152Y-75996552D01*
X95619819Y-76234647D02*
X94762676Y-76234647D01*
X94762676Y-76234647D02*
X94667438Y-76187028D01*
X94667438Y-76187028D02*
X94619819Y-76091790D01*
X94619819Y-76091790D02*
X94619819Y-75996552D01*
X95619819Y-75663218D02*
X94953152Y-75663218D01*
X94619819Y-75663218D02*
X94667438Y-75710837D01*
X94667438Y-75710837D02*
X94715057Y-75663218D01*
X94715057Y-75663218D02*
X94667438Y-75615599D01*
X94667438Y-75615599D02*
X94619819Y-75663218D01*
X94619819Y-75663218D02*
X94715057Y-75663218D01*
X95572200Y-75234647D02*
X95619819Y-75139409D01*
X95619819Y-75139409D02*
X95619819Y-74948933D01*
X95619819Y-74948933D02*
X95572200Y-74853695D01*
X95572200Y-74853695D02*
X95476961Y-74806076D01*
X95476961Y-74806076D02*
X95429342Y-74806076D01*
X95429342Y-74806076D02*
X95334104Y-74853695D01*
X95334104Y-74853695D02*
X95286485Y-74948933D01*
X95286485Y-74948933D02*
X95286485Y-75091790D01*
X95286485Y-75091790D02*
X95238866Y-75187028D01*
X95238866Y-75187028D02*
X95143628Y-75234647D01*
X95143628Y-75234647D02*
X95096009Y-75234647D01*
X95096009Y-75234647D02*
X95000771Y-75187028D01*
X95000771Y-75187028D02*
X94953152Y-75091790D01*
X94953152Y-75091790D02*
X94953152Y-74948933D01*
X94953152Y-74948933D02*
X95000771Y-74853695D01*
X95619819Y-74377504D02*
X94619819Y-74377504D01*
X95619819Y-73948933D02*
X95096009Y-73948933D01*
X95096009Y-73948933D02*
X95000771Y-73996552D01*
X95000771Y-73996552D02*
X94953152Y-74091790D01*
X94953152Y-74091790D02*
X94953152Y-74234647D01*
X94953152Y-74234647D02*
X95000771Y-74329885D01*
X95000771Y-74329885D02*
X95048390Y-74377504D01*
X73777255Y-67869819D02*
X73967731Y-67869819D01*
X73967731Y-67869819D02*
X74062969Y-67917438D01*
X74062969Y-67917438D02*
X74158207Y-68012676D01*
X74158207Y-68012676D02*
X74205826Y-68203152D01*
X74205826Y-68203152D02*
X74205826Y-68536485D01*
X74205826Y-68536485D02*
X74158207Y-68726961D01*
X74158207Y-68726961D02*
X74062969Y-68822200D01*
X74062969Y-68822200D02*
X73967731Y-68869819D01*
X73967731Y-68869819D02*
X73777255Y-68869819D01*
X73777255Y-68869819D02*
X73682017Y-68822200D01*
X73682017Y-68822200D02*
X73586779Y-68726961D01*
X73586779Y-68726961D02*
X73539160Y-68536485D01*
X73539160Y-68536485D02*
X73539160Y-68203152D01*
X73539160Y-68203152D02*
X73586779Y-68012676D01*
X73586779Y-68012676D02*
X73682017Y-67917438D01*
X73682017Y-67917438D02*
X73777255Y-67869819D01*
X74634398Y-68203152D02*
X74634398Y-68869819D01*
X74634398Y-68298390D02*
X74682017Y-68250771D01*
X74682017Y-68250771D02*
X74777255Y-68203152D01*
X74777255Y-68203152D02*
X74920112Y-68203152D01*
X74920112Y-68203152D02*
X75015350Y-68250771D01*
X75015350Y-68250771D02*
X75062969Y-68346009D01*
X75062969Y-68346009D02*
X75062969Y-68869819D01*
X50990180Y-71336779D02*
X51990180Y-71336779D01*
X51990180Y-71336779D02*
X51275895Y-71670112D01*
X51275895Y-71670112D02*
X51990180Y-72003445D01*
X51990180Y-72003445D02*
X50990180Y-72003445D01*
X50990180Y-72908207D02*
X51513990Y-72908207D01*
X51513990Y-72908207D02*
X51609228Y-72860588D01*
X51609228Y-72860588D02*
X51656847Y-72765350D01*
X51656847Y-72765350D02*
X51656847Y-72574874D01*
X51656847Y-72574874D02*
X51609228Y-72479636D01*
X51037800Y-72908207D02*
X50990180Y-72812969D01*
X50990180Y-72812969D02*
X50990180Y-72574874D01*
X50990180Y-72574874D02*
X51037800Y-72479636D01*
X51037800Y-72479636D02*
X51133038Y-72432017D01*
X51133038Y-72432017D02*
X51228276Y-72432017D01*
X51228276Y-72432017D02*
X51323514Y-72479636D01*
X51323514Y-72479636D02*
X51371133Y-72574874D01*
X51371133Y-72574874D02*
X51371133Y-72812969D01*
X51371133Y-72812969D02*
X51418752Y-72908207D01*
X50990180Y-73289160D02*
X51656847Y-73812969D01*
X51656847Y-73289160D02*
X50990180Y-73812969D01*
X49427800Y-71289160D02*
X49380180Y-71432017D01*
X49380180Y-71432017D02*
X49380180Y-71670112D01*
X49380180Y-71670112D02*
X49427800Y-71765350D01*
X49427800Y-71765350D02*
X49475419Y-71812969D01*
X49475419Y-71812969D02*
X49570657Y-71860588D01*
X49570657Y-71860588D02*
X49665895Y-71860588D01*
X49665895Y-71860588D02*
X49761133Y-71812969D01*
X49761133Y-71812969D02*
X49808752Y-71765350D01*
X49808752Y-71765350D02*
X49856371Y-71670112D01*
X49856371Y-71670112D02*
X49903990Y-71479636D01*
X49903990Y-71479636D02*
X49951609Y-71384398D01*
X49951609Y-71384398D02*
X49999228Y-71336779D01*
X49999228Y-71336779D02*
X50094466Y-71289160D01*
X50094466Y-71289160D02*
X50189704Y-71289160D01*
X50189704Y-71289160D02*
X50284942Y-71336779D01*
X50284942Y-71336779D02*
X50332561Y-71384398D01*
X50332561Y-71384398D02*
X50380180Y-71479636D01*
X50380180Y-71479636D02*
X50380180Y-71717731D01*
X50380180Y-71717731D02*
X50332561Y-71860588D01*
X49380180Y-72717731D02*
X49903990Y-72717731D01*
X49903990Y-72717731D02*
X49999228Y-72670112D01*
X49999228Y-72670112D02*
X50046847Y-72574874D01*
X50046847Y-72574874D02*
X50046847Y-72384398D01*
X50046847Y-72384398D02*
X49999228Y-72289160D01*
X49427800Y-72717731D02*
X49380180Y-72622493D01*
X49380180Y-72622493D02*
X49380180Y-72384398D01*
X49380180Y-72384398D02*
X49427800Y-72289160D01*
X49427800Y-72289160D02*
X49523038Y-72241541D01*
X49523038Y-72241541D02*
X49618276Y-72241541D01*
X49618276Y-72241541D02*
X49713514Y-72289160D01*
X49713514Y-72289160D02*
X49761133Y-72384398D01*
X49761133Y-72384398D02*
X49761133Y-72622493D01*
X49761133Y-72622493D02*
X49808752Y-72717731D01*
X50046847Y-73098684D02*
X49380180Y-73336779D01*
X49380180Y-73336779D02*
X50046847Y-73574874D01*
X61777255Y-67619819D02*
X61967731Y-67619819D01*
X61967731Y-67619819D02*
X62062969Y-67667438D01*
X62062969Y-67667438D02*
X62158207Y-67762676D01*
X62158207Y-67762676D02*
X62205826Y-67953152D01*
X62205826Y-67953152D02*
X62205826Y-68286485D01*
X62205826Y-68286485D02*
X62158207Y-68476961D01*
X62158207Y-68476961D02*
X62062969Y-68572200D01*
X62062969Y-68572200D02*
X61967731Y-68619819D01*
X61967731Y-68619819D02*
X61777255Y-68619819D01*
X61777255Y-68619819D02*
X61682017Y-68572200D01*
X61682017Y-68572200D02*
X61586779Y-68476961D01*
X61586779Y-68476961D02*
X61539160Y-68286485D01*
X61539160Y-68286485D02*
X61539160Y-67953152D01*
X61539160Y-67953152D02*
X61586779Y-67762676D01*
X61586779Y-67762676D02*
X61682017Y-67667438D01*
X61682017Y-67667438D02*
X61777255Y-67619819D01*
X62491541Y-67953152D02*
X62872493Y-67953152D01*
X62634398Y-68619819D02*
X62634398Y-67762676D01*
X62634398Y-67762676D02*
X62682017Y-67667438D01*
X62682017Y-67667438D02*
X62777255Y-67619819D01*
X62777255Y-67619819D02*
X62872493Y-67619819D01*
X63062970Y-67953152D02*
X63443922Y-67953152D01*
X63205827Y-68619819D02*
X63205827Y-67762676D01*
X63205827Y-67762676D02*
X63253446Y-67667438D01*
X63253446Y-67667438D02*
X63348684Y-67619819D01*
X63348684Y-67619819D02*
X63443922Y-67619819D01*
X49836779Y-93119819D02*
X49836779Y-92119819D01*
X49836779Y-92119819D02*
X50217731Y-92119819D01*
X50217731Y-92119819D02*
X50312969Y-92167438D01*
X50312969Y-92167438D02*
X50360588Y-92215057D01*
X50360588Y-92215057D02*
X50408207Y-92310295D01*
X50408207Y-92310295D02*
X50408207Y-92453152D01*
X50408207Y-92453152D02*
X50360588Y-92548390D01*
X50360588Y-92548390D02*
X50312969Y-92596009D01*
X50312969Y-92596009D02*
X50217731Y-92643628D01*
X50217731Y-92643628D02*
X49836779Y-92643628D01*
X50836779Y-93119819D02*
X50836779Y-92119819D01*
X51265350Y-93119819D02*
X51265350Y-92596009D01*
X51265350Y-92596009D02*
X51217731Y-92500771D01*
X51217731Y-92500771D02*
X51122493Y-92453152D01*
X51122493Y-92453152D02*
X50979636Y-92453152D01*
X50979636Y-92453152D02*
X50884398Y-92500771D01*
X50884398Y-92500771D02*
X50836779Y-92548390D01*
X51884398Y-93119819D02*
X51789160Y-93072200D01*
X51789160Y-93072200D02*
X51741541Y-93024580D01*
X51741541Y-93024580D02*
X51693922Y-92929342D01*
X51693922Y-92929342D02*
X51693922Y-92643628D01*
X51693922Y-92643628D02*
X51741541Y-92548390D01*
X51741541Y-92548390D02*
X51789160Y-92500771D01*
X51789160Y-92500771D02*
X51884398Y-92453152D01*
X51884398Y-92453152D02*
X52027255Y-92453152D01*
X52027255Y-92453152D02*
X52122493Y-92500771D01*
X52122493Y-92500771D02*
X52170112Y-92548390D01*
X52170112Y-92548390D02*
X52217731Y-92643628D01*
X52217731Y-92643628D02*
X52217731Y-92929342D01*
X52217731Y-92929342D02*
X52170112Y-93024580D01*
X52170112Y-93024580D02*
X52122493Y-93072200D01*
X52122493Y-93072200D02*
X52027255Y-93119819D01*
X52027255Y-93119819D02*
X51884398Y-93119819D01*
X52646303Y-93119819D02*
X52646303Y-92453152D01*
X52646303Y-92643628D02*
X52693922Y-92548390D01*
X52693922Y-92548390D02*
X52741541Y-92500771D01*
X52741541Y-92500771D02*
X52836779Y-92453152D01*
X52836779Y-92453152D02*
X52932017Y-92453152D01*
X53693922Y-93119819D02*
X53693922Y-92596009D01*
X53693922Y-92596009D02*
X53646303Y-92500771D01*
X53646303Y-92500771D02*
X53551065Y-92453152D01*
X53551065Y-92453152D02*
X53360589Y-92453152D01*
X53360589Y-92453152D02*
X53265351Y-92500771D01*
X53693922Y-93072200D02*
X53598684Y-93119819D01*
X53598684Y-93119819D02*
X53360589Y-93119819D01*
X53360589Y-93119819D02*
X53265351Y-93072200D01*
X53265351Y-93072200D02*
X53217732Y-92976961D01*
X53217732Y-92976961D02*
X53217732Y-92881723D01*
X53217732Y-92881723D02*
X53265351Y-92786485D01*
X53265351Y-92786485D02*
X53360589Y-92738866D01*
X53360589Y-92738866D02*
X53598684Y-92738866D01*
X53598684Y-92738866D02*
X53693922Y-92691247D01*
X54551065Y-93072200D02*
X54455827Y-93119819D01*
X54455827Y-93119819D02*
X54265351Y-93119819D01*
X54265351Y-93119819D02*
X54170113Y-93072200D01*
X54170113Y-93072200D02*
X54122494Y-92976961D01*
X54122494Y-92976961D02*
X54122494Y-92596009D01*
X54122494Y-92596009D02*
X54170113Y-92500771D01*
X54170113Y-92500771D02*
X54265351Y-92453152D01*
X54265351Y-92453152D02*
X54455827Y-92453152D01*
X54455827Y-92453152D02*
X54551065Y-92500771D01*
X54551065Y-92500771D02*
X54598684Y-92596009D01*
X54598684Y-92596009D02*
X54598684Y-92691247D01*
X54598684Y-92691247D02*
X54122494Y-92786485D01*
X55693923Y-92453152D02*
X55932018Y-93119819D01*
X55932018Y-93119819D02*
X56170113Y-92453152D01*
X57074875Y-93119819D02*
X56503447Y-93119819D01*
X56789161Y-93119819D02*
X56789161Y-92119819D01*
X56789161Y-92119819D02*
X56693923Y-92262676D01*
X56693923Y-92262676D02*
X56598685Y-92357914D01*
X56598685Y-92357914D02*
X56503447Y-92405533D01*
X57503447Y-93024580D02*
X57551066Y-93072200D01*
X57551066Y-93072200D02*
X57503447Y-93119819D01*
X57503447Y-93119819D02*
X57455828Y-93072200D01*
X57455828Y-93072200D02*
X57503447Y-93024580D01*
X57503447Y-93024580D02*
X57503447Y-93119819D01*
X58170113Y-92119819D02*
X58265351Y-92119819D01*
X58265351Y-92119819D02*
X58360589Y-92167438D01*
X58360589Y-92167438D02*
X58408208Y-92215057D01*
X58408208Y-92215057D02*
X58455827Y-92310295D01*
X58455827Y-92310295D02*
X58503446Y-92500771D01*
X58503446Y-92500771D02*
X58503446Y-92738866D01*
X58503446Y-92738866D02*
X58455827Y-92929342D01*
X58455827Y-92929342D02*
X58408208Y-93024580D01*
X58408208Y-93024580D02*
X58360589Y-93072200D01*
X58360589Y-93072200D02*
X58265351Y-93119819D01*
X58265351Y-93119819D02*
X58170113Y-93119819D01*
X58170113Y-93119819D02*
X58074875Y-93072200D01*
X58074875Y-93072200D02*
X58027256Y-93024580D01*
X58027256Y-93024580D02*
X57979637Y-92929342D01*
X57979637Y-92929342D02*
X57932018Y-92738866D01*
X57932018Y-92738866D02*
X57932018Y-92500771D01*
X57932018Y-92500771D02*
X57979637Y-92310295D01*
X57979637Y-92310295D02*
X58027256Y-92215057D01*
X58027256Y-92215057D02*
X58074875Y-92167438D01*
X58074875Y-92167438D02*
X58170113Y-92119819D01*
X73254819Y-77561904D02*
X74064342Y-77561904D01*
X74064342Y-77561904D02*
X74159580Y-77514285D01*
X74159580Y-77514285D02*
X74207200Y-77466666D01*
X74207200Y-77466666D02*
X74254819Y-77371428D01*
X74254819Y-77371428D02*
X74254819Y-77180952D01*
X74254819Y-77180952D02*
X74207200Y-77085714D01*
X74207200Y-77085714D02*
X74159580Y-77038095D01*
X74159580Y-77038095D02*
X74064342Y-76990476D01*
X74064342Y-76990476D02*
X73254819Y-76990476D01*
X73588152Y-76085714D02*
X74254819Y-76085714D01*
X73207200Y-76323809D02*
X73921485Y-76561904D01*
X73921485Y-76561904D02*
X73921485Y-75942857D01*
X59916666Y-67931009D02*
X59583333Y-67931009D01*
X59583333Y-68454819D02*
X59583333Y-67454819D01*
X59583333Y-67454819D02*
X60059523Y-67454819D01*
X60964285Y-68454819D02*
X60392857Y-68454819D01*
X60678571Y-68454819D02*
X60678571Y-67454819D01*
X60678571Y-67454819D02*
X60583333Y-67597676D01*
X60583333Y-67597676D02*
X60488095Y-67692914D01*
X60488095Y-67692914D02*
X60392857Y-67740533D01*
X55204819Y-81916666D02*
X54728628Y-82249999D01*
X55204819Y-82488094D02*
X54204819Y-82488094D01*
X54204819Y-82488094D02*
X54204819Y-82107142D01*
X54204819Y-82107142D02*
X54252438Y-82011904D01*
X54252438Y-82011904D02*
X54300057Y-81964285D01*
X54300057Y-81964285D02*
X54395295Y-81916666D01*
X54395295Y-81916666D02*
X54538152Y-81916666D01*
X54538152Y-81916666D02*
X54633390Y-81964285D01*
X54633390Y-81964285D02*
X54681009Y-82011904D01*
X54681009Y-82011904D02*
X54728628Y-82107142D01*
X54728628Y-82107142D02*
X54728628Y-82488094D01*
X55204819Y-80964285D02*
X55204819Y-81535713D01*
X55204819Y-81249999D02*
X54204819Y-81249999D01*
X54204819Y-81249999D02*
X54347676Y-81345237D01*
X54347676Y-81345237D02*
X54442914Y-81440475D01*
X54442914Y-81440475D02*
X54490533Y-81535713D01*
X65794819Y-99353333D02*
X66509104Y-99353333D01*
X66509104Y-99353333D02*
X66651961Y-99400952D01*
X66651961Y-99400952D02*
X66747200Y-99496190D01*
X66747200Y-99496190D02*
X66794819Y-99639047D01*
X66794819Y-99639047D02*
X66794819Y-99734285D01*
X66128152Y-98448571D02*
X66794819Y-98448571D01*
X65747200Y-98686666D02*
X66461485Y-98924761D01*
X66461485Y-98924761D02*
X66461485Y-98305714D01*
X50129580Y-81166666D02*
X50177200Y-81214285D01*
X50177200Y-81214285D02*
X50224819Y-81357142D01*
X50224819Y-81357142D02*
X50224819Y-81452380D01*
X50224819Y-81452380D02*
X50177200Y-81595237D01*
X50177200Y-81595237D02*
X50081961Y-81690475D01*
X50081961Y-81690475D02*
X49986723Y-81738094D01*
X49986723Y-81738094D02*
X49796247Y-81785713D01*
X49796247Y-81785713D02*
X49653390Y-81785713D01*
X49653390Y-81785713D02*
X49462914Y-81738094D01*
X49462914Y-81738094D02*
X49367676Y-81690475D01*
X49367676Y-81690475D02*
X49272438Y-81595237D01*
X49272438Y-81595237D02*
X49224819Y-81452380D01*
X49224819Y-81452380D02*
X49224819Y-81357142D01*
X49224819Y-81357142D02*
X49272438Y-81214285D01*
X49272438Y-81214285D02*
X49320057Y-81166666D01*
X49320057Y-80785713D02*
X49272438Y-80738094D01*
X49272438Y-80738094D02*
X49224819Y-80642856D01*
X49224819Y-80642856D02*
X49224819Y-80404761D01*
X49224819Y-80404761D02*
X49272438Y-80309523D01*
X49272438Y-80309523D02*
X49320057Y-80261904D01*
X49320057Y-80261904D02*
X49415295Y-80214285D01*
X49415295Y-80214285D02*
X49510533Y-80214285D01*
X49510533Y-80214285D02*
X49653390Y-80261904D01*
X49653390Y-80261904D02*
X50224819Y-80833332D01*
X50224819Y-80833332D02*
X50224819Y-80214285D01*
X53184819Y-89766666D02*
X52708628Y-90099999D01*
X53184819Y-90338094D02*
X52184819Y-90338094D01*
X52184819Y-90338094D02*
X52184819Y-89957142D01*
X52184819Y-89957142D02*
X52232438Y-89861904D01*
X52232438Y-89861904D02*
X52280057Y-89814285D01*
X52280057Y-89814285D02*
X52375295Y-89766666D01*
X52375295Y-89766666D02*
X52518152Y-89766666D01*
X52518152Y-89766666D02*
X52613390Y-89814285D01*
X52613390Y-89814285D02*
X52661009Y-89861904D01*
X52661009Y-89861904D02*
X52708628Y-89957142D01*
X52708628Y-89957142D02*
X52708628Y-90338094D01*
X52280057Y-89385713D02*
X52232438Y-89338094D01*
X52232438Y-89338094D02*
X52184819Y-89242856D01*
X52184819Y-89242856D02*
X52184819Y-89004761D01*
X52184819Y-89004761D02*
X52232438Y-88909523D01*
X52232438Y-88909523D02*
X52280057Y-88861904D01*
X52280057Y-88861904D02*
X52375295Y-88814285D01*
X52375295Y-88814285D02*
X52470533Y-88814285D01*
X52470533Y-88814285D02*
X52613390Y-88861904D01*
X52613390Y-88861904D02*
X53184819Y-89433332D01*
X53184819Y-89433332D02*
X53184819Y-88814285D01*
X60083333Y-71359580D02*
X60035714Y-71407200D01*
X60035714Y-71407200D02*
X59892857Y-71454819D01*
X59892857Y-71454819D02*
X59797619Y-71454819D01*
X59797619Y-71454819D02*
X59654762Y-71407200D01*
X59654762Y-71407200D02*
X59559524Y-71311961D01*
X59559524Y-71311961D02*
X59511905Y-71216723D01*
X59511905Y-71216723D02*
X59464286Y-71026247D01*
X59464286Y-71026247D02*
X59464286Y-70883390D01*
X59464286Y-70883390D02*
X59511905Y-70692914D01*
X59511905Y-70692914D02*
X59559524Y-70597676D01*
X59559524Y-70597676D02*
X59654762Y-70502438D01*
X59654762Y-70502438D02*
X59797619Y-70454819D01*
X59797619Y-70454819D02*
X59892857Y-70454819D01*
X59892857Y-70454819D02*
X60035714Y-70502438D01*
X60035714Y-70502438D02*
X60083333Y-70550057D01*
X61035714Y-71454819D02*
X60464286Y-71454819D01*
X60750000Y-71454819D02*
X60750000Y-70454819D01*
X60750000Y-70454819D02*
X60654762Y-70597676D01*
X60654762Y-70597676D02*
X60559524Y-70692914D01*
X60559524Y-70692914D02*
X60464286Y-70740533D01*
X77789580Y-85166666D02*
X77837200Y-85214285D01*
X77837200Y-85214285D02*
X77884819Y-85357142D01*
X77884819Y-85357142D02*
X77884819Y-85452380D01*
X77884819Y-85452380D02*
X77837200Y-85595237D01*
X77837200Y-85595237D02*
X77741961Y-85690475D01*
X77741961Y-85690475D02*
X77646723Y-85738094D01*
X77646723Y-85738094D02*
X77456247Y-85785713D01*
X77456247Y-85785713D02*
X77313390Y-85785713D01*
X77313390Y-85785713D02*
X77122914Y-85738094D01*
X77122914Y-85738094D02*
X77027676Y-85690475D01*
X77027676Y-85690475D02*
X76932438Y-85595237D01*
X76932438Y-85595237D02*
X76884819Y-85452380D01*
X76884819Y-85452380D02*
X76884819Y-85357142D01*
X76884819Y-85357142D02*
X76932438Y-85214285D01*
X76932438Y-85214285D02*
X76980057Y-85166666D01*
X77218152Y-84309523D02*
X77884819Y-84309523D01*
X76837200Y-84547618D02*
X77551485Y-84785713D01*
X77551485Y-84785713D02*
X77551485Y-84166666D01*
X73166667Y-70407200D02*
X73309524Y-70454819D01*
X73309524Y-70454819D02*
X73547619Y-70454819D01*
X73547619Y-70454819D02*
X73642857Y-70407200D01*
X73642857Y-70407200D02*
X73690476Y-70359580D01*
X73690476Y-70359580D02*
X73738095Y-70264342D01*
X73738095Y-70264342D02*
X73738095Y-70169104D01*
X73738095Y-70169104D02*
X73690476Y-70073866D01*
X73690476Y-70073866D02*
X73642857Y-70026247D01*
X73642857Y-70026247D02*
X73547619Y-69978628D01*
X73547619Y-69978628D02*
X73357143Y-69931009D01*
X73357143Y-69931009D02*
X73261905Y-69883390D01*
X73261905Y-69883390D02*
X73214286Y-69835771D01*
X73214286Y-69835771D02*
X73166667Y-69740533D01*
X73166667Y-69740533D02*
X73166667Y-69645295D01*
X73166667Y-69645295D02*
X73214286Y-69550057D01*
X73214286Y-69550057D02*
X73261905Y-69502438D01*
X73261905Y-69502438D02*
X73357143Y-69454819D01*
X73357143Y-69454819D02*
X73595238Y-69454819D01*
X73595238Y-69454819D02*
X73738095Y-69502438D01*
X74071429Y-69454819D02*
X74309524Y-70454819D01*
X74309524Y-70454819D02*
X74500000Y-69740533D01*
X74500000Y-69740533D02*
X74690476Y-70454819D01*
X74690476Y-70454819D02*
X74928572Y-69454819D01*
X75833333Y-70454819D02*
X75261905Y-70454819D01*
X75547619Y-70454819D02*
X75547619Y-69454819D01*
X75547619Y-69454819D02*
X75452381Y-69597676D01*
X75452381Y-69597676D02*
X75357143Y-69692914D01*
X75357143Y-69692914D02*
X75261905Y-69740533D01*
X56238095Y-81204819D02*
X56238095Y-82014342D01*
X56238095Y-82014342D02*
X56285714Y-82109580D01*
X56285714Y-82109580D02*
X56333333Y-82157200D01*
X56333333Y-82157200D02*
X56428571Y-82204819D01*
X56428571Y-82204819D02*
X56619047Y-82204819D01*
X56619047Y-82204819D02*
X56714285Y-82157200D01*
X56714285Y-82157200D02*
X56761904Y-82109580D01*
X56761904Y-82109580D02*
X56809523Y-82014342D01*
X56809523Y-82014342D02*
X56809523Y-81204819D01*
X57809523Y-82204819D02*
X57238095Y-82204819D01*
X57523809Y-82204819D02*
X57523809Y-81204819D01*
X57523809Y-81204819D02*
X57428571Y-81347676D01*
X57428571Y-81347676D02*
X57333333Y-81442914D01*
X57333333Y-81442914D02*
X57238095Y-81490533D01*
X58954819Y-76511904D02*
X59764342Y-76511904D01*
X59764342Y-76511904D02*
X59859580Y-76464285D01*
X59859580Y-76464285D02*
X59907200Y-76416666D01*
X59907200Y-76416666D02*
X59954819Y-76321428D01*
X59954819Y-76321428D02*
X59954819Y-76130952D01*
X59954819Y-76130952D02*
X59907200Y-76035714D01*
X59907200Y-76035714D02*
X59859580Y-75988095D01*
X59859580Y-75988095D02*
X59764342Y-75940476D01*
X59764342Y-75940476D02*
X58954819Y-75940476D01*
X58954819Y-75559523D02*
X58954819Y-74940476D01*
X58954819Y-74940476D02*
X59335771Y-75273809D01*
X59335771Y-75273809D02*
X59335771Y-75130952D01*
X59335771Y-75130952D02*
X59383390Y-75035714D01*
X59383390Y-75035714D02*
X59431009Y-74988095D01*
X59431009Y-74988095D02*
X59526247Y-74940476D01*
X59526247Y-74940476D02*
X59764342Y-74940476D01*
X59764342Y-74940476D02*
X59859580Y-74988095D01*
X59859580Y-74988095D02*
X59907200Y-75035714D01*
X59907200Y-75035714D02*
X59954819Y-75130952D01*
X59954819Y-75130952D02*
X59954819Y-75416666D01*
X59954819Y-75416666D02*
X59907200Y-75511904D01*
X59907200Y-75511904D02*
X59859580Y-75559523D01*
D11*
X77729580Y-88238095D02*
X76920057Y-88238095D01*
X76920057Y-88238095D02*
X76824819Y-88285714D01*
X76824819Y-88285714D02*
X76777200Y-88333333D01*
X76777200Y-88333333D02*
X76729580Y-88428571D01*
X76729580Y-88428571D02*
X76729580Y-88619047D01*
X76729580Y-88619047D02*
X76777200Y-88714285D01*
X76777200Y-88714285D02*
X76824819Y-88761904D01*
X76824819Y-88761904D02*
X76920057Y-88809523D01*
X76920057Y-88809523D02*
X77729580Y-88809523D01*
X77634342Y-89238095D02*
X77681961Y-89285714D01*
X77681961Y-89285714D02*
X77729580Y-89380952D01*
X77729580Y-89380952D02*
X77729580Y-89619047D01*
X77729580Y-89619047D02*
X77681961Y-89714285D01*
X77681961Y-89714285D02*
X77634342Y-89761904D01*
X77634342Y-89761904D02*
X77539104Y-89809523D01*
X77539104Y-89809523D02*
X77443866Y-89809523D01*
X77443866Y-89809523D02*
X77301009Y-89761904D01*
X77301009Y-89761904D02*
X76729580Y-89190476D01*
X76729580Y-89190476D02*
X76729580Y-89809523D01*
D10*
X65274819Y-75666666D02*
X64798628Y-75999999D01*
X65274819Y-76238094D02*
X64274819Y-76238094D01*
X64274819Y-76238094D02*
X64274819Y-75857142D01*
X64274819Y-75857142D02*
X64322438Y-75761904D01*
X64322438Y-75761904D02*
X64370057Y-75714285D01*
X64370057Y-75714285D02*
X64465295Y-75666666D01*
X64465295Y-75666666D02*
X64608152Y-75666666D01*
X64608152Y-75666666D02*
X64703390Y-75714285D01*
X64703390Y-75714285D02*
X64751009Y-75761904D01*
X64751009Y-75761904D02*
X64798628Y-75857142D01*
X64798628Y-75857142D02*
X64798628Y-76238094D01*
X64274819Y-75333332D02*
X64274819Y-74714285D01*
X64274819Y-74714285D02*
X64655771Y-75047618D01*
X64655771Y-75047618D02*
X64655771Y-74904761D01*
X64655771Y-74904761D02*
X64703390Y-74809523D01*
X64703390Y-74809523D02*
X64751009Y-74761904D01*
X64751009Y-74761904D02*
X64846247Y-74714285D01*
X64846247Y-74714285D02*
X65084342Y-74714285D01*
X65084342Y-74714285D02*
X65179580Y-74761904D01*
X65179580Y-74761904D02*
X65227200Y-74809523D01*
X65227200Y-74809523D02*
X65274819Y-74904761D01*
X65274819Y-74904761D02*
X65274819Y-75190475D01*
X65274819Y-75190475D02*
X65227200Y-75285713D01*
X65227200Y-75285713D02*
X65179580Y-75333332D01*
X49560180Y-85666666D02*
X48845895Y-85666666D01*
X48845895Y-85666666D02*
X48703038Y-85619047D01*
X48703038Y-85619047D02*
X48607800Y-85523809D01*
X48607800Y-85523809D02*
X48560180Y-85380952D01*
X48560180Y-85380952D02*
X48560180Y-85285714D01*
X48560180Y-86666666D02*
X48560180Y-86095238D01*
X48560180Y-86380952D02*
X49560180Y-86380952D01*
X49560180Y-86380952D02*
X49417323Y-86285714D01*
X49417323Y-86285714D02*
X49322085Y-86190476D01*
X49322085Y-86190476D02*
X49274466Y-86095238D01*
X68583333Y-73109580D02*
X68535714Y-73157200D01*
X68535714Y-73157200D02*
X68392857Y-73204819D01*
X68392857Y-73204819D02*
X68297619Y-73204819D01*
X68297619Y-73204819D02*
X68154762Y-73157200D01*
X68154762Y-73157200D02*
X68059524Y-73061961D01*
X68059524Y-73061961D02*
X68011905Y-72966723D01*
X68011905Y-72966723D02*
X67964286Y-72776247D01*
X67964286Y-72776247D02*
X67964286Y-72633390D01*
X67964286Y-72633390D02*
X68011905Y-72442914D01*
X68011905Y-72442914D02*
X68059524Y-72347676D01*
X68059524Y-72347676D02*
X68154762Y-72252438D01*
X68154762Y-72252438D02*
X68297619Y-72204819D01*
X68297619Y-72204819D02*
X68392857Y-72204819D01*
X68392857Y-72204819D02*
X68535714Y-72252438D01*
X68535714Y-72252438D02*
X68583333Y-72300057D01*
X69154762Y-72633390D02*
X69059524Y-72585771D01*
X69059524Y-72585771D02*
X69011905Y-72538152D01*
X69011905Y-72538152D02*
X68964286Y-72442914D01*
X68964286Y-72442914D02*
X68964286Y-72395295D01*
X68964286Y-72395295D02*
X69011905Y-72300057D01*
X69011905Y-72300057D02*
X69059524Y-72252438D01*
X69059524Y-72252438D02*
X69154762Y-72204819D01*
X69154762Y-72204819D02*
X69345238Y-72204819D01*
X69345238Y-72204819D02*
X69440476Y-72252438D01*
X69440476Y-72252438D02*
X69488095Y-72300057D01*
X69488095Y-72300057D02*
X69535714Y-72395295D01*
X69535714Y-72395295D02*
X69535714Y-72442914D01*
X69535714Y-72442914D02*
X69488095Y-72538152D01*
X69488095Y-72538152D02*
X69440476Y-72585771D01*
X69440476Y-72585771D02*
X69345238Y-72633390D01*
X69345238Y-72633390D02*
X69154762Y-72633390D01*
X69154762Y-72633390D02*
X69059524Y-72681009D01*
X69059524Y-72681009D02*
X69011905Y-72728628D01*
X69011905Y-72728628D02*
X68964286Y-72823866D01*
X68964286Y-72823866D02*
X68964286Y-73014342D01*
X68964286Y-73014342D02*
X69011905Y-73109580D01*
X69011905Y-73109580D02*
X69059524Y-73157200D01*
X69059524Y-73157200D02*
X69154762Y-73204819D01*
X69154762Y-73204819D02*
X69345238Y-73204819D01*
X69345238Y-73204819D02*
X69440476Y-73157200D01*
X69440476Y-73157200D02*
X69488095Y-73109580D01*
X69488095Y-73109580D02*
X69535714Y-73014342D01*
X69535714Y-73014342D02*
X69535714Y-72823866D01*
X69535714Y-72823866D02*
X69488095Y-72728628D01*
X69488095Y-72728628D02*
X69440476Y-72681009D01*
X69440476Y-72681009D02*
X69345238Y-72633390D01*
X71233333Y-81989580D02*
X71185714Y-82037200D01*
X71185714Y-82037200D02*
X71042857Y-82084819D01*
X71042857Y-82084819D02*
X70947619Y-82084819D01*
X70947619Y-82084819D02*
X70804762Y-82037200D01*
X70804762Y-82037200D02*
X70709524Y-81941961D01*
X70709524Y-81941961D02*
X70661905Y-81846723D01*
X70661905Y-81846723D02*
X70614286Y-81656247D01*
X70614286Y-81656247D02*
X70614286Y-81513390D01*
X70614286Y-81513390D02*
X70661905Y-81322914D01*
X70661905Y-81322914D02*
X70709524Y-81227676D01*
X70709524Y-81227676D02*
X70804762Y-81132438D01*
X70804762Y-81132438D02*
X70947619Y-81084819D01*
X70947619Y-81084819D02*
X71042857Y-81084819D01*
X71042857Y-81084819D02*
X71185714Y-81132438D01*
X71185714Y-81132438D02*
X71233333Y-81180057D01*
X71566667Y-81084819D02*
X72185714Y-81084819D01*
X72185714Y-81084819D02*
X71852381Y-81465771D01*
X71852381Y-81465771D02*
X71995238Y-81465771D01*
X71995238Y-81465771D02*
X72090476Y-81513390D01*
X72090476Y-81513390D02*
X72138095Y-81561009D01*
X72138095Y-81561009D02*
X72185714Y-81656247D01*
X72185714Y-81656247D02*
X72185714Y-81894342D01*
X72185714Y-81894342D02*
X72138095Y-81989580D01*
X72138095Y-81989580D02*
X72090476Y-82037200D01*
X72090476Y-82037200D02*
X71995238Y-82084819D01*
X71995238Y-82084819D02*
X71709524Y-82084819D01*
X71709524Y-82084819D02*
X71614286Y-82037200D01*
X71614286Y-82037200D02*
X71566667Y-81989580D01*
X60433333Y-92929580D02*
X60385714Y-92977200D01*
X60385714Y-92977200D02*
X60242857Y-93024819D01*
X60242857Y-93024819D02*
X60147619Y-93024819D01*
X60147619Y-93024819D02*
X60004762Y-92977200D01*
X60004762Y-92977200D02*
X59909524Y-92881961D01*
X59909524Y-92881961D02*
X59861905Y-92786723D01*
X59861905Y-92786723D02*
X59814286Y-92596247D01*
X59814286Y-92596247D02*
X59814286Y-92453390D01*
X59814286Y-92453390D02*
X59861905Y-92262914D01*
X59861905Y-92262914D02*
X59909524Y-92167676D01*
X59909524Y-92167676D02*
X60004762Y-92072438D01*
X60004762Y-92072438D02*
X60147619Y-92024819D01*
X60147619Y-92024819D02*
X60242857Y-92024819D01*
X60242857Y-92024819D02*
X60385714Y-92072438D01*
X60385714Y-92072438D02*
X60433333Y-92120057D01*
X61338095Y-92024819D02*
X60861905Y-92024819D01*
X60861905Y-92024819D02*
X60814286Y-92501009D01*
X60814286Y-92501009D02*
X60861905Y-92453390D01*
X60861905Y-92453390D02*
X60957143Y-92405771D01*
X60957143Y-92405771D02*
X61195238Y-92405771D01*
X61195238Y-92405771D02*
X61290476Y-92453390D01*
X61290476Y-92453390D02*
X61338095Y-92501009D01*
X61338095Y-92501009D02*
X61385714Y-92596247D01*
X61385714Y-92596247D02*
X61385714Y-92834342D01*
X61385714Y-92834342D02*
X61338095Y-92929580D01*
X61338095Y-92929580D02*
X61290476Y-92977200D01*
X61290476Y-92977200D02*
X61195238Y-93024819D01*
X61195238Y-93024819D02*
X60957143Y-93024819D01*
X60957143Y-93024819D02*
X60861905Y-92977200D01*
X60861905Y-92977200D02*
X60814286Y-92929580D01*
X92638095Y-69204819D02*
X92638095Y-68204819D01*
X92638095Y-68681009D02*
X93209523Y-68681009D01*
X93209523Y-69204819D02*
X93209523Y-68204819D01*
X93638095Y-68300057D02*
X93685714Y-68252438D01*
X93685714Y-68252438D02*
X93780952Y-68204819D01*
X93780952Y-68204819D02*
X94019047Y-68204819D01*
X94019047Y-68204819D02*
X94114285Y-68252438D01*
X94114285Y-68252438D02*
X94161904Y-68300057D01*
X94161904Y-68300057D02*
X94209523Y-68395295D01*
X94209523Y-68395295D02*
X94209523Y-68490533D01*
X94209523Y-68490533D02*
X94161904Y-68633390D01*
X94161904Y-68633390D02*
X93590476Y-69204819D01*
X93590476Y-69204819D02*
X94209523Y-69204819D01*
X48044819Y-99353333D02*
X48759104Y-99353333D01*
X48759104Y-99353333D02*
X48901961Y-99400952D01*
X48901961Y-99400952D02*
X48997200Y-99496190D01*
X48997200Y-99496190D02*
X49044819Y-99639047D01*
X49044819Y-99639047D02*
X49044819Y-99734285D01*
X48044819Y-98972380D02*
X48044819Y-98353333D01*
X48044819Y-98353333D02*
X48425771Y-98686666D01*
X48425771Y-98686666D02*
X48425771Y-98543809D01*
X48425771Y-98543809D02*
X48473390Y-98448571D01*
X48473390Y-98448571D02*
X48521009Y-98400952D01*
X48521009Y-98400952D02*
X48616247Y-98353333D01*
X48616247Y-98353333D02*
X48854342Y-98353333D01*
X48854342Y-98353333D02*
X48949580Y-98400952D01*
X48949580Y-98400952D02*
X48997200Y-98448571D01*
X48997200Y-98448571D02*
X49044819Y-98543809D01*
X49044819Y-98543809D02*
X49044819Y-98829523D01*
X49044819Y-98829523D02*
X48997200Y-98924761D01*
X48997200Y-98924761D02*
X48949580Y-98972380D01*
X64233333Y-92809580D02*
X64185714Y-92857200D01*
X64185714Y-92857200D02*
X64042857Y-92904819D01*
X64042857Y-92904819D02*
X63947619Y-92904819D01*
X63947619Y-92904819D02*
X63804762Y-92857200D01*
X63804762Y-92857200D02*
X63709524Y-92761961D01*
X63709524Y-92761961D02*
X63661905Y-92666723D01*
X63661905Y-92666723D02*
X63614286Y-92476247D01*
X63614286Y-92476247D02*
X63614286Y-92333390D01*
X63614286Y-92333390D02*
X63661905Y-92142914D01*
X63661905Y-92142914D02*
X63709524Y-92047676D01*
X63709524Y-92047676D02*
X63804762Y-91952438D01*
X63804762Y-91952438D02*
X63947619Y-91904819D01*
X63947619Y-91904819D02*
X64042857Y-91904819D01*
X64042857Y-91904819D02*
X64185714Y-91952438D01*
X64185714Y-91952438D02*
X64233333Y-92000057D01*
X65090476Y-91904819D02*
X64900000Y-91904819D01*
X64900000Y-91904819D02*
X64804762Y-91952438D01*
X64804762Y-91952438D02*
X64757143Y-92000057D01*
X64757143Y-92000057D02*
X64661905Y-92142914D01*
X64661905Y-92142914D02*
X64614286Y-92333390D01*
X64614286Y-92333390D02*
X64614286Y-92714342D01*
X64614286Y-92714342D02*
X64661905Y-92809580D01*
X64661905Y-92809580D02*
X64709524Y-92857200D01*
X64709524Y-92857200D02*
X64804762Y-92904819D01*
X64804762Y-92904819D02*
X64995238Y-92904819D01*
X64995238Y-92904819D02*
X65090476Y-92857200D01*
X65090476Y-92857200D02*
X65138095Y-92809580D01*
X65138095Y-92809580D02*
X65185714Y-92714342D01*
X65185714Y-92714342D02*
X65185714Y-92476247D01*
X65185714Y-92476247D02*
X65138095Y-92381009D01*
X65138095Y-92381009D02*
X65090476Y-92333390D01*
X65090476Y-92333390D02*
X64995238Y-92285771D01*
X64995238Y-92285771D02*
X64804762Y-92285771D01*
X64804762Y-92285771D02*
X64709524Y-92333390D01*
X64709524Y-92333390D02*
X64661905Y-92381009D01*
X64661905Y-92381009D02*
X64614286Y-92476247D01*
X43238095Y-96254819D02*
X43238095Y-95254819D01*
X43238095Y-95731009D02*
X43809523Y-95731009D01*
X43809523Y-96254819D02*
X43809523Y-95254819D01*
X44809523Y-96254819D02*
X44238095Y-96254819D01*
X44523809Y-96254819D02*
X44523809Y-95254819D01*
X44523809Y-95254819D02*
X44428571Y-95397676D01*
X44428571Y-95397676D02*
X44333333Y-95492914D01*
X44333333Y-95492914D02*
X44238095Y-95540533D01*
X57204819Y-75833333D02*
X57919104Y-75833333D01*
X57919104Y-75833333D02*
X58061961Y-75880952D01*
X58061961Y-75880952D02*
X58157200Y-75976190D01*
X58157200Y-75976190D02*
X58204819Y-76119047D01*
X58204819Y-76119047D02*
X58204819Y-76214285D01*
X57300057Y-75404761D02*
X57252438Y-75357142D01*
X57252438Y-75357142D02*
X57204819Y-75261904D01*
X57204819Y-75261904D02*
X57204819Y-75023809D01*
X57204819Y-75023809D02*
X57252438Y-74928571D01*
X57252438Y-74928571D02*
X57300057Y-74880952D01*
X57300057Y-74880952D02*
X57395295Y-74833333D01*
X57395295Y-74833333D02*
X57490533Y-74833333D01*
X57490533Y-74833333D02*
X57633390Y-74880952D01*
X57633390Y-74880952D02*
X58204819Y-75452380D01*
X58204819Y-75452380D02*
X58204819Y-74833333D01*
D12*
%TO.C,U4*%
X72960000Y-76800000D02*
X72960000Y-75000000D01*
X72960000Y-76800000D02*
X72960000Y-77600000D01*
X69840000Y-76800000D02*
X69840000Y-76000000D01*
X69840000Y-76800000D02*
X69840000Y-77600000D01*
%TO.C,F1*%
X60396267Y-70010000D02*
X60103733Y-70010000D01*
X60396267Y-68990000D02*
X60103733Y-68990000D01*
D11*
%TO.C,D15*%
X87800000Y-78100000D02*
X90000000Y-78100000D01*
X87800000Y-80100000D02*
X90000000Y-80100000D01*
X88900000Y-78100000D02*
X89300000Y-78100000D01*
X89300000Y-78100000D02*
X89300000Y-80100000D01*
X89300000Y-80100000D02*
X88900000Y-80100000D01*
X88900000Y-80100000D02*
X88900000Y-78100000D01*
G36*
X88900000Y-78100000D02*
G01*
X89300000Y-78100000D01*
X89300000Y-80100000D01*
X88900000Y-80100000D01*
X88900000Y-78100000D01*
G37*
D12*
%TO.C,R1*%
X52490000Y-81146267D02*
X52490000Y-80853733D01*
X53510000Y-81146267D02*
X53510000Y-80853733D01*
%TO.C,J4*%
X67340000Y-101620000D02*
X67340000Y-100290000D01*
X68670000Y-101620000D02*
X67340000Y-101620000D01*
X69940000Y-101620000D02*
X92860000Y-101620000D01*
X69940000Y-101620000D02*
X69940000Y-99020000D01*
X92860000Y-101620000D02*
X92860000Y-96420000D01*
X67340000Y-99020000D02*
X67340000Y-96420000D01*
X69940000Y-99020000D02*
X67340000Y-99020000D01*
X67340000Y-96420000D02*
X92860000Y-96420000D01*
%TO.C,C2*%
X50690000Y-81146267D02*
X50690000Y-80853733D01*
X51710000Y-81146267D02*
X51710000Y-80853733D01*
D11*
%TO.C,D2*%
X77210000Y-71900000D02*
X79410000Y-71900000D01*
X77210000Y-73900000D02*
X79410000Y-73900000D01*
X78310000Y-71900000D02*
X78710000Y-71900000D01*
X78710000Y-71900000D02*
X78710000Y-73900000D01*
X78710000Y-73900000D02*
X78310000Y-73900000D01*
X78310000Y-73900000D02*
X78310000Y-71900000D01*
G36*
X78310000Y-71900000D02*
G01*
X78710000Y-71900000D01*
X78710000Y-73900000D01*
X78310000Y-73900000D01*
X78310000Y-71900000D01*
G37*
D12*
%TO.C,R2*%
X51810000Y-89453733D02*
X51810000Y-89746267D01*
X50790000Y-89453733D02*
X50790000Y-89746267D01*
%TO.C,C1*%
X60396267Y-73010000D02*
X60103733Y-73010000D01*
X60396267Y-71990000D02*
X60103733Y-71990000D01*
%TO.C,C4*%
X76510000Y-84853733D02*
X76510000Y-85146267D01*
X75490000Y-84853733D02*
X75490000Y-85146267D01*
D11*
%TO.C,D13*%
X87800000Y-71900000D02*
X90000000Y-71900000D01*
X87800000Y-73900000D02*
X90000000Y-73900000D01*
X88900000Y-71900000D02*
X89300000Y-71900000D01*
X89300000Y-71900000D02*
X89300000Y-73900000D01*
X89300000Y-73900000D02*
X88900000Y-73900000D01*
X88900000Y-73900000D02*
X88900000Y-71900000D01*
G36*
X88900000Y-71900000D02*
G01*
X89300000Y-71900000D01*
X89300000Y-73900000D01*
X88900000Y-73900000D01*
X88900000Y-71900000D01*
G37*
%TO.C,D6*%
X80710000Y-75000000D02*
X82910000Y-75000000D01*
X80710000Y-77000000D02*
X82910000Y-77000000D01*
X81810000Y-75000000D02*
X82210000Y-75000000D01*
X82210000Y-75000000D02*
X82210000Y-77000000D01*
X82210000Y-77000000D02*
X81810000Y-77000000D01*
X81810000Y-77000000D02*
X81810000Y-75000000D01*
G36*
X81810000Y-75000000D02*
G01*
X82210000Y-75000000D01*
X82210000Y-77000000D01*
X81810000Y-77000000D01*
X81810000Y-75000000D01*
G37*
%TO.C,D8*%
X84310000Y-68800000D02*
X86510000Y-68800000D01*
X84310000Y-70800000D02*
X86510000Y-70800000D01*
X85410000Y-68800000D02*
X85810000Y-68800000D01*
X85810000Y-68800000D02*
X85810000Y-70800000D01*
X85810000Y-70800000D02*
X85410000Y-70800000D01*
X85410000Y-70800000D02*
X85410000Y-68800000D01*
G36*
X85410000Y-68800000D02*
G01*
X85810000Y-68800000D01*
X85810000Y-70800000D01*
X85410000Y-70800000D01*
X85410000Y-68800000D01*
G37*
D12*
%TO.C,SW1*%
X63640000Y-68040000D02*
X63640000Y-71860000D01*
X63640000Y-71860000D02*
X64990000Y-71860000D01*
X64990000Y-68040000D02*
X63640000Y-68040000D01*
X67490000Y-68040000D02*
X66510000Y-68040000D01*
X67490000Y-71860000D02*
X66510000Y-71860000D01*
X69990000Y-68040000D02*
X69010000Y-68040000D01*
X69990000Y-71860000D02*
X69010000Y-71860000D01*
X72860000Y-68040000D02*
X71510000Y-68040000D01*
X72860000Y-68040000D02*
X72860000Y-71860000D01*
X72860000Y-71860000D02*
X71510000Y-71860000D01*
D11*
%TO.C,D11*%
X84270000Y-78100000D02*
X86470000Y-78100000D01*
X84270000Y-80100000D02*
X86470000Y-80100000D01*
X85370000Y-78100000D02*
X85770000Y-78100000D01*
X85770000Y-78100000D02*
X85770000Y-80100000D01*
X85770000Y-80100000D02*
X85370000Y-80100000D01*
X85370000Y-80100000D02*
X85370000Y-78100000D01*
G36*
X85370000Y-78100000D02*
G01*
X85770000Y-78100000D01*
X85770000Y-80100000D01*
X85370000Y-80100000D01*
X85370000Y-78100000D01*
G37*
D10*
%TO.C,U1*%
X65525000Y-89825000D02*
X65525000Y-89600000D01*
X65525000Y-89825000D02*
X65200000Y-89825000D01*
X65525000Y-89600000D02*
X66950000Y-89600000D01*
X65525000Y-82575000D02*
X65525000Y-82900000D01*
X65525000Y-82575000D02*
X65200000Y-82575000D01*
X58275000Y-89825000D02*
X58600000Y-89825000D01*
X58275000Y-89825000D02*
X58275000Y-89500000D01*
X58275000Y-82575000D02*
X58600000Y-82575000D01*
X58275000Y-82575000D02*
X58275000Y-82900000D01*
D11*
%TO.C,D16*%
X77210000Y-78100000D02*
X79410000Y-78100000D01*
X77210000Y-80100000D02*
X79410000Y-80100000D01*
X78310000Y-78100000D02*
X78710000Y-78100000D01*
X78710000Y-78100000D02*
X78710000Y-80100000D01*
X78710000Y-80100000D02*
X78310000Y-80100000D01*
X78310000Y-80100000D02*
X78310000Y-78100000D01*
G36*
X78310000Y-78100000D02*
G01*
X78710000Y-78100000D01*
X78710000Y-80100000D01*
X78310000Y-80100000D01*
X78310000Y-78100000D01*
G37*
D12*
%TO.C,U3*%
X63810000Y-75750000D02*
X63810000Y-73950000D01*
X63810000Y-75750000D02*
X63810000Y-76550000D01*
X60690000Y-75750000D02*
X60690000Y-74950000D01*
X60690000Y-75750000D02*
X60690000Y-76550000D01*
D11*
%TO.C,U2*%
X89100000Y-83000000D02*
X89100000Y-95000000D01*
X78100000Y-83000000D02*
X96100000Y-83000000D01*
X96100000Y-83000000D02*
X96100000Y-95000000D01*
X96100000Y-95000000D02*
X78100000Y-95000000D01*
X78100000Y-95000000D02*
X78100000Y-83000000D01*
D12*
%TO.C,R3*%
X65740000Y-75646267D02*
X65740000Y-75353733D01*
X66760000Y-75646267D02*
X66760000Y-75353733D01*
D11*
%TO.C,D4*%
X80710000Y-68800000D02*
X82910000Y-68800000D01*
X80710000Y-70800000D02*
X82910000Y-70800000D01*
X81810000Y-68800000D02*
X82210000Y-68800000D01*
X82210000Y-68800000D02*
X82210000Y-70800000D01*
X82210000Y-70800000D02*
X81810000Y-70800000D01*
X81810000Y-70800000D02*
X81810000Y-68800000D01*
G36*
X81810000Y-68800000D02*
G01*
X82210000Y-68800000D01*
X82210000Y-70800000D01*
X81810000Y-70800000D01*
X81810000Y-68800000D01*
G37*
D12*
%TO.C,J1*%
X44435000Y-81420000D02*
X45845000Y-81420000D01*
X48515000Y-82240000D02*
X48365000Y-82240000D01*
X48515000Y-83040000D02*
X48515000Y-82240000D01*
X44435000Y-90580000D02*
X45845000Y-90580000D01*
D11*
%TO.C,D3*%
X77210000Y-75000000D02*
X79410000Y-75000000D01*
X77210000Y-77000000D02*
X79410000Y-77000000D01*
X78310000Y-75000000D02*
X78710000Y-75000000D01*
X78710000Y-75000000D02*
X78710000Y-77000000D01*
X78710000Y-77000000D02*
X78310000Y-77000000D01*
X78310000Y-77000000D02*
X78310000Y-75000000D01*
G36*
X78310000Y-75000000D02*
G01*
X78710000Y-75000000D01*
X78710000Y-77000000D01*
X78310000Y-77000000D01*
X78310000Y-75000000D01*
G37*
D12*
%TO.C,C8*%
X71253733Y-73090000D02*
X71546267Y-73090000D01*
X71253733Y-74110000D02*
X71546267Y-74110000D01*
%TO.C,C3*%
X71546267Y-80710000D02*
X71253733Y-80710000D01*
X71546267Y-79690000D02*
X71253733Y-79690000D01*
D11*
%TO.C,D1*%
X77210000Y-68800000D02*
X79410000Y-68800000D01*
X77210000Y-70800000D02*
X79410000Y-70800000D01*
X78310000Y-68800000D02*
X78710000Y-68800000D01*
X78710000Y-68800000D02*
X78710000Y-70800000D01*
X78710000Y-70800000D02*
X78310000Y-70800000D01*
X78310000Y-70800000D02*
X78310000Y-68800000D01*
G36*
X78310000Y-68800000D02*
G01*
X78710000Y-68800000D01*
X78710000Y-70800000D01*
X78310000Y-70800000D01*
X78310000Y-68800000D01*
G37*
D12*
%TO.C,C5*%
X60453733Y-93490000D02*
X60746267Y-93490000D01*
X60453733Y-94510000D02*
X60746267Y-94510000D01*
D11*
%TO.C,D10*%
X84270000Y-75000000D02*
X86470000Y-75000000D01*
X84270000Y-77000000D02*
X86470000Y-77000000D01*
X85370000Y-75000000D02*
X85770000Y-75000000D01*
X85770000Y-75000000D02*
X85770000Y-77000000D01*
X85770000Y-77000000D02*
X85370000Y-77000000D01*
X85370000Y-77000000D02*
X85370000Y-75000000D01*
G36*
X85370000Y-75000000D02*
G01*
X85770000Y-75000000D01*
X85770000Y-77000000D01*
X85370000Y-77000000D01*
X85370000Y-75000000D01*
G37*
D12*
%TO.C,J3*%
X49590000Y-101620000D02*
X49590000Y-100290000D01*
X50920000Y-101620000D02*
X49590000Y-101620000D01*
X52190000Y-101620000D02*
X62410000Y-101620000D01*
X52190000Y-101620000D02*
X52190000Y-99020000D01*
X62410000Y-101620000D02*
X62410000Y-96420000D01*
X49590000Y-99020000D02*
X49590000Y-96420000D01*
X52190000Y-99020000D02*
X49590000Y-99020000D01*
X49590000Y-96420000D02*
X62410000Y-96420000D01*
D11*
%TO.C,D12*%
X87810000Y-68800000D02*
X90010000Y-68800000D01*
X87810000Y-70800000D02*
X90010000Y-70800000D01*
X88910000Y-68800000D02*
X89310000Y-68800000D01*
X89310000Y-68800000D02*
X89310000Y-70800000D01*
X89310000Y-70800000D02*
X88910000Y-70800000D01*
X88910000Y-70800000D02*
X88910000Y-68800000D01*
G36*
X88910000Y-68800000D02*
G01*
X89310000Y-68800000D01*
X89310000Y-70800000D01*
X88910000Y-70800000D01*
X88910000Y-68800000D01*
G37*
D12*
%TO.C,C6*%
X64153733Y-93440000D02*
X64446267Y-93440000D01*
X64153733Y-94460000D02*
X64446267Y-94460000D01*
%TO.C,G\u002A\u002A\u002A*%
G36*
X69764730Y-86578420D02*
G01*
X69786728Y-86583193D01*
X69804367Y-86593756D01*
X69814821Y-86602908D01*
X69838517Y-86634495D01*
X69853906Y-86673737D01*
X69858500Y-86713043D01*
X69856264Y-86729205D01*
X69840476Y-86770808D01*
X69816112Y-86810722D01*
X69787809Y-86841740D01*
X69779989Y-86847728D01*
X69745870Y-86862441D01*
X69704862Y-86867989D01*
X69666388Y-86863248D01*
X69661974Y-86861785D01*
X69630570Y-86841910D01*
X69602056Y-86808753D01*
X69579298Y-86767214D01*
X69565165Y-86722193D01*
X69561938Y-86690853D01*
X69569321Y-86648086D01*
X69591551Y-86615454D01*
X69628748Y-86592879D01*
X69681031Y-86580278D01*
X69731492Y-86577324D01*
X69764730Y-86578420D01*
G37*
G36*
X72281323Y-86289701D02*
G01*
X72322014Y-86314920D01*
X72346137Y-86340909D01*
X72364652Y-86380451D01*
X72370284Y-86427427D01*
X72363595Y-86477026D01*
X72345146Y-86524436D01*
X72320632Y-86559426D01*
X72291779Y-86584330D01*
X72258279Y-86602955D01*
X72226517Y-86612174D01*
X72212887Y-86612224D01*
X72197716Y-86609981D01*
X72178451Y-86607093D01*
X72148716Y-86594589D01*
X72119261Y-86568562D01*
X72093947Y-86533314D01*
X72076847Y-86493875D01*
X72065681Y-86446529D01*
X72064382Y-86408231D01*
X72073142Y-86372632D01*
X72081022Y-86354544D01*
X72108462Y-86316745D01*
X72145872Y-86291172D01*
X72189593Y-86278016D01*
X72235963Y-86277462D01*
X72281323Y-86289701D01*
G37*
G36*
X71761094Y-87260390D02*
G01*
X71781999Y-87266290D01*
X71800633Y-87279800D01*
X71811095Y-87289868D01*
X71839534Y-87328099D01*
X71850994Y-87369304D01*
X71845365Y-87413881D01*
X71822536Y-87462231D01*
X71782395Y-87514752D01*
X71735525Y-87562102D01*
X71641003Y-87638698D01*
X71529594Y-87709235D01*
X71401623Y-87773534D01*
X71257414Y-87831413D01*
X71239811Y-87837647D01*
X71162439Y-87859045D01*
X71072960Y-87874347D01*
X70976521Y-87883213D01*
X70878269Y-87885300D01*
X70783351Y-87880269D01*
X70720325Y-87872107D01*
X70635002Y-87853011D01*
X70559316Y-87825043D01*
X70493542Y-87790223D01*
X70418965Y-87740798D01*
X70355939Y-87689608D01*
X70306534Y-87638535D01*
X70272817Y-87589461D01*
X70272697Y-87589234D01*
X70262391Y-87552791D01*
X70266477Y-87515219D01*
X70284181Y-87483482D01*
X70284490Y-87483146D01*
X70299466Y-87469533D01*
X70316248Y-87462261D01*
X70341053Y-87459438D01*
X70363475Y-87459091D01*
X70390098Y-87459836D01*
X70412389Y-87463180D01*
X70435151Y-87470784D01*
X70463189Y-87484313D01*
X70501304Y-87505427D01*
X70507443Y-87508927D01*
X70569698Y-87543423D01*
X70621195Y-87569017D01*
X70666155Y-87587125D01*
X70708796Y-87599162D01*
X70753338Y-87606543D01*
X70804000Y-87610684D01*
X70812001Y-87611094D01*
X70912038Y-87612746D01*
X71000785Y-87606718D01*
X71083802Y-87592167D01*
X71166653Y-87568251D01*
X71216528Y-87549874D01*
X71312691Y-87508054D01*
X71403405Y-87460929D01*
X71484999Y-87410654D01*
X71553799Y-87359385D01*
X71578848Y-87337276D01*
X71614959Y-87304216D01*
X71642471Y-87282019D01*
X71665506Y-87268553D01*
X71688187Y-87261685D01*
X71714635Y-87259284D01*
X71729995Y-87259091D01*
X71761094Y-87260390D01*
G37*
G36*
X68516725Y-83688416D02*
G01*
X68530081Y-83695828D01*
X68543302Y-83710484D01*
X68557452Y-83734269D01*
X68573594Y-83769066D01*
X68592791Y-83816761D01*
X68616107Y-83879237D01*
X68625294Y-83904546D01*
X68658414Y-83991960D01*
X68689058Y-84063496D01*
X68718191Y-84121126D01*
X68746777Y-84166823D01*
X68765375Y-84190889D01*
X68796146Y-84227232D01*
X68867567Y-84189456D01*
X68931100Y-84159018D01*
X68995617Y-84135205D01*
X69066893Y-84116186D01*
X69148154Y-84100556D01*
X69194756Y-84092547D01*
X69251511Y-84082401D01*
X69310730Y-84071512D01*
X69357319Y-84062699D01*
X69415193Y-84052500D01*
X69482363Y-84042108D01*
X69549997Y-84032822D01*
X69602862Y-84026600D01*
X69658572Y-84020392D01*
X69716772Y-84013302D01*
X69770654Y-84006193D01*
X69813409Y-83999927D01*
X69814271Y-83999790D01*
X69853501Y-83994191D01*
X69905270Y-83987769D01*
X69963988Y-83981169D01*
X70024065Y-83975035D01*
X70050720Y-83972538D01*
X70108249Y-83967197D01*
X70165783Y-83961629D01*
X70218150Y-83956349D01*
X70260178Y-83951874D01*
X70275830Y-83950084D01*
X70308993Y-83946499D01*
X70355711Y-83941938D01*
X70411405Y-83936822D01*
X70471497Y-83931575D01*
X70521372Y-83927428D01*
X70589463Y-83921809D01*
X70664393Y-83915463D01*
X70739174Y-83908990D01*
X70806816Y-83902992D01*
X70839668Y-83900002D01*
X71048740Y-83881141D01*
X71240606Y-83864733D01*
X71416079Y-83850737D01*
X71575970Y-83839116D01*
X71721091Y-83829831D01*
X71852253Y-83822843D01*
X71970268Y-83818114D01*
X72075948Y-83815604D01*
X72170104Y-83815276D01*
X72253548Y-83817090D01*
X72327092Y-83821008D01*
X72385676Y-83826322D01*
X72478896Y-83836912D01*
X72556540Y-83846221D01*
X72621142Y-83854652D01*
X72675236Y-83862613D01*
X72721357Y-83870508D01*
X72762036Y-83878743D01*
X72799810Y-83887723D01*
X72837212Y-83897854D01*
X72842859Y-83899472D01*
X72910010Y-83920107D01*
X72980270Y-83943924D01*
X73049608Y-83969378D01*
X73113992Y-83994924D01*
X73169393Y-84019018D01*
X73211779Y-84040114D01*
X73216042Y-84042509D01*
X73281066Y-84083606D01*
X73352064Y-84135185D01*
X73425267Y-84193970D01*
X73496904Y-84256685D01*
X73563206Y-84320053D01*
X73620404Y-84380796D01*
X73658341Y-84426976D01*
X73728673Y-84525744D01*
X73784790Y-84616854D01*
X73827761Y-84702504D01*
X73858655Y-84784892D01*
X73878540Y-84866216D01*
X73881943Y-84886813D01*
X73887457Y-84922779D01*
X73892454Y-84953907D01*
X73895915Y-84973873D01*
X73896096Y-84974805D01*
X73905518Y-84990738D01*
X73926432Y-85012077D01*
X73952270Y-85032850D01*
X74033403Y-85099286D01*
X74104106Y-85172712D01*
X74163198Y-85251077D01*
X74209502Y-85332331D01*
X74241835Y-85414424D01*
X74259020Y-85495307D01*
X74260326Y-85568182D01*
X74253646Y-85622542D01*
X74242889Y-85666353D01*
X74225708Y-85707168D01*
X74206381Y-85741710D01*
X74190170Y-85769953D01*
X74182647Y-85788662D01*
X74182441Y-85803453D01*
X74187615Y-85818609D01*
X74195293Y-85840845D01*
X74204720Y-85873935D01*
X74213926Y-85910935D01*
X74214395Y-85912984D01*
X74222396Y-85952819D01*
X74225140Y-85983963D01*
X74222926Y-86015038D01*
X74218790Y-86040256D01*
X74194453Y-86124069D01*
X74153112Y-86202568D01*
X74099466Y-86271035D01*
X74043760Y-86331807D01*
X74085610Y-86435176D01*
X74127211Y-86545247D01*
X74158984Y-86646577D01*
X74182564Y-86744542D01*
X74187910Y-86772043D01*
X74193374Y-86809186D01*
X74197699Y-86855991D01*
X74200908Y-86913665D01*
X74203026Y-86983411D01*
X74204079Y-87066437D01*
X74204089Y-87163947D01*
X74203083Y-87277147D01*
X74201084Y-87407242D01*
X74200969Y-87413637D01*
X74199880Y-87478584D01*
X74199429Y-87528479D01*
X74199841Y-87566443D01*
X74201345Y-87595602D01*
X74204166Y-87619078D01*
X74208531Y-87639995D01*
X74214667Y-87661477D01*
X74220220Y-87678776D01*
X74240324Y-87731233D01*
X74266129Y-87780859D01*
X74299605Y-87830307D01*
X74342722Y-87882232D01*
X74397450Y-87939290D01*
X74452719Y-87992090D01*
X74537079Y-88071147D01*
X74608886Y-88140226D01*
X74669576Y-88200970D01*
X74720584Y-88255024D01*
X74763346Y-88304031D01*
X74799296Y-88349635D01*
X74829871Y-88393480D01*
X74856504Y-88437210D01*
X74880306Y-88481818D01*
X74906794Y-88539673D01*
X74926369Y-88595638D01*
X74939083Y-88652274D01*
X74944990Y-88712146D01*
X74944142Y-88777816D01*
X74936592Y-88851847D01*
X74922393Y-88936802D01*
X74901597Y-89035245D01*
X74892520Y-89074423D01*
X74872704Y-89159585D01*
X74857044Y-89230250D01*
X74845067Y-89289507D01*
X74836300Y-89340441D01*
X74830271Y-89386141D01*
X74826506Y-89429692D01*
X74824533Y-89474183D01*
X74823880Y-89522700D01*
X74823880Y-89522727D01*
X74825797Y-89598500D01*
X74832852Y-89662311D01*
X74846265Y-89719953D01*
X74867256Y-89777222D01*
X74886127Y-89818182D01*
X74914442Y-89869773D01*
X74947752Y-89917698D01*
X74988415Y-89964475D01*
X75038789Y-90012622D01*
X75101231Y-90064655D01*
X75157207Y-90107600D01*
X75234126Y-90166911D01*
X75296831Y-90219612D01*
X75347178Y-90267606D01*
X75387027Y-90312795D01*
X75418234Y-90357081D01*
X75440429Y-90397660D01*
X75459884Y-90441506D01*
X75474594Y-90483727D01*
X75484630Y-90526813D01*
X75490061Y-90573253D01*
X75490956Y-90625538D01*
X75487386Y-90686155D01*
X75479420Y-90757594D01*
X75467127Y-90842345D01*
X75454956Y-90917054D01*
X75439850Y-91008887D01*
X75428666Y-91085610D01*
X75422012Y-91149992D01*
X75420497Y-91204802D01*
X75424729Y-91252807D01*
X75435317Y-91296775D01*
X75452870Y-91339475D01*
X75477995Y-91383676D01*
X75511302Y-91432144D01*
X75553398Y-91487649D01*
X75590841Y-91535228D01*
X75650416Y-91611601D01*
X75698587Y-91676088D01*
X75736262Y-91730185D01*
X75764352Y-91775385D01*
X75783767Y-91813183D01*
X75795415Y-91845074D01*
X75800209Y-91872553D01*
X75800446Y-91879546D01*
X75799409Y-91898883D01*
X75794225Y-91909606D01*
X75781964Y-91912007D01*
X75759697Y-91906377D01*
X75724497Y-91893009D01*
X75712809Y-91888278D01*
X75658345Y-91863149D01*
X75603856Y-91831529D01*
X75546647Y-91791513D01*
X75484025Y-91741199D01*
X75413294Y-91678679D01*
X75403242Y-91669444D01*
X75333149Y-91601815D01*
X75277178Y-91540739D01*
X75233590Y-91483875D01*
X75200647Y-91428877D01*
X75176609Y-91373401D01*
X75170819Y-91356140D01*
X75157451Y-91298312D01*
X75150670Y-91229828D01*
X75150514Y-91149388D01*
X75157020Y-91055695D01*
X75170225Y-90947450D01*
X75185423Y-90850772D01*
X75197903Y-90775987D01*
X75207139Y-90716483D01*
X75213289Y-90669676D01*
X75216510Y-90632985D01*
X75216958Y-90603829D01*
X75214790Y-90579625D01*
X75210164Y-90557792D01*
X75204373Y-90539043D01*
X75192132Y-90510190D01*
X75174490Y-90482103D01*
X75149483Y-90452754D01*
X75115147Y-90420114D01*
X75069517Y-90382156D01*
X75010629Y-90336851D01*
X75003064Y-90331187D01*
X74904418Y-90253676D01*
X74821309Y-90179441D01*
X74751979Y-90106125D01*
X74694671Y-90031373D01*
X74647627Y-89952830D01*
X74609089Y-89868140D01*
X74577301Y-89774947D01*
X74570631Y-89751595D01*
X74563435Y-89722944D01*
X74558213Y-89694446D01*
X74554654Y-89662371D01*
X74552448Y-89622991D01*
X74551287Y-89572575D01*
X74550876Y-89513637D01*
X74550979Y-89454208D01*
X74551964Y-89403663D01*
X74554301Y-89358523D01*
X74558461Y-89315311D01*
X74564915Y-89270548D01*
X74574133Y-89220757D01*
X74586587Y-89162460D01*
X74602747Y-89092179D01*
X74614870Y-89040909D01*
X74628577Y-88981183D01*
X74641515Y-88921001D01*
X74652721Y-88865132D01*
X74661228Y-88818349D01*
X74665415Y-88790890D01*
X74670205Y-88749198D01*
X74671592Y-88719079D01*
X74669285Y-88694195D01*
X74662997Y-88668206D01*
X74659258Y-88655944D01*
X74643126Y-88612263D01*
X74621704Y-88568595D01*
X74593700Y-88523302D01*
X74557822Y-88474750D01*
X74512780Y-88421301D01*
X74457281Y-88361320D01*
X74390035Y-88293171D01*
X74316211Y-88221402D01*
X74268158Y-88174670D01*
X74221761Y-88128268D01*
X74179584Y-88084858D01*
X74144194Y-88047104D01*
X74118157Y-88017670D01*
X74108948Y-88006250D01*
X74051985Y-87918817D01*
X74005521Y-87822209D01*
X73972915Y-87723471D01*
X73971606Y-87718182D01*
X73960052Y-87653776D01*
X73953454Y-87575501D01*
X73951807Y-87482530D01*
X73955105Y-87374036D01*
X73963341Y-87249193D01*
X73967930Y-87195455D01*
X73978268Y-87021620D01*
X73976674Y-86861500D01*
X73963147Y-86715087D01*
X73937686Y-86582374D01*
X73924205Y-86533272D01*
X73912346Y-86493816D01*
X73901100Y-86567257D01*
X73893363Y-86609888D01*
X73883619Y-86652772D01*
X73873895Y-86687042D01*
X73873320Y-86688735D01*
X73844085Y-86760288D01*
X73806916Y-86830645D01*
X73764651Y-86895357D01*
X73720126Y-86949973D01*
X73686093Y-86982345D01*
X73645241Y-87015808D01*
X73672529Y-87046876D01*
X73708898Y-87099422D01*
X73739793Y-87166968D01*
X73764308Y-87246912D01*
X73781539Y-87336657D01*
X73785983Y-87372728D01*
X73785415Y-87452432D01*
X73767797Y-87533145D01*
X73733977Y-87612624D01*
X73684798Y-87688627D01*
X73652248Y-87727331D01*
X73598326Y-87786157D01*
X73639485Y-87852171D01*
X73700633Y-87961275D01*
X73749646Y-88072098D01*
X73785032Y-88180923D01*
X73800932Y-88254150D01*
X73806293Y-88340145D01*
X73794121Y-88427042D01*
X73768415Y-88504007D01*
X73755388Y-88542868D01*
X73743931Y-88593252D01*
X73735926Y-88645455D01*
X73729733Y-88693959D01*
X73721632Y-88751811D01*
X73712851Y-88810449D01*
X73707273Y-88845455D01*
X73700377Y-88895449D01*
X73693929Y-88956751D01*
X73688546Y-89022489D01*
X73684846Y-89085788D01*
X73684194Y-89102180D01*
X73682458Y-89159675D01*
X73681981Y-89202504D01*
X73682964Y-89234151D01*
X73685611Y-89258101D01*
X73690123Y-89277839D01*
X73695268Y-89293089D01*
X73708136Y-89322132D01*
X73727972Y-89358553D01*
X73755609Y-89403647D01*
X73791881Y-89458706D01*
X73837620Y-89525024D01*
X73893660Y-89603894D01*
X73910829Y-89627737D01*
X73974957Y-89717360D01*
X74028781Y-89794535D01*
X74073317Y-89861045D01*
X74109578Y-89918675D01*
X74138577Y-89969210D01*
X74161329Y-90014433D01*
X74178849Y-90056130D01*
X74192149Y-90096084D01*
X74202245Y-90136081D01*
X74203757Y-90143215D01*
X74214502Y-90213862D01*
X74216515Y-90283495D01*
X74209414Y-90356190D01*
X74192817Y-90436028D01*
X74168410Y-90520621D01*
X74156406Y-90561749D01*
X74146274Y-90602582D01*
X74139880Y-90635460D01*
X74139206Y-90640473D01*
X74137013Y-90663628D01*
X74138729Y-90680196D01*
X74146787Y-90695357D01*
X74163616Y-90714292D01*
X74182851Y-90733489D01*
X74209481Y-90757403D01*
X74246578Y-90787532D01*
X74289382Y-90820147D01*
X74333133Y-90851521D01*
X74336374Y-90853758D01*
X74390610Y-90891964D01*
X74443152Y-90930628D01*
X74491297Y-90967623D01*
X74532341Y-91000823D01*
X74563582Y-91028102D01*
X74581932Y-91046859D01*
X74616438Y-91089673D01*
X74641853Y-91122451D01*
X74660906Y-91148974D01*
X74676328Y-91173022D01*
X74689238Y-91195455D01*
X74721455Y-91262745D01*
X74742399Y-91329623D01*
X74752200Y-91399010D01*
X74750986Y-91473828D01*
X74738886Y-91556996D01*
X74716029Y-91651436D01*
X74710223Y-91671781D01*
X74695642Y-91724216D01*
X74682083Y-91777350D01*
X74670935Y-91825455D01*
X74663583Y-91862805D01*
X74662877Y-91867235D01*
X74658219Y-91905571D01*
X74658450Y-91936604D01*
X74665038Y-91964774D01*
X74679453Y-91994524D01*
X74703163Y-92030294D01*
X74727849Y-92063637D01*
X74786579Y-92145135D01*
X74839865Y-92226672D01*
X74886228Y-92305586D01*
X74924189Y-92379220D01*
X74952270Y-92444915D01*
X74967968Y-92495455D01*
X74977243Y-92546688D01*
X74981329Y-92596061D01*
X74980499Y-92640496D01*
X74975028Y-92676912D01*
X74965194Y-92702231D01*
X74951269Y-92713374D01*
X74948468Y-92713637D01*
X74925486Y-92707745D01*
X74894362Y-92692073D01*
X74859887Y-92669627D01*
X74826851Y-92643412D01*
X74808394Y-92625750D01*
X74787180Y-92601179D01*
X74759514Y-92565889D01*
X74728837Y-92524421D01*
X74698587Y-92481312D01*
X74695846Y-92477273D01*
X74660960Y-92426995D01*
X74620673Y-92370912D01*
X74580371Y-92316433D01*
X74550403Y-92277273D01*
X74509169Y-92224031D01*
X74477634Y-92181679D01*
X74453864Y-92147133D01*
X74435923Y-92117308D01*
X74421877Y-92089118D01*
X74409792Y-92059479D01*
X74404263Y-92044238D01*
X74391176Y-91998305D01*
X74384150Y-91949811D01*
X74383386Y-91896305D01*
X74389087Y-91835338D01*
X74401453Y-91764460D01*
X74420687Y-91681220D01*
X74440175Y-91607624D01*
X74452853Y-91560374D01*
X74464145Y-91515956D01*
X74472886Y-91479114D01*
X74477910Y-91454589D01*
X74478140Y-91453149D01*
X74476899Y-91402202D01*
X74458502Y-91345940D01*
X74423075Y-91284708D01*
X74408267Y-91264259D01*
X74385798Y-91236057D01*
X74362321Y-91210268D01*
X74335237Y-91184675D01*
X74301948Y-91157058D01*
X74259856Y-91125199D01*
X74206363Y-91086879D01*
X74174068Y-91064282D01*
X74098905Y-91010336D01*
X74037890Y-90962621D01*
X73988945Y-90919154D01*
X73949990Y-90877955D01*
X73918945Y-90837043D01*
X73896676Y-90800000D01*
X73888137Y-90781891D01*
X73882522Y-90762615D01*
X73879279Y-90737938D01*
X73877856Y-90703629D01*
X73877700Y-90655452D01*
X73877705Y-90654546D01*
X73878374Y-90606023D01*
X73880502Y-90568980D01*
X73885171Y-90536952D01*
X73893468Y-90503478D01*
X73906477Y-90462093D01*
X73913570Y-90440909D01*
X73929103Y-90393367D01*
X73939327Y-90356559D01*
X73945357Y-90324209D01*
X73948312Y-90290044D01*
X73949309Y-90247787D01*
X73949361Y-90239856D01*
X73949872Y-90143347D01*
X73898324Y-90039856D01*
X73876180Y-89997944D01*
X73846640Y-89945702D01*
X73812489Y-89887861D01*
X73776516Y-89829156D01*
X73746396Y-89781818D01*
X73689606Y-89693946D01*
X73642176Y-89619319D01*
X73603231Y-89556153D01*
X73571895Y-89502665D01*
X73547290Y-89457071D01*
X73528541Y-89417589D01*
X73514771Y-89382434D01*
X73505105Y-89349823D01*
X73498665Y-89317973D01*
X73494575Y-89285100D01*
X73493026Y-89266152D01*
X73488051Y-89195939D01*
X73463182Y-89234333D01*
X73423033Y-89285061D01*
X73370394Y-89334687D01*
X73310547Y-89378249D01*
X73308734Y-89379387D01*
X73278831Y-89396449D01*
X73241343Y-89415533D01*
X73200423Y-89434798D01*
X73160223Y-89452407D01*
X73124896Y-89466518D01*
X73098595Y-89475292D01*
X73087757Y-89477273D01*
X73070932Y-89483535D01*
X73066505Y-89488359D01*
X73061748Y-89499842D01*
X73052145Y-89525997D01*
X73038604Y-89564249D01*
X73022030Y-89612022D01*
X73003328Y-89666739D01*
X72992173Y-89699723D01*
X72965499Y-89780498D01*
X72945137Y-89846596D01*
X72930757Y-89900265D01*
X72922028Y-89943755D01*
X72918620Y-89979312D01*
X72920201Y-90009187D01*
X72926443Y-90035627D01*
X72937013Y-90060881D01*
X72938620Y-90064062D01*
X72967770Y-90110404D01*
X73012291Y-90165770D01*
X73072237Y-90230214D01*
X73147659Y-90303789D01*
X73238610Y-90386549D01*
X73345110Y-90478520D01*
X73464699Y-90585451D01*
X73567501Y-90690246D01*
X73654570Y-90794296D01*
X73726962Y-90898994D01*
X73785731Y-91005729D01*
X73831934Y-91115893D01*
X73834955Y-91124426D01*
X73852270Y-91182801D01*
X73867711Y-91251200D01*
X73880072Y-91322737D01*
X73888149Y-91390523D01*
X73890760Y-91443445D01*
X73888098Y-91489233D01*
X73880422Y-91549786D01*
X73868197Y-91622534D01*
X73851887Y-91704906D01*
X73831957Y-91794330D01*
X73813981Y-91868182D01*
X73792864Y-91953380D01*
X73776229Y-92024556D01*
X73763480Y-92085145D01*
X73754019Y-92138584D01*
X73747250Y-92188307D01*
X73742576Y-92237752D01*
X73739399Y-92290353D01*
X73738959Y-92300000D01*
X73737248Y-92356760D01*
X73738133Y-92406966D01*
X73742672Y-92452048D01*
X73751923Y-92493435D01*
X73766947Y-92532557D01*
X73788801Y-92570841D01*
X73818544Y-92609719D01*
X73857235Y-92650618D01*
X73905933Y-92694969D01*
X73965696Y-92744200D01*
X74037584Y-92799741D01*
X74122654Y-92863021D01*
X74195415Y-92916178D01*
X74312879Y-93002675D01*
X74415976Y-93081405D01*
X74505883Y-93154041D01*
X74583776Y-93222261D01*
X74650830Y-93287739D01*
X74708221Y-93352151D01*
X74757126Y-93417172D01*
X74798721Y-93484478D01*
X74834181Y-93555745D01*
X74864683Y-93632647D01*
X74891402Y-93716860D01*
X74915516Y-93810059D01*
X74938199Y-93913921D01*
X74954585Y-93997725D01*
X74966171Y-94063079D01*
X74973118Y-94114653D01*
X74975311Y-94156274D01*
X74972635Y-94191773D01*
X74964975Y-94224978D01*
X74952214Y-94259718D01*
X74946287Y-94273480D01*
X74934497Y-94297691D01*
X74923117Y-94309483D01*
X74905779Y-94313310D01*
X74888874Y-94313637D01*
X74854354Y-94309172D01*
X74822394Y-94293550D01*
X74812402Y-94286562D01*
X74787373Y-94265740D01*
X74765238Y-94241276D01*
X74745039Y-94211083D01*
X74725822Y-94173075D01*
X74706629Y-94125162D01*
X74686506Y-94065259D01*
X74664495Y-93991277D01*
X74645057Y-93921183D01*
X74622662Y-93841324D01*
X74600849Y-93771163D01*
X74578252Y-93708962D01*
X74553509Y-93652984D01*
X74525256Y-93601490D01*
X74492129Y-93552743D01*
X74452764Y-93505005D01*
X74405798Y-93456538D01*
X74349866Y-93405606D01*
X74283606Y-93350470D01*
X74205653Y-93289392D01*
X74114643Y-93220635D01*
X74068096Y-93186006D01*
X73959924Y-93105046D01*
X73865884Y-93032823D01*
X73784877Y-92968142D01*
X73715800Y-92909807D01*
X73657552Y-92856621D01*
X73609033Y-92807390D01*
X73569142Y-92760916D01*
X73536778Y-92716005D01*
X73510838Y-92671459D01*
X73490224Y-92626084D01*
X73473832Y-92578683D01*
X73460563Y-92528061D01*
X73459974Y-92525478D01*
X73451468Y-92471679D01*
X73446651Y-92404710D01*
X73445531Y-92329205D01*
X73448114Y-92249800D01*
X73454405Y-92171129D01*
X73459447Y-92129858D01*
X73466578Y-92086731D01*
X73477406Y-92031280D01*
X73490823Y-91968719D01*
X73505721Y-91904259D01*
X73518031Y-91854546D01*
X73542981Y-91755488D01*
X73562979Y-91671398D01*
X73578312Y-91599834D01*
X73589271Y-91538353D01*
X73596144Y-91484512D01*
X73599219Y-91435870D01*
X73598786Y-91389983D01*
X73595134Y-91344410D01*
X73588550Y-91296707D01*
X73585897Y-91280737D01*
X73574409Y-91227824D01*
X73557624Y-91177248D01*
X73532919Y-91121374D01*
X73526895Y-91109091D01*
X73488035Y-91037427D01*
X73444064Y-90969867D01*
X73392500Y-90903265D01*
X73330858Y-90834475D01*
X73256655Y-90760352D01*
X73236158Y-90740909D01*
X73145923Y-90655723D01*
X73068086Y-90581439D01*
X73001494Y-90516828D01*
X72944994Y-90460663D01*
X72897435Y-90411715D01*
X72857664Y-90368758D01*
X72824529Y-90330563D01*
X72796878Y-90295902D01*
X72773559Y-90263548D01*
X72753419Y-90232272D01*
X72744166Y-90216628D01*
X72728687Y-90184432D01*
X72712736Y-90142701D01*
X72699437Y-90099725D01*
X72697918Y-90093901D01*
X72688406Y-90053321D01*
X72683866Y-90022523D01*
X72683818Y-89993941D01*
X72687782Y-89960013D01*
X72688939Y-89952406D01*
X72706153Y-89872001D01*
X72732885Y-89786753D01*
X72740396Y-89766681D01*
X72737702Y-89764146D01*
X72724881Y-89772513D01*
X72706922Y-89787981D01*
X72649413Y-89833708D01*
X72585129Y-89869090D01*
X72539550Y-89887368D01*
X72494496Y-89898932D01*
X72436267Y-89907107D01*
X72369585Y-89911726D01*
X72299175Y-89912627D01*
X72229761Y-89909644D01*
X72166067Y-89902613D01*
X72154755Y-89900764D01*
X72117932Y-89894631D01*
X72088770Y-89890281D01*
X72071232Y-89888276D01*
X72067946Y-89888414D01*
X72064304Y-89897331D01*
X72055340Y-89919932D01*
X72042341Y-89952959D01*
X72026591Y-89993155D01*
X72023915Y-90000000D01*
X71992851Y-90080978D01*
X71968714Y-90147466D01*
X71950845Y-90201502D01*
X71938587Y-90245121D01*
X71931283Y-90280361D01*
X71929673Y-90291952D01*
X71927763Y-90322038D01*
X71931676Y-90346557D01*
X71943265Y-90374114D01*
X71950299Y-90387603D01*
X71982583Y-90435642D01*
X72031241Y-90490139D01*
X72095816Y-90550662D01*
X72175851Y-90616778D01*
X72259594Y-90679888D01*
X72353094Y-90749295D01*
X72432840Y-90812058D01*
X72501019Y-90870292D01*
X72559817Y-90926107D01*
X72611420Y-90981618D01*
X72658015Y-91038936D01*
X72701788Y-91100176D01*
X72714776Y-91119750D01*
X72770706Y-91213655D01*
X72813248Y-91304837D01*
X72845055Y-91399143D01*
X72850198Y-91418259D01*
X72861729Y-91466294D01*
X72868239Y-91505049D01*
X72870574Y-91542455D01*
X72869582Y-91586442D01*
X72869127Y-91595455D01*
X72864982Y-91645319D01*
X72857393Y-91692120D01*
X72845250Y-91739268D01*
X72827442Y-91790174D01*
X72802858Y-91848249D01*
X72770388Y-91916905D01*
X72753102Y-91951771D01*
X72716191Y-92027844D01*
X72688601Y-92090463D01*
X72669727Y-92141410D01*
X72658965Y-92182470D01*
X72655711Y-92215424D01*
X72657448Y-92233949D01*
X72665669Y-92260288D01*
X72681639Y-92289115D01*
X72706752Y-92322082D01*
X72742406Y-92360840D01*
X72789997Y-92407040D01*
X72849478Y-92461053D01*
X72918828Y-92523645D01*
X72975733Y-92577415D01*
X73022246Y-92624524D01*
X73060420Y-92667133D01*
X73092305Y-92707403D01*
X73116602Y-92742330D01*
X73132508Y-92768616D01*
X73155047Y-92808639D01*
X73182880Y-92859794D01*
X73214667Y-92919476D01*
X73249071Y-92985078D01*
X73284754Y-93053996D01*
X73320376Y-93123624D01*
X73354599Y-93191355D01*
X73386084Y-93254586D01*
X73413494Y-93310709D01*
X73435490Y-93357121D01*
X73450733Y-93391214D01*
X73453906Y-93398944D01*
X73484884Y-93487759D01*
X73502958Y-93566860D01*
X73508325Y-93639146D01*
X73501182Y-93707515D01*
X73481724Y-93774867D01*
X73479748Y-93780025D01*
X73467287Y-93797385D01*
X73445974Y-93815624D01*
X73421656Y-93830865D01*
X73400180Y-93839230D01*
X73390581Y-93839168D01*
X73384555Y-93833248D01*
X73374173Y-93817650D01*
X73358785Y-93791191D01*
X73337739Y-93752689D01*
X73310382Y-93700963D01*
X73276062Y-93634829D01*
X73251063Y-93586192D01*
X73220761Y-93527810D01*
X73186081Y-93462166D01*
X73150982Y-93396685D01*
X73119420Y-93338795D01*
X73114794Y-93330429D01*
X73084004Y-93273954D01*
X73049276Y-93208761D01*
X73014631Y-93142479D01*
X72984090Y-93082739D01*
X72980899Y-93076385D01*
X72946258Y-93008458D01*
X72915405Y-92951638D01*
X72886011Y-92903017D01*
X72855751Y-92859686D01*
X72822298Y-92818736D01*
X72783324Y-92777260D01*
X72736503Y-92732349D01*
X72679509Y-92681094D01*
X72630303Y-92638141D01*
X72554688Y-92568543D01*
X72494264Y-92503493D01*
X72447338Y-92440779D01*
X72412214Y-92378186D01*
X72390997Y-92325287D01*
X72377980Y-92278239D01*
X72371527Y-92231764D01*
X72372121Y-92183553D01*
X72380247Y-92131294D01*
X72396393Y-92072677D01*
X72421041Y-92005390D01*
X72454679Y-91927124D01*
X72490816Y-91850000D01*
X72525529Y-91776813D01*
X72552371Y-91717015D01*
X72572031Y-91667956D01*
X72585199Y-91626981D01*
X72592565Y-91591441D01*
X72594818Y-91558681D01*
X72592648Y-91526051D01*
X72586745Y-91490898D01*
X72585619Y-91485432D01*
X72557756Y-91391845D01*
X72513206Y-91298108D01*
X72451698Y-91203862D01*
X72372962Y-91108747D01*
X72276727Y-91012405D01*
X72162724Y-90914477D01*
X72144681Y-90900108D01*
X72052144Y-90825265D01*
X71974118Y-90758045D01*
X71909288Y-90697104D01*
X71856344Y-90641095D01*
X71813974Y-90588675D01*
X71780864Y-90538497D01*
X71766836Y-90512775D01*
X71744614Y-90458879D01*
X71728908Y-90400332D01*
X71721132Y-90343841D01*
X71722058Y-90300501D01*
X71734220Y-90242510D01*
X71756376Y-90173387D01*
X71787231Y-90096256D01*
X71825491Y-90014243D01*
X71869862Y-89930472D01*
X71889252Y-89896797D01*
X71904175Y-89870158D01*
X71914357Y-89849422D01*
X71917327Y-89840509D01*
X71911334Y-89831369D01*
X71894644Y-89834409D01*
X71869193Y-89848725D01*
X71836915Y-89873416D01*
X71825408Y-89883406D01*
X71774705Y-89925077D01*
X71716081Y-89967571D01*
X71655224Y-90007121D01*
X71597818Y-90039957D01*
X71565274Y-90055815D01*
X71480709Y-90084349D01*
X71386501Y-90100339D01*
X71286285Y-90103662D01*
X71183701Y-90094198D01*
X71082937Y-90071984D01*
X71062475Y-90066061D01*
X71062528Y-90192122D01*
X71063469Y-90265423D01*
X71066705Y-90324668D01*
X71072960Y-90373913D01*
X71082957Y-90417215D01*
X71097419Y-90458631D01*
X71117068Y-90502218D01*
X71118208Y-90504546D01*
X71141601Y-90548116D01*
X71166987Y-90585625D01*
X71198944Y-90623246D01*
X71229833Y-90655105D01*
X71260538Y-90684683D01*
X71291830Y-90712473D01*
X71325997Y-90740135D01*
X71365329Y-90769328D01*
X71412115Y-90801712D01*
X71468644Y-90838948D01*
X71537205Y-90882696D01*
X71585390Y-90912962D01*
X71690951Y-90981253D01*
X71780965Y-91044709D01*
X71856937Y-91104816D01*
X71920373Y-91163060D01*
X71972780Y-91220926D01*
X72015663Y-91279901D01*
X72050529Y-91341470D01*
X72074397Y-91395455D01*
X72095678Y-91457296D01*
X72109059Y-91517211D01*
X72115406Y-91581193D01*
X72115588Y-91655230D01*
X72114830Y-91674732D01*
X72113161Y-91707334D01*
X72110968Y-91736458D01*
X72107715Y-91764600D01*
X72102866Y-91794257D01*
X72095885Y-91827926D01*
X72086235Y-91868102D01*
X72073381Y-91917283D01*
X72056787Y-91977964D01*
X72035915Y-92052643D01*
X72026426Y-92086364D01*
X72004394Y-92170677D01*
X71989527Y-92241490D01*
X71981968Y-92297925D01*
X71981856Y-92339100D01*
X71983983Y-92351317D01*
X71991106Y-92364226D01*
X72007537Y-92380579D01*
X72034654Y-92401353D01*
X72073836Y-92427527D01*
X72126463Y-92460079D01*
X72192400Y-92499103D01*
X72317015Y-92579512D01*
X72425269Y-92666062D01*
X72518242Y-92759736D01*
X72597014Y-92861515D01*
X72606548Y-92875823D01*
X72650409Y-92951673D01*
X72691015Y-93038515D01*
X72725944Y-93130097D01*
X72752775Y-93220167D01*
X72767487Y-93291386D01*
X72768376Y-93318679D01*
X72765260Y-93354908D01*
X72759151Y-93394397D01*
X72751062Y-93431470D01*
X72742005Y-93460453D01*
X72734968Y-93473732D01*
X72719492Y-93482055D01*
X72694932Y-93486245D01*
X72690129Y-93486364D01*
X72663769Y-93481183D01*
X72636709Y-93464892D01*
X72608060Y-93436368D01*
X72576935Y-93394486D01*
X72542447Y-93338123D01*
X72503706Y-93266157D01*
X72482015Y-93223064D01*
X72454707Y-93168956D01*
X72427089Y-93116247D01*
X72401244Y-93068772D01*
X72379254Y-93030363D01*
X72364297Y-93006444D01*
X72298340Y-92923279D01*
X72217429Y-92846061D01*
X72120595Y-92773977D01*
X72008268Y-92706963D01*
X71922320Y-92657364D01*
X71852682Y-92609421D01*
X71797793Y-92561401D01*
X71756093Y-92511573D01*
X71726022Y-92458203D01*
X71706019Y-92399560D01*
X71698513Y-92363038D01*
X71694350Y-92321791D01*
X71695214Y-92275917D01*
X71701488Y-92222847D01*
X71713554Y-92160015D01*
X71731796Y-92084851D01*
X71749946Y-92018182D01*
X71773027Y-91936057D01*
X71791604Y-91869156D01*
X71806140Y-91815215D01*
X71817099Y-91771968D01*
X71824945Y-91737150D01*
X71830140Y-91708494D01*
X71833150Y-91683736D01*
X71834436Y-91660610D01*
X71834464Y-91636850D01*
X71833695Y-91610191D01*
X71833657Y-91609091D01*
X71831379Y-91563811D01*
X71827377Y-91530233D01*
X71820270Y-91501882D01*
X71808673Y-91472282D01*
X71800737Y-91454944D01*
X71766781Y-91398144D01*
X71716755Y-91338383D01*
X71650265Y-91275281D01*
X71566914Y-91208462D01*
X71471712Y-91141169D01*
X71374780Y-91075204D01*
X71291996Y-91016807D01*
X71221703Y-90964547D01*
X71162246Y-90916995D01*
X71111967Y-90872722D01*
X71069209Y-90830299D01*
X71032315Y-90788296D01*
X70999628Y-90745283D01*
X70980942Y-90717779D01*
X70930908Y-90627306D01*
X70895679Y-90531176D01*
X70875125Y-90428260D01*
X70869117Y-90317429D01*
X70877522Y-90197554D01*
X70900212Y-90067506D01*
X70903941Y-90050937D01*
X70910397Y-90021199D01*
X70914320Y-89999734D01*
X70914874Y-89991327D01*
X70906900Y-89985435D01*
X70889185Y-89971957D01*
X70875685Y-89961596D01*
X70838949Y-89933321D01*
X70779030Y-89985690D01*
X70746999Y-90012683D01*
X70715594Y-90037477D01*
X70690519Y-90055605D01*
X70685945Y-90058549D01*
X70640646Y-90079962D01*
X70586264Y-90095885D01*
X70531636Y-90103923D01*
X70516628Y-90104438D01*
X70451245Y-90097171D01*
X70382842Y-90076742D01*
X70317414Y-90045694D01*
X70260957Y-90006574D01*
X70240188Y-89987130D01*
X70214068Y-89959877D01*
X70172196Y-89997106D01*
X70110506Y-90040374D01*
X70041554Y-90068527D01*
X69967578Y-90081954D01*
X69890816Y-90081043D01*
X69813507Y-90066184D01*
X69737889Y-90037764D01*
X69666201Y-89996172D01*
X69600681Y-89941798D01*
X69554591Y-89889849D01*
X69502826Y-89822814D01*
X69492144Y-89897771D01*
X69481717Y-90001018D01*
X69481171Y-90093615D01*
X69490370Y-90174298D01*
X69509176Y-90241803D01*
X69534693Y-90290963D01*
X69553046Y-90315434D01*
X69573620Y-90337533D01*
X69598805Y-90358918D01*
X69630987Y-90381249D01*
X69672557Y-90406183D01*
X69725901Y-90435378D01*
X69792972Y-90470267D01*
X69899823Y-90526978D01*
X69991779Y-90580209D01*
X70071388Y-90631632D01*
X70141198Y-90682917D01*
X70203758Y-90735737D01*
X70218675Y-90749482D01*
X70290307Y-90820842D01*
X70351849Y-90892045D01*
X70404062Y-90965114D01*
X70447711Y-91042072D01*
X70483556Y-91124941D01*
X70512362Y-91215744D01*
X70534890Y-91316504D01*
X70551904Y-91429244D01*
X70564165Y-91555986D01*
X70571889Y-91686364D01*
X70575893Y-91764456D01*
X70580392Y-91827142D01*
X70585913Y-91877198D01*
X70592982Y-91917401D01*
X70602124Y-91950527D01*
X70613865Y-91979351D01*
X70628732Y-92006651D01*
X70634246Y-92015536D01*
X70656575Y-92045408D01*
X70685295Y-92073616D01*
X70722278Y-92101293D01*
X70769394Y-92129567D01*
X70828515Y-92159571D01*
X70901510Y-92192435D01*
X70982990Y-92226355D01*
X71115794Y-92283006D01*
X71233186Y-92339432D01*
X71337857Y-92397154D01*
X71432499Y-92457691D01*
X71519804Y-92522562D01*
X71546630Y-92544482D01*
X71628809Y-92622677D01*
X71695034Y-92707035D01*
X71745603Y-92798418D01*
X71780812Y-92897691D01*
X71800959Y-93005717D01*
X71806342Y-93123359D01*
X71797257Y-93251481D01*
X71795335Y-93266644D01*
X71783757Y-93338567D01*
X71769823Y-93393822D01*
X71752753Y-93433855D01*
X71731767Y-93460112D01*
X71706085Y-93474038D01*
X71681638Y-93477273D01*
X71654607Y-93473729D01*
X71633782Y-93460874D01*
X71614930Y-93435372D01*
X71604921Y-93416837D01*
X71594305Y-93392414D01*
X71585689Y-93363725D01*
X71578575Y-93327842D01*
X71572467Y-93281834D01*
X71566867Y-93222772D01*
X71562703Y-93168182D01*
X71555617Y-93084580D01*
X71546691Y-93016032D01*
X71534764Y-92959424D01*
X71518671Y-92911641D01*
X71497250Y-92869569D01*
X71469339Y-92830093D01*
X71433774Y-92790098D01*
X71414152Y-92770302D01*
X71354258Y-92715580D01*
X71288953Y-92664547D01*
X71216022Y-92615892D01*
X71133249Y-92568308D01*
X71038421Y-92520483D01*
X70929324Y-92471108D01*
X70855792Y-92440069D01*
X70770880Y-92403922D01*
X70700641Y-92371320D01*
X70642307Y-92340652D01*
X70593109Y-92310303D01*
X70550281Y-92278662D01*
X70511052Y-92244114D01*
X70498452Y-92231827D01*
X70461550Y-92193320D01*
X70430918Y-92156580D01*
X70405916Y-92119383D01*
X70385903Y-92079501D01*
X70370237Y-92034710D01*
X70358278Y-91982785D01*
X70349385Y-91921499D01*
X70342916Y-91848627D01*
X70338232Y-91761944D01*
X70334817Y-91663637D01*
X70331459Y-91564460D01*
X70327444Y-91481013D01*
X70322504Y-91410846D01*
X70316368Y-91351511D01*
X70308766Y-91300558D01*
X70299428Y-91255539D01*
X70288085Y-91214005D01*
X70283748Y-91200317D01*
X70250903Y-91118683D01*
X70206447Y-91041017D01*
X70148478Y-90964500D01*
X70075093Y-90886314D01*
X70065491Y-90877003D01*
X70018614Y-90834109D01*
X69969761Y-90794184D01*
X69916012Y-90755238D01*
X69854448Y-90715279D01*
X69782150Y-90672316D01*
X69696199Y-90624359D01*
X69690689Y-90621358D01*
X69602318Y-90570988D01*
X69529706Y-90523910D01*
X69471194Y-90478185D01*
X69425121Y-90431875D01*
X69389828Y-90383041D01*
X69363653Y-90329746D01*
X69344938Y-90270050D01*
X69332118Y-90202681D01*
X69327996Y-90148083D01*
X69329040Y-90081986D01*
X69334626Y-90008666D01*
X69344129Y-89932402D01*
X69356926Y-89857473D01*
X69372391Y-89788158D01*
X69389901Y-89728735D01*
X69407531Y-89685985D01*
X69419052Y-89658911D01*
X69421092Y-89636401D01*
X69416729Y-89614743D01*
X69408488Y-89584147D01*
X69661974Y-89584147D01*
X69665910Y-89593565D01*
X69676350Y-89614867D01*
X69691241Y-89643895D01*
X69695271Y-89651592D01*
X69741847Y-89726041D01*
X69794811Y-89784774D01*
X69853369Y-89826948D01*
X69866389Y-89833663D01*
X69916225Y-89852343D01*
X69958210Y-89855779D01*
X69994584Y-89843856D01*
X70018520Y-89825729D01*
X70032209Y-89809548D01*
X70049035Y-89785275D01*
X70066486Y-89757218D01*
X70082047Y-89729681D01*
X70093206Y-89706972D01*
X70096805Y-89695455D01*
X70361757Y-89695455D01*
X70376706Y-89725000D01*
X70410206Y-89779890D01*
X70446675Y-89819097D01*
X70485013Y-89842096D01*
X70524124Y-89848363D01*
X70562907Y-89837374D01*
X70583673Y-89823807D01*
X70606667Y-89804624D01*
X70636821Y-89778253D01*
X70668083Y-89749998D01*
X70671836Y-89746534D01*
X70727028Y-89695455D01*
X70544393Y-89695455D01*
X70361757Y-89695455D01*
X70096805Y-89695455D01*
X70097449Y-89693395D01*
X70096816Y-89691584D01*
X70087282Y-89689134D01*
X70063597Y-89684034D01*
X70052755Y-89681818D01*
X70941213Y-89681818D01*
X71004118Y-89732991D01*
X71078929Y-89787011D01*
X71151683Y-89824743D01*
X71225507Y-89847331D01*
X71303527Y-89855915D01*
X71339847Y-89855555D01*
X71403864Y-89848754D01*
X71454418Y-89833988D01*
X71457387Y-89832706D01*
X71509349Y-89805744D01*
X71567890Y-89768709D01*
X71627643Y-89725242D01*
X71681266Y-89680756D01*
X71726942Y-89642973D01*
X71767331Y-89617620D01*
X71807937Y-89602490D01*
X71854261Y-89595376D01*
X71897571Y-89593971D01*
X71936627Y-89594912D01*
X71970944Y-89598489D01*
X72006545Y-89605824D01*
X72049452Y-89618037D01*
X72081021Y-89628112D01*
X72124081Y-89641862D01*
X72157922Y-89651349D01*
X72187963Y-89657384D01*
X72219624Y-89660784D01*
X72258323Y-89662361D01*
X72309478Y-89662929D01*
X72312923Y-89662948D01*
X72364582Y-89662988D01*
X72401866Y-89662147D01*
X72428584Y-89659955D01*
X72448543Y-89655945D01*
X72465552Y-89649649D01*
X72480080Y-89642391D01*
X72512000Y-89621563D01*
X72542824Y-89595635D01*
X72550249Y-89588049D01*
X72568360Y-89564190D01*
X72590857Y-89528610D01*
X72615363Y-89485800D01*
X72639500Y-89440246D01*
X72660892Y-89396438D01*
X72677161Y-89358862D01*
X72685930Y-89332008D01*
X72685969Y-89331818D01*
X72702319Y-89286389D01*
X72729619Y-89255141D01*
X72768059Y-89238002D01*
X72817827Y-89234899D01*
X72879112Y-89245762D01*
X72897665Y-89251083D01*
X72922220Y-89257157D01*
X72944738Y-89258003D01*
X72972575Y-89253365D01*
X72995553Y-89247668D01*
X73053084Y-89229420D01*
X73111276Y-89205446D01*
X73164798Y-89178309D01*
X73208323Y-89150573D01*
X73224202Y-89137707D01*
X73261359Y-89093395D01*
X73291512Y-89036242D01*
X73313836Y-88970509D01*
X73327504Y-88900454D01*
X73331692Y-88830339D01*
X73325572Y-88764424D01*
X73312234Y-88720000D01*
X73563370Y-88720000D01*
X73565389Y-88740778D01*
X73571069Y-88744178D01*
X73579849Y-88730506D01*
X73589257Y-88705905D01*
X73594973Y-88686059D01*
X73593236Y-88679236D01*
X73585207Y-88680905D01*
X73570783Y-88685683D01*
X73567173Y-88686364D01*
X73564714Y-88694398D01*
X73563426Y-88714283D01*
X73563370Y-88720000D01*
X73312234Y-88720000D01*
X73308321Y-88706967D01*
X73307874Y-88705972D01*
X73286475Y-88652172D01*
X73276841Y-88609135D01*
X73279071Y-88573676D01*
X73293260Y-88542610D01*
X73313605Y-88518464D01*
X73334188Y-88500597D01*
X73355188Y-88490752D01*
X73384209Y-88485859D01*
X73397029Y-88484795D01*
X73458656Y-88474380D01*
X73506063Y-88453029D01*
X73539259Y-88420675D01*
X73558258Y-88377248D01*
X73563070Y-88322682D01*
X73553707Y-88256908D01*
X73530182Y-88179857D01*
X73492505Y-88091461D01*
X73471671Y-88049390D01*
X73437904Y-87989037D01*
X73402190Y-87937753D01*
X73358443Y-87886901D01*
X73353350Y-87881463D01*
X73313861Y-87837348D01*
X73287451Y-87801550D01*
X73272945Y-87771092D01*
X73269168Y-87743001D01*
X73274945Y-87714301D01*
X73281120Y-87698631D01*
X73302138Y-87665908D01*
X73330945Y-87639892D01*
X73362182Y-87624827D01*
X73376940Y-87622728D01*
X73400530Y-87616584D01*
X73430409Y-87600733D01*
X73460538Y-87578838D01*
X73480147Y-87560122D01*
X73496188Y-87538243D01*
X73514187Y-87507873D01*
X73524329Y-87487942D01*
X73536864Y-87458545D01*
X73542696Y-87433969D01*
X73543078Y-87405859D01*
X73540694Y-87378851D01*
X73528923Y-87309368D01*
X73510033Y-87250623D01*
X73488126Y-87210247D01*
X73472306Y-87193753D01*
X73445540Y-87171571D01*
X73412453Y-87147407D01*
X73395987Y-87136389D01*
X73361307Y-87112964D01*
X73330392Y-87090415D01*
X73307971Y-87072264D01*
X73301696Y-87066233D01*
X73277568Y-87028439D01*
X73268423Y-86986671D01*
X73274001Y-86945264D01*
X73294044Y-86908553D01*
X73312150Y-86891155D01*
X73334559Y-86876595D01*
X73353207Y-86868668D01*
X73356816Y-86868182D01*
X73371971Y-86865151D01*
X73398740Y-86857140D01*
X73431788Y-86845768D01*
X73437586Y-86843640D01*
X73490117Y-86819509D01*
X73533344Y-86788148D01*
X73570549Y-86746328D01*
X73605014Y-86690817D01*
X73617538Y-86666549D01*
X73648895Y-86587902D01*
X73669706Y-86498933D01*
X73680377Y-86397580D01*
X73682043Y-86340909D01*
X73684952Y-86280114D01*
X73693711Y-86234708D01*
X73709925Y-86202404D01*
X73735196Y-86180912D01*
X73771127Y-86167943D01*
X73807135Y-86162319D01*
X73864041Y-86149387D01*
X73910461Y-86122568D01*
X73948727Y-86080332D01*
X73960549Y-86061757D01*
X73980665Y-86011048D01*
X73982723Y-85958457D01*
X73966741Y-85904107D01*
X73932737Y-85848123D01*
X73927594Y-85841486D01*
X73903544Y-85799541D01*
X73894539Y-85756233D01*
X73899931Y-85714985D01*
X73919072Y-85679220D01*
X73951314Y-85652360D01*
X73964608Y-85646078D01*
X74002397Y-85622858D01*
X74025359Y-85589844D01*
X74033507Y-85547755D01*
X74026851Y-85497314D01*
X74005402Y-85439242D01*
X73969171Y-85374262D01*
X73960291Y-85360707D01*
X73938421Y-85328470D01*
X73924528Y-85309736D01*
X73916622Y-85302796D01*
X73912712Y-85305944D01*
X73910809Y-85317471D01*
X73910736Y-85318182D01*
X73898051Y-85417327D01*
X73880178Y-85509347D01*
X73855761Y-85598725D01*
X73823442Y-85689941D01*
X73781866Y-85787475D01*
X73745563Y-85863874D01*
X73712092Y-85929798D01*
X73678959Y-85989957D01*
X73644348Y-86046876D01*
X73606442Y-86103080D01*
X73563423Y-86161096D01*
X73513475Y-86223448D01*
X73454780Y-86292662D01*
X73385522Y-86371265D01*
X73360222Y-86399491D01*
X73300304Y-86469059D01*
X73249592Y-86535259D01*
X73207220Y-86600533D01*
X73172319Y-86667326D01*
X73144024Y-86738078D01*
X73121467Y-86815234D01*
X73103781Y-86901235D01*
X73090099Y-86998524D01*
X73079554Y-87109544D01*
X73072840Y-87209091D01*
X73069232Y-87279248D01*
X73065643Y-87364888D01*
X73062138Y-87463315D01*
X73058780Y-87571829D01*
X73055633Y-87687733D01*
X73052759Y-87808330D01*
X73050222Y-87930921D01*
X73048085Y-88052807D01*
X73046413Y-88171293D01*
X73045268Y-88283678D01*
X73044713Y-88387266D01*
X73044678Y-88407074D01*
X73044397Y-88511330D01*
X73043682Y-88599250D01*
X73042358Y-88672679D01*
X73040254Y-88733461D01*
X73037196Y-88783441D01*
X73033011Y-88824463D01*
X73027526Y-88858371D01*
X73020568Y-88887011D01*
X73011964Y-88912226D01*
X73001541Y-88935860D01*
X72993596Y-88951460D01*
X72963579Y-88998499D01*
X72921848Y-89050649D01*
X72872343Y-89103759D01*
X72819001Y-89153678D01*
X72765762Y-89196255D01*
X72752525Y-89205540D01*
X72715739Y-89228853D01*
X72674299Y-89251688D01*
X72626554Y-89274689D01*
X72570852Y-89298499D01*
X72505540Y-89323762D01*
X72428967Y-89351122D01*
X72339480Y-89381222D01*
X72235428Y-89414707D01*
X72135586Y-89445911D01*
X72054463Y-89470632D01*
X71982445Y-89491618D01*
X71915136Y-89509963D01*
X71848135Y-89526764D01*
X71777043Y-89543117D01*
X71697462Y-89560117D01*
X71604993Y-89578862D01*
X71589937Y-89581853D01*
X71495079Y-89600588D01*
X71415586Y-89616090D01*
X71349003Y-89628768D01*
X71292873Y-89639028D01*
X71244742Y-89647279D01*
X71202154Y-89653928D01*
X71162653Y-89659384D01*
X71123785Y-89664053D01*
X71083094Y-89668343D01*
X71049588Y-89671588D01*
X70941213Y-89681818D01*
X70052755Y-89681818D01*
X70029470Y-89677059D01*
X69993911Y-89670021D01*
X69943496Y-89659096D01*
X69883898Y-89644531D01*
X69823205Y-89628375D01*
X69777924Y-89615266D01*
X69735327Y-89602615D01*
X69699768Y-89592603D01*
X69674430Y-89586086D01*
X69662492Y-89583916D01*
X69661974Y-89584147D01*
X69408488Y-89584147D01*
X69407347Y-89579911D01*
X69345956Y-89574616D01*
X69257378Y-89559685D01*
X69177715Y-89531459D01*
X69108769Y-89490873D01*
X69052342Y-89438862D01*
X69031135Y-89411428D01*
X68995195Y-89346268D01*
X68966525Y-89267318D01*
X68945521Y-89177621D01*
X68932580Y-89080221D01*
X68928570Y-88988980D01*
X69163605Y-88988980D01*
X69166929Y-89054116D01*
X69174054Y-89109658D01*
X69187681Y-89180040D01*
X69204851Y-89235138D01*
X69226639Y-89277682D01*
X69252613Y-89308973D01*
X69272451Y-89323697D01*
X69299546Y-89338466D01*
X69329681Y-89351709D01*
X69358642Y-89361857D01*
X69382212Y-89367339D01*
X69396177Y-89366585D01*
X69398243Y-89363208D01*
X69394163Y-89353468D01*
X69383310Y-89331932D01*
X69367766Y-89302687D01*
X69362352Y-89292754D01*
X69342535Y-89253224D01*
X69318916Y-89200809D01*
X69293267Y-89139929D01*
X69267356Y-89075007D01*
X69242952Y-89010466D01*
X69221824Y-88950726D01*
X69207021Y-88904546D01*
X69196526Y-88871206D01*
X69187126Y-88844680D01*
X69180565Y-88829818D01*
X69179738Y-88828663D01*
X69176356Y-88833875D01*
X69172546Y-88853914D01*
X69168817Y-88885449D01*
X69166126Y-88918257D01*
X69163605Y-88988980D01*
X68928570Y-88988980D01*
X68928095Y-88978160D01*
X68932463Y-88874481D01*
X68946079Y-88772227D01*
X68947254Y-88765909D01*
X68953000Y-88733542D01*
X68954693Y-88715099D01*
X68952088Y-88706727D01*
X68944937Y-88704571D01*
X68943331Y-88704546D01*
X68928123Y-88700641D01*
X68901971Y-88690308D01*
X68870013Y-88675613D01*
X68863531Y-88672410D01*
X68803478Y-88634562D01*
X68749322Y-88585605D01*
X68705929Y-88530334D01*
X68689205Y-88500634D01*
X68668664Y-88446580D01*
X68652478Y-88381014D01*
X68641719Y-88310311D01*
X68637893Y-88247930D01*
X68875250Y-88247930D01*
X68878982Y-88319187D01*
X68891229Y-88376865D01*
X68902542Y-88404160D01*
X68925295Y-88435365D01*
X68958405Y-88466189D01*
X68993553Y-88489465D01*
X69021192Y-88501488D01*
X69042544Y-88502734D01*
X69064630Y-88494223D01*
X69080903Y-88485443D01*
X69087359Y-88481511D01*
X69086111Y-88472397D01*
X69081048Y-88448137D01*
X69072740Y-88411231D01*
X69061758Y-88364181D01*
X69048670Y-88309485D01*
X69040505Y-88275924D01*
X69024917Y-88211215D01*
X69009741Y-88146395D01*
X68995912Y-88085590D01*
X68984364Y-88032931D01*
X68976032Y-87992544D01*
X68974307Y-87983479D01*
X68966546Y-87943242D01*
X68960646Y-87918499D01*
X68955644Y-87906781D01*
X68950576Y-87905621D01*
X68945864Y-87910586D01*
X68932324Y-87936588D01*
X68918228Y-87976540D01*
X68904652Y-88026282D01*
X68892670Y-88081655D01*
X68883356Y-88138500D01*
X68880187Y-88164730D01*
X68875250Y-88247930D01*
X68637893Y-88247930D01*
X68637458Y-88240842D01*
X68638635Y-88200000D01*
X68650135Y-88099289D01*
X68669385Y-87997813D01*
X68694939Y-87902111D01*
X68720229Y-87830947D01*
X68719539Y-87820102D01*
X68705935Y-87809778D01*
X68684632Y-87800590D01*
X68627158Y-87769262D01*
X68576312Y-87723030D01*
X68532987Y-87664244D01*
X68498078Y-87595256D01*
X68472478Y-87518416D01*
X68457081Y-87436075D01*
X68453438Y-87363637D01*
X68688898Y-87363637D01*
X68692965Y-87413275D01*
X68703970Y-87465337D01*
X68720119Y-87513691D01*
X68739619Y-87552203D01*
X68747034Y-87562382D01*
X68764622Y-87577487D01*
X68790454Y-87592534D01*
X68820375Y-87606029D01*
X68850226Y-87616479D01*
X68875852Y-87622390D01*
X68893096Y-87622271D01*
X68898064Y-87616634D01*
X68896606Y-87604778D01*
X68892558Y-87577955D01*
X68886412Y-87539116D01*
X68878658Y-87491212D01*
X68869787Y-87437195D01*
X68860290Y-87380016D01*
X68850658Y-87322628D01*
X68841381Y-87267981D01*
X68832951Y-87219027D01*
X68825857Y-87178718D01*
X68820592Y-87150005D01*
X68819711Y-87145455D01*
X68812255Y-87110734D01*
X68805133Y-87083032D01*
X68799610Y-87067127D01*
X68798539Y-87065456D01*
X68791160Y-87068738D01*
X68778922Y-87085603D01*
X68763534Y-87112676D01*
X68746706Y-87146584D01*
X68730148Y-87183955D01*
X68715568Y-87221414D01*
X68707984Y-87244140D01*
X68697236Y-87288802D01*
X68690383Y-87336156D01*
X68688898Y-87363637D01*
X68453438Y-87363637D01*
X68452781Y-87350584D01*
X68460473Y-87264294D01*
X68467318Y-87229152D01*
X68481660Y-87177440D01*
X68501662Y-87120319D01*
X68524835Y-87063948D01*
X68548693Y-87014485D01*
X68565928Y-86985034D01*
X68579711Y-86962757D01*
X68587890Y-86946722D01*
X68588863Y-86943177D01*
X68580669Y-86937959D01*
X68559224Y-86931296D01*
X68530197Y-86924840D01*
X68444971Y-86903381D01*
X68375824Y-86874449D01*
X68322919Y-86838185D01*
X68286419Y-86794733D01*
X68266484Y-86744232D01*
X68262908Y-86691794D01*
X68263431Y-86683556D01*
X68443356Y-86683556D01*
X68451851Y-86696618D01*
X68475296Y-86710904D01*
X68510630Y-86725101D01*
X68554795Y-86737890D01*
X68585088Y-86744502D01*
X68621481Y-86751546D01*
X68652696Y-86757667D01*
X68672978Y-86761734D01*
X68675257Y-86762210D01*
X68701294Y-86766188D01*
X68722861Y-86766899D01*
X68733938Y-86764244D01*
X68734369Y-86763185D01*
X68729320Y-86748025D01*
X68715848Y-86722617D01*
X68696468Y-86691243D01*
X68673695Y-86658182D01*
X68668709Y-86651416D01*
X68638174Y-86616283D01*
X68605753Y-86593218D01*
X68565624Y-86578966D01*
X68526730Y-86572072D01*
X68499208Y-86569096D01*
X68485173Y-86570351D01*
X68480204Y-86576890D01*
X68479733Y-86583270D01*
X68475719Y-86602030D01*
X68465688Y-86627780D01*
X68461544Y-86636364D01*
X68450324Y-86660836D01*
X68443925Y-86679581D01*
X68443356Y-86683556D01*
X68263431Y-86683556D01*
X68266020Y-86642791D01*
X68203489Y-86632484D01*
X68122098Y-86610967D01*
X68052010Y-86575630D01*
X67994104Y-86527399D01*
X67973694Y-86500000D01*
X68216002Y-86500000D01*
X68220549Y-86504546D01*
X68225096Y-86500000D01*
X68220549Y-86495455D01*
X68216002Y-86500000D01*
X67973694Y-86500000D01*
X67966922Y-86490909D01*
X68188719Y-86490909D01*
X68193266Y-86495455D01*
X68197813Y-86490909D01*
X68193266Y-86486364D01*
X68188719Y-86490909D01*
X67966922Y-86490909D01*
X67949258Y-86467197D01*
X67943542Y-86454022D01*
X68115966Y-86454022D01*
X68123132Y-86461068D01*
X68139854Y-86471347D01*
X68158969Y-86480934D01*
X68173313Y-86485903D01*
X68174320Y-86486000D01*
X68179522Y-86483758D01*
X68178867Y-86482975D01*
X68167111Y-86475466D01*
X68148636Y-86466071D01*
X68129982Y-86457799D01*
X68117688Y-86453659D01*
X68115966Y-86454022D01*
X67943542Y-86454022D01*
X67918348Y-86395950D01*
X67902321Y-86315270D01*
X67898671Y-86284778D01*
X67893317Y-86260421D01*
X67884202Y-86237291D01*
X67869266Y-86210479D01*
X67846450Y-86175077D01*
X67838550Y-86163227D01*
X67790644Y-86083630D01*
X67754308Y-86003861D01*
X67728104Y-85919473D01*
X67710594Y-85826016D01*
X67701771Y-85740268D01*
X67700764Y-85713195D01*
X67961585Y-85713195D01*
X67973560Y-85808360D01*
X68001924Y-85898882D01*
X68016419Y-85930433D01*
X68048323Y-85984935D01*
X68089264Y-86041382D01*
X68135801Y-86095996D01*
X68184496Y-86144998D01*
X68231909Y-86184606D01*
X68269483Y-86208507D01*
X68298482Y-86220646D01*
X68341327Y-86234917D01*
X68393974Y-86250189D01*
X68452376Y-86265328D01*
X68512488Y-86279200D01*
X68547939Y-86286493D01*
X68594749Y-86296810D01*
X68640674Y-86308970D01*
X68679296Y-86321178D01*
X68697641Y-86328376D01*
X68772062Y-86371526D01*
X68840579Y-86430474D01*
X68901722Y-86503381D01*
X68954019Y-86588413D01*
X68996000Y-86683732D01*
X69006265Y-86713754D01*
X69013319Y-86740294D01*
X69022639Y-86782177D01*
X69033750Y-86836772D01*
X69046181Y-86901446D01*
X69059458Y-86973568D01*
X69073109Y-87050507D01*
X69086660Y-87129630D01*
X69099640Y-87208306D01*
X69111574Y-87283904D01*
X69121990Y-87353791D01*
X69124675Y-87372728D01*
X69146367Y-87517646D01*
X69171370Y-87666876D01*
X69199235Y-87818584D01*
X69229514Y-87970938D01*
X69261759Y-88122105D01*
X69295521Y-88270250D01*
X69330352Y-88413542D01*
X69365803Y-88550147D01*
X69401426Y-88678232D01*
X69436772Y-88795964D01*
X69471393Y-88901510D01*
X69504840Y-88993036D01*
X69536665Y-89068710D01*
X69542813Y-89081818D01*
X69583953Y-89159345D01*
X69625695Y-89220644D01*
X69669504Y-89267651D01*
X69703691Y-89294091D01*
X69741316Y-89314417D01*
X69793127Y-89335904D01*
X69855266Y-89357415D01*
X69923875Y-89377812D01*
X69995097Y-89395957D01*
X70065076Y-89410713D01*
X70129952Y-89420943D01*
X70136450Y-89421724D01*
X70183197Y-89425558D01*
X70245317Y-89428213D01*
X70320036Y-89429704D01*
X70404577Y-89430046D01*
X70496166Y-89429253D01*
X70592026Y-89427340D01*
X70689382Y-89424322D01*
X70785459Y-89420213D01*
X70826027Y-89418096D01*
X70914921Y-89412912D01*
X70991112Y-89407705D01*
X71058758Y-89401956D01*
X71122016Y-89395148D01*
X71185040Y-89386761D01*
X71251990Y-89376280D01*
X71327021Y-89363186D01*
X71414289Y-89346960D01*
X71446860Y-89340758D01*
X71542918Y-89322168D01*
X71624835Y-89305696D01*
X71696396Y-89290412D01*
X71761391Y-89275385D01*
X71823608Y-89259686D01*
X71886835Y-89242385D01*
X71954860Y-89222553D01*
X72031471Y-89199258D01*
X72062833Y-89189551D01*
X72176914Y-89153380D01*
X72279962Y-89119207D01*
X72370706Y-89087492D01*
X72447873Y-89058699D01*
X72510188Y-89033288D01*
X72556380Y-89011721D01*
X72563488Y-89007955D01*
X72603768Y-88981933D01*
X72647522Y-88947039D01*
X72689931Y-88907737D01*
X72726177Y-88868494D01*
X72751441Y-88833775D01*
X72751461Y-88833740D01*
X72775832Y-88792170D01*
X72782385Y-88077903D01*
X72783928Y-87921114D01*
X72785557Y-87781041D01*
X72787328Y-87656220D01*
X72789296Y-87545184D01*
X72791518Y-87446470D01*
X72794049Y-87358612D01*
X72796946Y-87280145D01*
X72800265Y-87209603D01*
X72804061Y-87145521D01*
X72808391Y-87086434D01*
X72813312Y-87030878D01*
X72818878Y-86977386D01*
X72825146Y-86924494D01*
X72827099Y-86909091D01*
X72837530Y-86833056D01*
X72847872Y-86770955D01*
X72859228Y-86718582D01*
X72872704Y-86671729D01*
X72889404Y-86626187D01*
X72910432Y-86577749D01*
X72918764Y-86559871D01*
X72988447Y-86430600D01*
X73069076Y-86314333D01*
X73136329Y-86236364D01*
X73228027Y-86136567D01*
X73306573Y-86043659D01*
X73374072Y-85954633D01*
X73432632Y-85866486D01*
X73484361Y-85776212D01*
X73531365Y-85680806D01*
X73541256Y-85658886D01*
X73576154Y-85573921D01*
X73600850Y-85496921D01*
X73616670Y-85421790D01*
X73624942Y-85342432D01*
X73627029Y-85264688D01*
X73625600Y-85192862D01*
X73621591Y-85117863D01*
X73615419Y-85043814D01*
X73607503Y-84974844D01*
X73598260Y-84915077D01*
X73588109Y-84868640D01*
X73586273Y-84862201D01*
X73568649Y-84818824D01*
X73539949Y-84766473D01*
X73502534Y-84708429D01*
X73458765Y-84647970D01*
X73411004Y-84588375D01*
X73361613Y-84532923D01*
X73317615Y-84489173D01*
X73245881Y-84424810D01*
X73181707Y-84372274D01*
X73121332Y-84329163D01*
X73060995Y-84293071D01*
X72996935Y-84261596D01*
X72925392Y-84232334D01*
X72902492Y-84223840D01*
X72854566Y-84206779D01*
X72810363Y-84192110D01*
X72767601Y-84179410D01*
X72724001Y-84168252D01*
X72677282Y-84158212D01*
X72625164Y-84148865D01*
X72565365Y-84139787D01*
X72495606Y-84130553D01*
X72413605Y-84120738D01*
X72317082Y-84109916D01*
X72254255Y-84103088D01*
X72210179Y-84100094D01*
X72150008Y-84098694D01*
X72075760Y-84098822D01*
X71989451Y-84100410D01*
X71893100Y-84103389D01*
X71788723Y-84107694D01*
X71678338Y-84113256D01*
X71563961Y-84120008D01*
X71447611Y-84127882D01*
X71394412Y-84131830D01*
X71294939Y-84139392D01*
X71193463Y-84147047D01*
X71092254Y-84154629D01*
X70993577Y-84161971D01*
X70899701Y-84168906D01*
X70812893Y-84175267D01*
X70735420Y-84180887D01*
X70669549Y-84185599D01*
X70617549Y-84189237D01*
X70585031Y-84191418D01*
X70550730Y-84193825D01*
X70502504Y-84197475D01*
X70444550Y-84202037D01*
X70381065Y-84207180D01*
X70316244Y-84212571D01*
X70303112Y-84213682D01*
X70237739Y-84219139D01*
X70172088Y-84224455D01*
X70110563Y-84229286D01*
X70057568Y-84233287D01*
X70017510Y-84236113D01*
X70012099Y-84236464D01*
X69958916Y-84240609D01*
X69898786Y-84246441D01*
X69842739Y-84252865D01*
X69830216Y-84254496D01*
X69780288Y-84260409D01*
X69721438Y-84266174D01*
X69662919Y-84270926D01*
X69634691Y-84272768D01*
X69584396Y-84276760D01*
X69523695Y-84283227D01*
X69460063Y-84291292D01*
X69400970Y-84300078D01*
X69398243Y-84300524D01*
X69338254Y-84309680D01*
X69272096Y-84318606D01*
X69207758Y-84326286D01*
X69153230Y-84331706D01*
X69152701Y-84331750D01*
X69101649Y-84336069D01*
X69050197Y-84340502D01*
X69004841Y-84344485D01*
X68975864Y-84347101D01*
X68912705Y-84352941D01*
X68955283Y-84391475D01*
X68996059Y-84422738D01*
X69051508Y-84456916D01*
X69118621Y-84492661D01*
X69194389Y-84528628D01*
X69275804Y-84563468D01*
X69359857Y-84595835D01*
X69443539Y-84624382D01*
X69523842Y-84647762D01*
X69533070Y-84650147D01*
X69560952Y-84660126D01*
X69577301Y-84675165D01*
X69584534Y-84689174D01*
X69592483Y-84725706D01*
X69586687Y-84759317D01*
X69571566Y-84781335D01*
X69555755Y-84790007D01*
X69527414Y-84800648D01*
X69491789Y-84811369D01*
X69479307Y-84814607D01*
X69429831Y-84830132D01*
X69371831Y-84853421D01*
X69309879Y-84882144D01*
X69248549Y-84913971D01*
X69192411Y-84946574D01*
X69146040Y-84977623D01*
X69122976Y-84996157D01*
X69086317Y-85033377D01*
X69054474Y-85076126D01*
X69025344Y-85127920D01*
X68996822Y-85192278D01*
X68980859Y-85233689D01*
X68947648Y-85328192D01*
X68921793Y-85414240D01*
X68901978Y-85497771D01*
X68886885Y-85584725D01*
X68875200Y-85681039D01*
X68870460Y-85731818D01*
X68864716Y-85788473D01*
X68858068Y-85829600D01*
X68849476Y-85857855D01*
X68837905Y-85875892D01*
X68822316Y-85886364D01*
X68808373Y-85890635D01*
X68780764Y-85891001D01*
X68750804Y-85883212D01*
X68725218Y-85869875D01*
X68710731Y-85853593D01*
X68710397Y-85852683D01*
X68704401Y-85838419D01*
X68692173Y-85811671D01*
X68675497Y-85776277D01*
X68656300Y-85736364D01*
X68591945Y-85621906D01*
X68513041Y-85511703D01*
X68422703Y-85409351D01*
X68324048Y-85318448D01*
X68239305Y-85255089D01*
X68158846Y-85201087D01*
X68137215Y-85227816D01*
X68071673Y-85320443D01*
X68021043Y-85417011D01*
X67985622Y-85515804D01*
X67965704Y-85615104D01*
X67961585Y-85713195D01*
X67700764Y-85713195D01*
X67699555Y-85680679D01*
X67702470Y-85623052D01*
X67711182Y-85562805D01*
X67726354Y-85495355D01*
X67748654Y-85416121D01*
X67748990Y-85415005D01*
X67770419Y-85348170D01*
X67790861Y-85294801D01*
X67812418Y-85250444D01*
X67837193Y-85210647D01*
X67859880Y-85180190D01*
X67896259Y-85134184D01*
X67816943Y-85138704D01*
X67770170Y-85139878D01*
X67738510Y-85136077D01*
X67719216Y-85125767D01*
X67709541Y-85107414D01*
X67706738Y-85079483D01*
X67706729Y-85077131D01*
X67707452Y-85061351D01*
X67710807Y-85047236D01*
X67718573Y-85032833D01*
X67732530Y-85016189D01*
X67754456Y-84995350D01*
X67757957Y-84992367D01*
X68007136Y-84992367D01*
X68067051Y-85003403D01*
X68102925Y-85011152D01*
X68136301Y-85021381D01*
X68170359Y-85035658D01*
X68208280Y-85055553D01*
X68253243Y-85082635D01*
X68308429Y-85118473D01*
X68331667Y-85133993D01*
X68430544Y-85206974D01*
X68520073Y-85287672D01*
X68604035Y-85379786D01*
X68671122Y-85466075D01*
X68729822Y-85546469D01*
X68750726Y-85445962D01*
X68762177Y-85397059D01*
X68777841Y-85338498D01*
X68795644Y-85277682D01*
X68813268Y-85222727D01*
X68847113Y-85129136D01*
X68880687Y-85050953D01*
X68916043Y-84985551D01*
X68955233Y-84930306D01*
X69000308Y-84882592D01*
X69053321Y-84839783D01*
X69116322Y-84799255D01*
X69165660Y-84771794D01*
X69246826Y-84728638D01*
X69206584Y-84710225D01*
X69119246Y-84669067D01*
X69040969Y-84629775D01*
X68973844Y-84593474D01*
X68919968Y-84561289D01*
X68886437Y-84538225D01*
X68845275Y-84503342D01*
X68798117Y-84457404D01*
X68748145Y-84404092D01*
X68698538Y-84347091D01*
X68652477Y-84290084D01*
X68613142Y-84236754D01*
X68583713Y-84190785D01*
X68578868Y-84181996D01*
X68565524Y-84158659D01*
X68555166Y-84143773D01*
X68551675Y-84140909D01*
X68547004Y-84149003D01*
X68540380Y-84169998D01*
X68534662Y-84193182D01*
X68510548Y-84275607D01*
X68473862Y-84366117D01*
X68426460Y-84461726D01*
X68370199Y-84559449D01*
X68306935Y-84656299D01*
X68238525Y-84749291D01*
X68166823Y-84835440D01*
X68093687Y-84911759D01*
X68079701Y-84924977D01*
X68007136Y-84992367D01*
X67757957Y-84992367D01*
X67786131Y-84968364D01*
X67829333Y-84933276D01*
X67860359Y-84908454D01*
X67906900Y-84869895D01*
X67955389Y-84827320D01*
X68000738Y-84785342D01*
X68037857Y-84748576D01*
X68044947Y-84741071D01*
X68115856Y-84658939D01*
X68185114Y-84567912D01*
X68250271Y-84471861D01*
X68308874Y-84374656D01*
X68358471Y-84280168D01*
X68396610Y-84192267D01*
X68402130Y-84177273D01*
X68421995Y-84117481D01*
X68436421Y-84062823D01*
X68446326Y-84007859D01*
X68452627Y-83947151D01*
X68456243Y-83875257D01*
X68456888Y-83852826D01*
X68458813Y-83793587D01*
X68461583Y-83750148D01*
X68465845Y-83720128D01*
X68472246Y-83701147D01*
X68481433Y-83690824D01*
X68494056Y-83686777D01*
X68502172Y-83686364D01*
X68516725Y-83688416D01*
G37*
D11*
%TO.C,D9*%
X84270000Y-71900000D02*
X86470000Y-71900000D01*
X84270000Y-73900000D02*
X86470000Y-73900000D01*
X85370000Y-71900000D02*
X85770000Y-71900000D01*
X85770000Y-71900000D02*
X85770000Y-73900000D01*
X85770000Y-73900000D02*
X85370000Y-73900000D01*
X85370000Y-73900000D02*
X85370000Y-71900000D01*
G36*
X85370000Y-71900000D02*
G01*
X85770000Y-71900000D01*
X85770000Y-73900000D01*
X85370000Y-73900000D01*
X85370000Y-71900000D01*
G37*
%TO.C,D7*%
X80725000Y-78050000D02*
X82925000Y-78050000D01*
X80725000Y-80050000D02*
X82925000Y-80050000D01*
X81825000Y-78050000D02*
X82225000Y-78050000D01*
X82225000Y-78050000D02*
X82225000Y-80050000D01*
X82225000Y-80050000D02*
X81825000Y-80050000D01*
X81825000Y-80050000D02*
X81825000Y-78050000D01*
G36*
X81825000Y-78050000D02*
G01*
X82225000Y-78050000D01*
X82225000Y-80050000D01*
X81825000Y-80050000D01*
X81825000Y-78050000D01*
G37*
%TO.C,D14*%
X87800000Y-75000000D02*
X90000000Y-75000000D01*
X87800000Y-77000000D02*
X90000000Y-77000000D01*
X88900000Y-75000000D02*
X89300000Y-75000000D01*
X89300000Y-75000000D02*
X89300000Y-77000000D01*
X89300000Y-77000000D02*
X88900000Y-77000000D01*
X88900000Y-77000000D02*
X88900000Y-75000000D01*
G36*
X88900000Y-75000000D02*
G01*
X89300000Y-75000000D01*
X89300000Y-77000000D01*
X88900000Y-77000000D01*
X88900000Y-75000000D01*
G37*
%TO.C,D5*%
X80710000Y-71900000D02*
X82910000Y-71900000D01*
X80710000Y-73900000D02*
X82910000Y-73900000D01*
X81810000Y-71900000D02*
X82210000Y-71900000D01*
X82210000Y-71900000D02*
X82210000Y-73900000D01*
X82210000Y-73900000D02*
X81810000Y-73900000D01*
X81810000Y-73900000D02*
X81810000Y-71900000D01*
G36*
X81810000Y-71900000D02*
G01*
X82210000Y-71900000D01*
X82210000Y-73900000D01*
X81810000Y-73900000D01*
X81810000Y-71900000D01*
G37*
D12*
%TO.C,J2*%
X56560000Y-68440000D02*
X56560000Y-69460000D01*
X52310000Y-68440000D02*
X56560000Y-68440000D01*
X56560000Y-69460000D02*
X54960000Y-69460000D01*
X54960000Y-69460000D02*
X54960000Y-70740000D01*
X48740000Y-70160000D02*
X48740000Y-74840000D01*
X54960000Y-70740000D02*
X57850000Y-70740000D01*
X56560000Y-75540000D02*
X54960000Y-75540000D01*
X54960000Y-75540000D02*
X54960000Y-74260000D01*
X56560000Y-76560000D02*
X56560000Y-75540000D01*
X52310000Y-76560000D02*
X56560000Y-76560000D01*
%TD*%
M02*
