%TF.GenerationSoftware,KiCad,Pcbnew,7.0.9*%
%TF.CreationDate,2024-02-03T21:53:43-08:00*%
%TF.ProjectId,Phorae_v1.0,50686f72-6165-45f7-9631-2e302e6b6963,rev?*%
%TF.SameCoordinates,Original*%
%TF.FileFunction,Copper,L1,Top*%
%TF.FilePolarity,Positive*%
%FSLAX46Y46*%
G04 Gerber Fmt 4.6, Leading zero omitted, Abs format (unit mm)*
G04 Created by KiCad (PCBNEW 7.0.9) date 2024-02-03 21:53:43*
%MOMM*%
%LPD*%
G01*
G04 APERTURE LIST*
G04 Aperture macros list*
%AMRoundRect*
0 Rectangle with rounded corners*
0 $1 Rounding radius*
0 $2 $3 $4 $5 $6 $7 $8 $9 X,Y pos of 4 corners*
0 Add a 4 corners polygon primitive as box body*
4,1,4,$2,$3,$4,$5,$6,$7,$8,$9,$2,$3,0*
0 Add four circle primitives for the rounded corners*
1,1,$1+$1,$2,$3*
1,1,$1+$1,$4,$5*
1,1,$1+$1,$6,$7*
1,1,$1+$1,$8,$9*
0 Add four rect primitives between the rounded corners*
20,1,$1+$1,$2,$3,$4,$5,0*
20,1,$1+$1,$4,$5,$6,$7,0*
20,1,$1+$1,$6,$7,$8,$9,0*
20,1,$1+$1,$8,$9,$2,$3,0*%
G04 Aperture macros list end*
%TA.AperFunction,SMDPad,CuDef*%
%ADD10RoundRect,0.150000X-0.150000X0.512500X-0.150000X-0.512500X0.150000X-0.512500X0.150000X0.512500X0*%
%TD*%
%TA.AperFunction,SMDPad,CuDef*%
%ADD11RoundRect,0.237500X0.300000X0.237500X-0.300000X0.237500X-0.300000X-0.237500X0.300000X-0.237500X0*%
%TD*%
%TA.AperFunction,SMDPad,CuDef*%
%ADD12RoundRect,0.175000X-0.175000X-0.175000X0.175000X-0.175000X0.175000X0.175000X-0.175000X0.175000X0*%
%TD*%
%TA.AperFunction,SMDPad,CuDef*%
%ADD13RoundRect,0.237500X0.237500X-0.300000X0.237500X0.300000X-0.237500X0.300000X-0.237500X-0.300000X0*%
%TD*%
%TA.AperFunction,ComponentPad*%
%ADD14R,1.700000X1.700000*%
%TD*%
%TA.AperFunction,ComponentPad*%
%ADD15O,1.700000X1.700000*%
%TD*%
%TA.AperFunction,SMDPad,CuDef*%
%ADD16RoundRect,0.237500X-0.237500X0.300000X-0.237500X-0.300000X0.237500X-0.300000X0.237500X0.300000X0*%
%TD*%
%TA.AperFunction,SMDPad,CuDef*%
%ADD17R,1.000000X1.600000*%
%TD*%
%TA.AperFunction,SMDPad,CuDef*%
%ADD18R,1.600000X0.550000*%
%TD*%
%TA.AperFunction,SMDPad,CuDef*%
%ADD19R,0.550000X1.600000*%
%TD*%
%TA.AperFunction,SMDPad,CuDef*%
%ADD20RoundRect,0.200000X-0.350000X-0.200000X0.350000X-0.200000X0.350000X0.200000X-0.350000X0.200000X0*%
%TD*%
%TA.AperFunction,SMDPad,CuDef*%
%ADD21RoundRect,0.150000X-0.425000X0.150000X-0.425000X-0.150000X0.425000X-0.150000X0.425000X0.150000X0*%
%TD*%
%TA.AperFunction,SMDPad,CuDef*%
%ADD22RoundRect,0.075000X-0.500000X0.075000X-0.500000X-0.075000X0.500000X-0.075000X0.500000X0.075000X0*%
%TD*%
%TA.AperFunction,SMDPad,CuDef*%
%ADD23RoundRect,0.250000X-0.750000X0.840000X-0.750000X-0.840000X0.750000X-0.840000X0.750000X0.840000X0*%
%TD*%
%TA.AperFunction,SMDPad,CuDef*%
%ADD24RoundRect,0.237500X-0.300000X-0.237500X0.300000X-0.237500X0.300000X0.237500X-0.300000X0.237500X0*%
%TD*%
%TA.AperFunction,SMDPad,CuDef*%
%ADD25RoundRect,0.250000X-1.500000X0.250000X-1.500000X-0.250000X1.500000X-0.250000X1.500000X0.250000X0*%
%TD*%
%TA.AperFunction,SMDPad,CuDef*%
%ADD26RoundRect,0.250001X-1.449999X0.499999X-1.449999X-0.499999X1.449999X-0.499999X1.449999X0.499999X0*%
%TD*%
%TA.AperFunction,ViaPad*%
%ADD27C,0.700000*%
%TD*%
%TA.AperFunction,ViaPad*%
%ADD28C,0.800000*%
%TD*%
%TA.AperFunction,Conductor*%
%ADD29C,0.750000*%
%TD*%
%TA.AperFunction,Conductor*%
%ADD30C,0.300000*%
%TD*%
%TA.AperFunction,Conductor*%
%ADD31C,0.500000*%
%TD*%
%TA.AperFunction,Conductor*%
%ADD32C,0.250000*%
%TD*%
G04 APERTURE END LIST*
D10*
%TO.P,U4,1,VIN*%
%TO.N,VCC*%
X72350000Y-75662500D03*
%TO.P,U4,2,GND*%
%TO.N,GND*%
X71400000Y-75662500D03*
%TO.P,U4,3,EN*%
%TO.N,VCC*%
X70450000Y-75662500D03*
%TO.P,U4,4,NC*%
%TO.N,unconnected-(U4-NC-Pad4)*%
X70450000Y-77937500D03*
%TO.P,U4,5,VOUT*%
%TO.N,+3.3V*%
X72350000Y-77937500D03*
%TD*%
D11*
%TO.P,F1,1*%
%TO.N,+BATT*%
X61112500Y-69500000D03*
%TO.P,F1,2*%
%TO.N,Net-(J2-Pin_1)*%
X59387500Y-69500000D03*
%TD*%
D12*
%TO.P,D15,1,VDD*%
%TO.N,VCC*%
X87985000Y-79650000D03*
%TO.P,D15,2,DOUT*%
%TO.N,unconnected-(D15-DOUT-Pad2)*%
X89815000Y-79650000D03*
%TO.P,D15,3,VSS*%
%TO.N,GND*%
X89815000Y-78550000D03*
%TO.P,D15,4,DIN*%
%TO.N,Net-(D14-DOUT)*%
X87985000Y-78550000D03*
%TD*%
D13*
%TO.P,R1,1*%
%TO.N,Net-(J1-CC1)*%
X53000000Y-81862500D03*
%TO.P,R1,2*%
%TO.N,GND*%
X53000000Y-80137500D03*
%TD*%
D14*
%TO.P,J4,1,Pin_1*%
%TO.N,MOSI*%
X68670000Y-100290000D03*
D15*
%TO.P,J4,2,Pin_2*%
%TO.N,Net-(J4-Pin_2)*%
X68670000Y-97750000D03*
%TO.P,J4,3,Pin_3*%
%TO.N,MISO*%
X71210000Y-100290000D03*
%TO.P,J4,4,Pin_4*%
%TO.N,Net-(J4-Pin_4)*%
X71210000Y-97750000D03*
%TO.P,J4,5,Pin_5*%
%TO.N,SCK*%
X73750000Y-100290000D03*
%TO.P,J4,6,Pin_6*%
%TO.N,Net-(J4-Pin_6)*%
X73750000Y-97750000D03*
%TO.P,J4,7,Pin_7*%
%TO.N,unconnected-(J4-Pin_7-Pad7)*%
X76290000Y-100290000D03*
%TO.P,J4,8,Pin_8*%
%TO.N,Net-(J4-Pin_8)*%
X76290000Y-97750000D03*
%TO.P,J4,9,Pin_9*%
%TO.N,PROG*%
X78830000Y-100290000D03*
%TO.P,J4,10,Pin_10*%
%TO.N,Net-(J4-Pin_10)*%
X78830000Y-97750000D03*
%TO.P,J4,11,Pin_11*%
%TO.N,unconnected-(J4-Pin_11-Pad11)*%
X81370000Y-100290000D03*
%TO.P,J4,12,Pin_12*%
%TO.N,Net-(J4-Pin_12)*%
X81370000Y-97750000D03*
%TO.P,J4,13,Pin_13*%
%TO.N,+BATT*%
X83910000Y-100290000D03*
%TO.P,J4,14,Pin_14*%
%TO.N,VBUS*%
X83910000Y-97750000D03*
%TO.P,J4,15,Pin_15*%
%TO.N,+BATT*%
X86450000Y-100290000D03*
%TO.P,J4,16,Pin_16*%
%TO.N,VBUS*%
X86450000Y-97750000D03*
%TO.P,J4,17,Pin_17*%
%TO.N,+3.3V*%
X88990000Y-100290000D03*
%TO.P,J4,18,Pin_18*%
%TO.N,GND*%
X88990000Y-97750000D03*
%TO.P,J4,19,Pin_19*%
%TO.N,+3.3V*%
X91530000Y-100290000D03*
%TO.P,J4,20,Pin_20*%
%TO.N,GND*%
X91530000Y-97750000D03*
%TD*%
D13*
%TO.P,C2,1*%
%TO.N,VBUS*%
X51200000Y-81862500D03*
%TO.P,C2,2*%
%TO.N,GND*%
X51200000Y-80137500D03*
%TD*%
D12*
%TO.P,D2,1,VDD*%
%TO.N,VCC*%
X77395000Y-73450000D03*
%TO.P,D2,2,DOUT*%
%TO.N,Net-(D2-DOUT)*%
X79225000Y-73450000D03*
%TO.P,D2,3,VSS*%
%TO.N,GND*%
X79225000Y-72350000D03*
%TO.P,D2,4,DIN*%
%TO.N,Net-(D1-DOUT)*%
X77395000Y-72350000D03*
%TD*%
D16*
%TO.P,R2,1*%
%TO.N,Net-(J1-CC2)*%
X51300000Y-88737500D03*
%TO.P,R2,2*%
%TO.N,GND*%
X51300000Y-90462500D03*
%TD*%
D11*
%TO.P,C1,1*%
%TO.N,+BATT*%
X61112500Y-72500000D03*
%TO.P,C1,2*%
%TO.N,GND*%
X59387500Y-72500000D03*
%TD*%
D16*
%TO.P,C4,1*%
%TO.N,+3.3V*%
X76000000Y-84137500D03*
%TO.P,C4,2*%
%TO.N,GND*%
X76000000Y-85862500D03*
%TD*%
D12*
%TO.P,D13,1,VDD*%
%TO.N,VCC*%
X87985000Y-73450000D03*
%TO.P,D13,2,DOUT*%
%TO.N,Net-(D13-DOUT)*%
X89815000Y-73450000D03*
%TO.P,D13,3,VSS*%
%TO.N,GND*%
X89815000Y-72350000D03*
%TO.P,D13,4,DIN*%
%TO.N,Net-(D12-DOUT)*%
X87985000Y-72350000D03*
%TD*%
%TO.P,D6,1,VDD*%
%TO.N,VCC*%
X80895000Y-76550000D03*
%TO.P,D6,2,DOUT*%
%TO.N,Net-(D6-DOUT)*%
X82725000Y-76550000D03*
%TO.P,D6,3,VSS*%
%TO.N,GND*%
X82725000Y-75450000D03*
%TO.P,D6,4,DIN*%
%TO.N,Net-(D5-DOUT)*%
X80895000Y-75450000D03*
%TD*%
%TO.P,D8,1,VDD*%
%TO.N,VCC*%
X84495000Y-70350000D03*
%TO.P,D8,2,DOUT*%
%TO.N,Net-(D8-DOUT)*%
X86325000Y-70350000D03*
%TO.P,D8,3,VSS*%
%TO.N,GND*%
X86325000Y-69250000D03*
%TO.P,D8,4,DIN*%
%TO.N,Net-(D7-DOUT)*%
X84495000Y-69250000D03*
%TD*%
D17*
%TO.P,SW1,1,A*%
%TO.N,unconnected-(SW1A-A-Pad1)*%
X65750000Y-68750000D03*
%TO.P,SW1,2,B*%
%TO.N,+BATT*%
X68250000Y-68750000D03*
%TO.P,SW1,3,C*%
%TO.N,VCC*%
X70750000Y-68750000D03*
%TO.P,SW1,4,A*%
%TO.N,unconnected-(SW1B-A-Pad4)*%
X65750000Y-71150000D03*
%TO.P,SW1,5,B*%
%TO.N,+BATT*%
X68250000Y-71150000D03*
%TO.P,SW1,6,C*%
%TO.N,VCC*%
X70750000Y-71150000D03*
%TD*%
D12*
%TO.P,D11,1,VDD*%
%TO.N,VCC*%
X84455000Y-79650000D03*
%TO.P,D11,2,DOUT*%
%TO.N,Net-(D11-DOUT)*%
X86285000Y-79650000D03*
%TO.P,D11,3,VSS*%
%TO.N,GND*%
X86285000Y-78550000D03*
%TO.P,D11,4,DIN*%
%TO.N,Net-(D10-DOUT)*%
X84455000Y-78550000D03*
%TD*%
D18*
%TO.P,U1,1,PA00*%
%TO.N,Net-(J4-Pin_2)*%
X66150000Y-89000000D03*
%TO.P,U1,2,PA01*%
%TO.N,Net-(J4-Pin_4)*%
X66150000Y-88200000D03*
%TO.P,U1,3,PA02*%
%TO.N,Net-(J4-Pin_6)*%
X66150000Y-87400000D03*
%TO.P,U1,4,PA03*%
%TO.N,Net-(J4-Pin_8)*%
X66150000Y-86600000D03*
%TO.P,U1,5,PA04*%
%TO.N,Net-(J4-Pin_10)*%
X66150000Y-85800000D03*
%TO.P,U1,6,PA05*%
%TO.N,Net-(J4-Pin_12)*%
X66150000Y-85000000D03*
%TO.P,U1,7,PA06*%
%TO.N,MOSI*%
X66150000Y-84200000D03*
%TO.P,U1,8,PA07*%
%TO.N,SCK*%
X66150000Y-83400000D03*
D19*
%TO.P,U1,9,VDDANA*%
%TO.N,+3.3V*%
X64700000Y-81950000D03*
%TO.P,U1,10,GND*%
%TO.N,GND*%
X63900000Y-81950000D03*
%TO.P,U1,11,PA08*%
%TO.N,CS*%
X63100000Y-81950000D03*
%TO.P,U1,12,PA09*%
%TO.N,MISO*%
X62300000Y-81950000D03*
%TO.P,U1,13,PA10*%
%TO.N,CE*%
X61500000Y-81950000D03*
%TO.P,U1,14,PA11*%
%TO.N,unconnected-(U1-PA11-Pad14)*%
X60700000Y-81950000D03*
%TO.P,U1,15,PA14*%
%TO.N,unconnected-(U1-PA14-Pad15)*%
X59900000Y-81950000D03*
%TO.P,U1,16,PA15*%
%TO.N,unconnected-(U1-PA15-Pad16)*%
X59100000Y-81950000D03*
D18*
%TO.P,U1,17,PA16*%
%TO.N,unconnected-(U1-PA16-Pad17)*%
X57650000Y-83400000D03*
%TO.P,U1,18,PA17*%
%TO.N,unconnected-(U1-PA17-Pad18)*%
X57650000Y-84200000D03*
%TO.P,U1,19,PA18*%
%TO.N,PROG*%
X57650000Y-85000000D03*
%TO.P,U1,20,PA19*%
%TO.N,LED_D*%
X57650000Y-85800000D03*
%TO.P,U1,21,PA22*%
%TO.N,unconnected-(U1-PA22-Pad21)*%
X57650000Y-86600000D03*
%TO.P,U1,22,PA23*%
%TO.N,unconnected-(U1-PA23-Pad22)*%
X57650000Y-87400000D03*
%TO.P,U1,23,PA24*%
%TO.N,D-*%
X57650000Y-88200000D03*
%TO.P,U1,24,PA25*%
%TO.N,D+*%
X57650000Y-89000000D03*
D19*
%TO.P,U1,25,PA27*%
%TO.N,unconnected-(U1-PA27-Pad25)*%
X59100000Y-90450000D03*
%TO.P,U1,26,~{RESET}*%
%TO.N,Net-(J3-Pin_10)*%
X59900000Y-90450000D03*
%TO.P,U1,27,PA28*%
%TO.N,unconnected-(U1-PA28-Pad27)*%
X60700000Y-90450000D03*
%TO.P,U1,28,GND*%
%TO.N,GND*%
X61500000Y-90450000D03*
%TO.P,U1,29,VDDCORE*%
%TO.N,Net-(U1-VDDCORE)*%
X62300000Y-90450000D03*
%TO.P,U1,30,VDDIN*%
%TO.N,+3.3V*%
X63100000Y-90450000D03*
%TO.P,U1,31,PA30*%
%TO.N,Net-(J3-Pin_4)*%
X63900000Y-90450000D03*
%TO.P,U1,32,PA31*%
%TO.N,Net-(J3-Pin_2)*%
X64700000Y-90450000D03*
%TD*%
D12*
%TO.P,D16,1,VDD*%
%TO.N,VCC*%
X77395000Y-79650000D03*
%TO.P,D16,2,DOUT*%
%TO.N,Net-(D16-DOUT)*%
X79225000Y-79650000D03*
%TO.P,D16,3,VSS*%
%TO.N,GND*%
X79225000Y-78550000D03*
%TO.P,D16,4,DIN*%
%TO.N,Net-(D16-DIN)*%
X77395000Y-78550000D03*
%TD*%
D10*
%TO.P,U3,1,STAT*%
%TO.N,Net-(U3-STAT)*%
X63200000Y-74612500D03*
%TO.P,U3,2,V_{SS}*%
%TO.N,GND*%
X62250000Y-74612500D03*
%TO.P,U3,3,V_{BAT}*%
%TO.N,+BATT*%
X61300000Y-74612500D03*
%TO.P,U3,4,V_{DD}*%
%TO.N,VBUS*%
X61300000Y-76887500D03*
%TO.P,U3,5,PROG*%
%TO.N,PROG*%
X63200000Y-76887500D03*
%TD*%
D20*
%TO.P,U2,1,GND*%
%TO.N,GND*%
X78700000Y-85825000D03*
%TO.P,U2,2,VCC*%
%TO.N,+3.3V*%
X78700000Y-84555000D03*
%TO.P,U2,3,CE*%
%TO.N,CE*%
X78700000Y-87095000D03*
%TO.P,U2,4,~{CSN}*%
%TO.N,CS*%
X78700000Y-88365000D03*
%TO.P,U2,5,SCK*%
%TO.N,SCK*%
X78700000Y-89635000D03*
%TO.P,U2,6,MOSI*%
%TO.N,MOSI*%
X78700000Y-90905000D03*
%TO.P,U2,7,MISO*%
%TO.N,MISO*%
X78700000Y-92175000D03*
%TO.P,U2,8,IRQ*%
%TO.N,unconnected-(U2-IRQ-Pad8)*%
X78700000Y-93445000D03*
%TD*%
D13*
%TO.P,R3,1*%
%TO.N,GND*%
X66250000Y-76362500D03*
%TO.P,R3,2*%
%TO.N,Net-(U3-STAT)*%
X66250000Y-74637500D03*
%TD*%
D12*
%TO.P,D4,1,VDD*%
%TO.N,VCC*%
X80895000Y-70350000D03*
%TO.P,D4,2,DOUT*%
%TO.N,Net-(D4-DOUT)*%
X82725000Y-70350000D03*
%TO.P,D4,3,VSS*%
%TO.N,GND*%
X82725000Y-69250000D03*
%TO.P,D4,4,DIN*%
%TO.N,Net-(D16-DOUT)*%
X80895000Y-69250000D03*
%TD*%
D21*
%TO.P,J1,A1,GND*%
%TO.N,GND*%
X47680000Y-82800000D03*
%TO.P,J1,A4,VBUS*%
%TO.N,VBUS*%
X47680000Y-83600000D03*
D22*
%TO.P,J1,A5,CC1*%
%TO.N,Net-(J1-CC1)*%
X47680000Y-84750000D03*
%TO.P,J1,A6,D+*%
%TO.N,D+*%
X47680000Y-85750000D03*
%TO.P,J1,A7,D-*%
%TO.N,D-*%
X47680000Y-86250000D03*
%TO.P,J1,A8,SBU1*%
%TO.N,unconnected-(J1-SBU1-PadA8)*%
X47680000Y-87250000D03*
D21*
%TO.P,J1,A9,VBUS*%
%TO.N,VBUS*%
X47680000Y-88400000D03*
%TO.P,J1,A12,GND*%
%TO.N,GND*%
X47680000Y-89200000D03*
%TO.P,J1,B1,GND*%
X47680000Y-89200000D03*
%TO.P,J1,B4,VBUS*%
%TO.N,VBUS*%
X47680000Y-88400000D03*
D22*
%TO.P,J1,B5,CC2*%
%TO.N,Net-(J1-CC2)*%
X47680000Y-87750000D03*
%TO.P,J1,B6,D+*%
%TO.N,D+*%
X47680000Y-86750000D03*
%TO.P,J1,B7,D-*%
%TO.N,D-*%
X47680000Y-85250000D03*
%TO.P,J1,B8,SBU2*%
%TO.N,unconnected-(J1-SBU2-PadB8)*%
X47680000Y-84250000D03*
D21*
%TO.P,J1,B9,VBUS*%
%TO.N,VBUS*%
X47680000Y-83600000D03*
%TO.P,J1,B12,GND*%
%TO.N,GND*%
X47680000Y-82800000D03*
D23*
%TO.P,J1,S1,SHIELD*%
X47105000Y-80890000D03*
X43175000Y-80890000D03*
X47105000Y-91110000D03*
X43175000Y-91110000D03*
%TD*%
D12*
%TO.P,D3,1,VDD*%
%TO.N,VCC*%
X77395000Y-76550000D03*
%TO.P,D3,2,DOUT*%
%TO.N,Net-(D16-DIN)*%
X79225000Y-76550000D03*
%TO.P,D3,3,VSS*%
%TO.N,GND*%
X79225000Y-75450000D03*
%TO.P,D3,4,DIN*%
%TO.N,Net-(D2-DOUT)*%
X77395000Y-75450000D03*
%TD*%
D24*
%TO.P,C8,1*%
%TO.N,VCC*%
X70537500Y-73600000D03*
%TO.P,C8,2*%
%TO.N,GND*%
X72262500Y-73600000D03*
%TD*%
D11*
%TO.P,C3,1*%
%TO.N,+3.3V*%
X72262500Y-80200000D03*
%TO.P,C3,2*%
%TO.N,GND*%
X70537500Y-80200000D03*
%TD*%
D12*
%TO.P,D1,1,VDD*%
%TO.N,VCC*%
X77395000Y-70350000D03*
%TO.P,D1,2,DOUT*%
%TO.N,Net-(D1-DOUT)*%
X79225000Y-70350000D03*
%TO.P,D1,3,VSS*%
%TO.N,GND*%
X79225000Y-69250000D03*
%TO.P,D1,4,DIN*%
%TO.N,LED_D*%
X77395000Y-69250000D03*
%TD*%
D24*
%TO.P,C5,1*%
%TO.N,GND*%
X59737500Y-94000000D03*
%TO.P,C5,2*%
%TO.N,Net-(U1-VDDCORE)*%
X61462500Y-94000000D03*
%TD*%
D12*
%TO.P,D10,1,VDD*%
%TO.N,VCC*%
X84455000Y-76550000D03*
%TO.P,D10,2,DOUT*%
%TO.N,Net-(D10-DOUT)*%
X86285000Y-76550000D03*
%TO.P,D10,3,VSS*%
%TO.N,GND*%
X86285000Y-75450000D03*
%TO.P,D10,4,DIN*%
%TO.N,Net-(D10-DIN)*%
X84455000Y-75450000D03*
%TD*%
D14*
%TO.P,J3,1,Pin_1*%
%TO.N,+3.3V*%
X50920000Y-100290000D03*
D15*
%TO.P,J3,2,Pin_2*%
%TO.N,Net-(J3-Pin_2)*%
X50920000Y-97750000D03*
%TO.P,J3,3,Pin_3*%
%TO.N,GND*%
X53460000Y-100290000D03*
%TO.P,J3,4,Pin_4*%
%TO.N,Net-(J3-Pin_4)*%
X53460000Y-97750000D03*
%TO.P,J3,5,Pin_5*%
%TO.N,GND*%
X56000000Y-100290000D03*
%TO.P,J3,6,Pin_6*%
%TO.N,unconnected-(J3-Pin_6-Pad6)*%
X56000000Y-97750000D03*
%TO.P,J3,7,Pin_7*%
%TO.N,unconnected-(J3-Pin_7-Pad7)*%
X58540000Y-100290000D03*
%TO.P,J3,8,Pin_8*%
%TO.N,unconnected-(J3-Pin_8-Pad8)*%
X58540000Y-97750000D03*
%TO.P,J3,9,Pin_9*%
%TO.N,GND*%
X61080000Y-100290000D03*
%TO.P,J3,10,Pin_10*%
%TO.N,Net-(J3-Pin_10)*%
X61080000Y-97750000D03*
%TD*%
D12*
%TO.P,D12,1,VDD*%
%TO.N,VCC*%
X87995000Y-70350000D03*
%TO.P,D12,2,DOUT*%
%TO.N,Net-(D12-DOUT)*%
X89825000Y-70350000D03*
%TO.P,D12,3,VSS*%
%TO.N,GND*%
X89825000Y-69250000D03*
%TO.P,D12,4,DIN*%
%TO.N,Net-(D11-DOUT)*%
X87995000Y-69250000D03*
%TD*%
D24*
%TO.P,C6,1*%
%TO.N,+3.3V*%
X63437500Y-93950000D03*
%TO.P,C6,2*%
%TO.N,GND*%
X65162500Y-93950000D03*
%TD*%
D12*
%TO.P,D9,1,VDD*%
%TO.N,VCC*%
X84455000Y-73450000D03*
%TO.P,D9,2,DOUT*%
%TO.N,Net-(D10-DIN)*%
X86285000Y-73450000D03*
%TO.P,D9,3,VSS*%
%TO.N,GND*%
X86285000Y-72350000D03*
%TO.P,D9,4,DIN*%
%TO.N,Net-(D8-DOUT)*%
X84455000Y-72350000D03*
%TD*%
%TO.P,D7,1,VDD*%
%TO.N,VCC*%
X80910000Y-79600000D03*
%TO.P,D7,2,DOUT*%
%TO.N,Net-(D7-DOUT)*%
X82740000Y-79600000D03*
%TO.P,D7,3,VSS*%
%TO.N,GND*%
X82740000Y-78500000D03*
%TO.P,D7,4,DIN*%
%TO.N,Net-(D6-DOUT)*%
X80910000Y-78500000D03*
%TD*%
%TO.P,D14,1,VDD*%
%TO.N,VCC*%
X87985000Y-76550000D03*
%TO.P,D14,2,DOUT*%
%TO.N,Net-(D14-DOUT)*%
X89815000Y-76550000D03*
%TO.P,D14,3,VSS*%
%TO.N,GND*%
X89815000Y-75450000D03*
%TO.P,D14,4,DIN*%
%TO.N,Net-(D13-DOUT)*%
X87985000Y-75450000D03*
%TD*%
%TO.P,D5,1,VDD*%
%TO.N,VCC*%
X80895000Y-73450000D03*
%TO.P,D5,2,DOUT*%
%TO.N,Net-(D5-DOUT)*%
X82725000Y-73450000D03*
%TO.P,D5,3,VSS*%
%TO.N,GND*%
X82725000Y-72350000D03*
%TO.P,D5,4,DIN*%
%TO.N,Net-(D4-DOUT)*%
X80895000Y-72350000D03*
%TD*%
D25*
%TO.P,J2,1,Pin_1*%
%TO.N,Net-(J2-Pin_1)*%
X56100000Y-71500000D03*
%TO.P,J2,2,Pin_2*%
%TO.N,GND*%
X56100000Y-73500000D03*
D26*
%TO.P,J2,MP*%
%TO.N,N/C*%
X50350000Y-69150000D03*
X50350000Y-75850000D03*
%TD*%
D27*
%TO.N,VCC*%
X74750000Y-75750000D03*
X83750000Y-80500000D03*
X84309500Y-74500000D03*
X84309500Y-77650500D03*
X80809500Y-71250000D03*
D28*
X75500000Y-72500000D03*
D27*
X77250000Y-71250000D03*
D28*
X74000000Y-71250000D03*
D27*
X77653721Y-80596279D03*
X87250000Y-80500000D03*
X88000000Y-77500000D03*
X80985378Y-74485378D03*
X87909500Y-74500000D03*
X80500000Y-80500000D03*
X84500000Y-71250000D03*
D28*
X74000000Y-72500000D03*
D27*
X88000000Y-71250000D03*
X77250000Y-74500000D03*
D28*
X75500000Y-71250000D03*
D27*
X80809500Y-77500000D03*
X77250000Y-77500000D03*
%TO.N,LED_D*%
X75750000Y-69250000D03*
X56250000Y-85750000D03*
%TO.N,GND*%
X79410500Y-74500000D03*
X79250000Y-77500000D03*
X47750000Y-78750000D03*
X57250000Y-75000000D03*
X74250000Y-74250000D03*
X82750000Y-71500000D03*
X86250000Y-77500000D03*
X89750000Y-77500000D03*
X79210000Y-68400000D03*
X86250000Y-71500000D03*
D28*
X63000000Y-73000000D03*
D27*
X89750000Y-71500000D03*
X66250000Y-77750000D03*
X61500000Y-91900000D03*
X53250000Y-90500000D03*
X69000000Y-79500000D03*
X46500000Y-78750000D03*
X89750000Y-74500000D03*
X54500000Y-80250000D03*
X58250000Y-75000000D03*
X57250000Y-76000000D03*
X79250000Y-71500000D03*
X46250000Y-93250000D03*
X63900000Y-80500000D03*
X74500000Y-85000000D03*
X66750000Y-94000000D03*
X59500000Y-74000000D03*
X89810000Y-68300000D03*
X48000000Y-93250000D03*
X82750000Y-74500000D03*
X86250000Y-74500000D03*
X86310000Y-68300000D03*
X82750000Y-77500000D03*
X58250000Y-76000000D03*
X82710000Y-68400000D03*
%TO.N,VBUS*%
X60187500Y-78000000D03*
%TO.N,+3.3V*%
X72250000Y-82000000D03*
X63400000Y-95250000D03*
X76000000Y-82750000D03*
%TO.N,Net-(J3-Pin_2)*%
X64750000Y-92500000D03*
%TO.N,Net-(J3-Pin_4)*%
X56000000Y-94250000D03*
X64000000Y-92000000D03*
%TO.N,MOSI*%
X80000000Y-91000000D03*
%TO.N,MISO*%
X77000000Y-92250000D03*
X62300000Y-80250000D03*
X80000000Y-92250000D03*
%TO.N,SCK*%
X80000000Y-89750000D03*
%TO.N,PROG*%
X64500000Y-77500000D03*
%TO.N,+BATT*%
X68000000Y-73750000D03*
%TD*%
D29*
%TO.N,VCC*%
X74662500Y-75662500D02*
X72350000Y-75662500D01*
D30*
X80895000Y-76550000D02*
X80895000Y-77414500D01*
X87985000Y-77485000D02*
X88000000Y-77500000D01*
D29*
X74750000Y-75750000D02*
X74662500Y-75662500D01*
D30*
X87985000Y-74424500D02*
X87909500Y-74500000D01*
X84495000Y-71245000D02*
X84500000Y-71250000D01*
X87250000Y-80500000D02*
X87985000Y-79765000D01*
D29*
X75500000Y-71250000D02*
X75500000Y-72500000D01*
D30*
X80895000Y-77414500D02*
X80809500Y-77500000D01*
D29*
X70750000Y-68750000D02*
X70750000Y-71150000D01*
D30*
X80895000Y-74395000D02*
X80985378Y-74485378D01*
X84455000Y-73450000D02*
X84455000Y-74354500D01*
D29*
X70750000Y-71150000D02*
X73900000Y-71150000D01*
D30*
X84455000Y-79795000D02*
X84455000Y-79650000D01*
X84495000Y-70350000D02*
X84495000Y-71245000D01*
D29*
X74000000Y-71250000D02*
X74000000Y-72500000D01*
X70537500Y-71362500D02*
X70750000Y-71150000D01*
D30*
X80895000Y-70350000D02*
X80895000Y-71164500D01*
X80895000Y-71164500D02*
X80809500Y-71250000D01*
X87985000Y-73450000D02*
X87985000Y-74424500D01*
X84455000Y-74354500D02*
X84309500Y-74500000D01*
X77395000Y-74355000D02*
X77250000Y-74500000D01*
X77395000Y-80337558D02*
X77395000Y-79650000D01*
X87995000Y-70350000D02*
X87995000Y-71245000D01*
X80895000Y-73450000D02*
X80895000Y-74395000D01*
X80500000Y-80500000D02*
X80910000Y-80090000D01*
X77395000Y-73450000D02*
X77395000Y-74355000D01*
X84455000Y-77505000D02*
X84309500Y-77650500D01*
X77395000Y-77355000D02*
X77250000Y-77500000D01*
X77395000Y-76550000D02*
X77395000Y-77355000D01*
X87995000Y-71245000D02*
X88000000Y-71250000D01*
X83750000Y-80500000D02*
X84455000Y-79795000D01*
X77395000Y-70350000D02*
X77395000Y-71105000D01*
D29*
X73900000Y-71150000D02*
X74000000Y-71250000D01*
D30*
X77653721Y-80596279D02*
X77395000Y-80337558D01*
X80910000Y-80090000D02*
X80910000Y-79600000D01*
X87985000Y-76550000D02*
X87985000Y-77485000D01*
X77395000Y-71105000D02*
X77250000Y-71250000D01*
D29*
X70537500Y-73600000D02*
X70537500Y-71362500D01*
X74000000Y-72500000D02*
X75500000Y-72500000D01*
X70450000Y-75662500D02*
X70450000Y-73687500D01*
X74000000Y-71250000D02*
X75500000Y-71250000D01*
D30*
X84455000Y-76550000D02*
X84455000Y-77505000D01*
D29*
X70450000Y-73687500D02*
X70537500Y-73600000D01*
D30*
X87985000Y-79765000D02*
X87985000Y-79650000D01*
%TO.N,Net-(D1-DOUT)*%
X78310000Y-71500000D02*
X77460000Y-72350000D01*
X77460000Y-72350000D02*
X77395000Y-72350000D01*
X78310000Y-71200000D02*
X78310000Y-71500000D01*
X79225000Y-70350000D02*
X79160000Y-70350000D01*
X79160000Y-70350000D02*
X78310000Y-71200000D01*
%TO.N,LED_D*%
X75750000Y-69250000D02*
X77395000Y-69250000D01*
X57650000Y-85800000D02*
X56300000Y-85800000D01*
X56300000Y-85800000D02*
X56250000Y-85750000D01*
%TO.N,Net-(D2-DOUT)*%
X78285000Y-74625000D02*
X77435000Y-75475000D01*
X78285000Y-74325000D02*
X78285000Y-74625000D01*
X79135000Y-73475000D02*
X78285000Y-74325000D01*
%TO.N,GND*%
X51200000Y-80137500D02*
X53000000Y-80137500D01*
X66700000Y-93950000D02*
X66750000Y-94000000D01*
D29*
X73600000Y-73600000D02*
X74250000Y-74250000D01*
D30*
X89825000Y-69250000D02*
X89825000Y-68315000D01*
X89815000Y-74565000D02*
X89750000Y-74500000D01*
D31*
X47680000Y-82800000D02*
X47680000Y-81465000D01*
D30*
X89815000Y-77565000D02*
X89750000Y-77500000D01*
X59387500Y-74112500D02*
X59500000Y-74000000D01*
X86285000Y-78550000D02*
X86285000Y-77535000D01*
X89815000Y-78550000D02*
X89815000Y-77565000D01*
X65162500Y-93950000D02*
X66700000Y-93950000D01*
X79225000Y-71525000D02*
X79250000Y-71500000D01*
D31*
X76037500Y-85825000D02*
X76000000Y-85862500D01*
D29*
X57250000Y-76000000D02*
X58250000Y-76000000D01*
D30*
X82725000Y-71525000D02*
X82750000Y-71500000D01*
X86285000Y-75450000D02*
X86285000Y-74535000D01*
D29*
X43175000Y-79575000D02*
X44000000Y-78750000D01*
D31*
X47105000Y-79355000D02*
X46500000Y-78750000D01*
D29*
X44000000Y-78750000D02*
X46500000Y-78750000D01*
D30*
X86285000Y-74535000D02*
X86250000Y-74500000D01*
X53212500Y-90462500D02*
X53250000Y-90500000D01*
D31*
X47680000Y-89200000D02*
X47680000Y-90535000D01*
D30*
X86285000Y-77535000D02*
X86250000Y-77500000D01*
X86325000Y-69250000D02*
X86325000Y-68315000D01*
X61500000Y-90450000D02*
X61500000Y-91900000D01*
D31*
X47105000Y-91110000D02*
X47105000Y-92395000D01*
D30*
X82725000Y-74525000D02*
X82750000Y-74500000D01*
X86285000Y-71535000D02*
X86250000Y-71500000D01*
X89825000Y-68315000D02*
X89810000Y-68300000D01*
X89815000Y-71565000D02*
X89750000Y-71500000D01*
D29*
X43750000Y-93250000D02*
X46250000Y-93250000D01*
D30*
X82725000Y-69250000D02*
X82725000Y-68415000D01*
D31*
X75362500Y-85862500D02*
X74500000Y-85000000D01*
D30*
X79225000Y-72350000D02*
X79225000Y-71525000D01*
X63900000Y-81950000D02*
X63900000Y-80500000D01*
X79225000Y-74685500D02*
X79410500Y-74500000D01*
D29*
X62250000Y-74612500D02*
X62250000Y-73750000D01*
D30*
X69700000Y-80200000D02*
X69000000Y-79500000D01*
X53000000Y-80137500D02*
X54387500Y-80137500D01*
X86285000Y-72350000D02*
X86285000Y-71535000D01*
X79225000Y-75450000D02*
X79225000Y-74685500D01*
D31*
X47105000Y-80890000D02*
X47105000Y-79355000D01*
D30*
X82740000Y-78500000D02*
X82740000Y-77510000D01*
D31*
X47105000Y-79395000D02*
X47750000Y-78750000D01*
D30*
X79225000Y-68415000D02*
X79210000Y-68400000D01*
X59387500Y-73887500D02*
X59500000Y-74000000D01*
D31*
X47105000Y-80890000D02*
X47105000Y-79395000D01*
X76000000Y-85862500D02*
X75362500Y-85862500D01*
D30*
X70537500Y-80200000D02*
X69700000Y-80200000D01*
D29*
X71400000Y-75662500D02*
X71400000Y-74462500D01*
X43175000Y-92675000D02*
X43750000Y-93250000D01*
D31*
X47105000Y-92355000D02*
X48000000Y-93250000D01*
D29*
X43175000Y-80890000D02*
X43175000Y-79575000D01*
D30*
X66250000Y-76362500D02*
X66250000Y-77750000D01*
X86325000Y-68315000D02*
X86310000Y-68300000D01*
X59737500Y-93662500D02*
X59737500Y-94000000D01*
X79225000Y-69250000D02*
X79225000Y-68415000D01*
D31*
X47105000Y-91110000D02*
X47105000Y-92355000D01*
D30*
X82725000Y-75450000D02*
X82725000Y-74525000D01*
D29*
X56100000Y-73500000D02*
X56100000Y-73850000D01*
D30*
X54387500Y-80137500D02*
X54500000Y-80250000D01*
D31*
X47105000Y-92395000D02*
X46250000Y-93250000D01*
D30*
X89815000Y-75450000D02*
X89815000Y-74565000D01*
D29*
X57250000Y-75000000D02*
X57250000Y-76000000D01*
D30*
X59387500Y-72500000D02*
X59387500Y-73887500D01*
D29*
X57250000Y-75000000D02*
X58250000Y-75000000D01*
D30*
X82725000Y-68415000D02*
X82710000Y-68400000D01*
X82725000Y-72350000D02*
X82725000Y-71525000D01*
X51300000Y-90462500D02*
X53212500Y-90462500D01*
X61500000Y-91900000D02*
X59737500Y-93662500D01*
D29*
X56100000Y-73850000D02*
X57250000Y-75000000D01*
X62250000Y-73750000D02*
X63000000Y-73000000D01*
D30*
X79225000Y-77525000D02*
X79250000Y-77500000D01*
D31*
X78700000Y-85825000D02*
X76037500Y-85825000D01*
D30*
X82740000Y-77510000D02*
X82750000Y-77500000D01*
D29*
X43175000Y-91110000D02*
X43175000Y-92675000D01*
X72262500Y-73600000D02*
X73600000Y-73600000D01*
X71400000Y-74462500D02*
X72262500Y-73600000D01*
D31*
X47680000Y-90535000D02*
X47105000Y-91110000D01*
D30*
X89815000Y-72350000D02*
X89815000Y-71565000D01*
D31*
X47680000Y-81465000D02*
X47105000Y-80890000D01*
D29*
X58250000Y-76000000D02*
X58250000Y-75000000D01*
D30*
X79225000Y-78550000D02*
X79225000Y-77525000D01*
D32*
%TO.N,Net-(J1-CC1)*%
X50112500Y-84750000D02*
X53000000Y-81862500D01*
X47680000Y-84750000D02*
X50112500Y-84750000D01*
%TO.N,D+*%
X46780000Y-86492764D02*
X47037236Y-86750000D01*
X47037236Y-86750000D02*
X47680000Y-86750000D01*
X46780000Y-86007236D02*
X46780000Y-86492764D01*
X55600000Y-89000000D02*
X57650000Y-89000000D01*
X47680000Y-86750000D02*
X53350000Y-86750000D01*
X47037236Y-85750000D02*
X46780000Y-86007236D01*
X53350000Y-86750000D02*
X55600000Y-89000000D01*
X47680000Y-85750000D02*
X47037236Y-85750000D01*
%TO.N,D-*%
X48800000Y-85727236D02*
X48800000Y-86250000D01*
X55600000Y-88200000D02*
X57650000Y-88200000D01*
X53650000Y-86250000D02*
X55600000Y-88200000D01*
X47680000Y-86250000D02*
X48800000Y-86250000D01*
X48800000Y-86250000D02*
X53650000Y-86250000D01*
X48322764Y-85250000D02*
X48800000Y-85727236D01*
X47680000Y-85250000D02*
X48322764Y-85250000D01*
%TO.N,Net-(J1-CC2)*%
X47680000Y-87750000D02*
X50312500Y-87750000D01*
X50312500Y-87750000D02*
X51300000Y-88737500D01*
D29*
%TO.N,VBUS*%
X51200000Y-82050000D02*
X49650000Y-83600000D01*
X49650000Y-83600000D02*
X49600000Y-83600000D01*
X51100000Y-78000000D02*
X49600000Y-79500000D01*
D31*
X47680000Y-83600000D02*
X49000000Y-83600000D01*
D32*
X47104949Y-83600000D02*
X47680000Y-83600000D01*
X47680000Y-88400000D02*
X47104949Y-88400000D01*
X47104949Y-88400000D02*
X46330000Y-87625051D01*
X46330000Y-84374949D02*
X47104949Y-83600000D01*
D29*
X49600000Y-79500000D02*
X49600000Y-83600000D01*
X51200000Y-81862500D02*
X51200000Y-82050000D01*
D31*
X49000000Y-83600000D02*
X49250000Y-83600000D01*
D29*
X49600000Y-83600000D02*
X49000000Y-83600000D01*
X60187500Y-78000000D02*
X51100000Y-78000000D01*
X61300000Y-76887500D02*
X60187500Y-78000000D01*
D32*
X46330000Y-87625051D02*
X46330000Y-84374949D01*
D29*
%TO.N,Net-(J2-Pin_1)*%
X58100000Y-69500000D02*
X59387500Y-69500000D01*
X56100000Y-71500000D02*
X58100000Y-69500000D01*
D30*
%TO.N,+3.3V*%
X63100000Y-84675000D02*
X63100000Y-90450000D01*
X64700000Y-81950000D02*
X64700000Y-83075000D01*
X64700000Y-83075000D02*
X63100000Y-84675000D01*
D29*
X72350000Y-77937500D02*
X72350000Y-80112500D01*
D30*
X63100000Y-92362500D02*
X63100000Y-90450000D01*
D31*
X76417500Y-84555000D02*
X76000000Y-84137500D01*
X78700000Y-84555000D02*
X76417500Y-84555000D01*
X76000000Y-84137500D02*
X76000000Y-82750000D01*
D29*
X72350000Y-80112500D02*
X72262500Y-80200000D01*
D30*
X63400000Y-95250000D02*
X63437500Y-95212500D01*
X63437500Y-92700000D02*
X63100000Y-92362500D01*
D29*
X72262500Y-80200000D02*
X72262500Y-81987500D01*
X72262500Y-81987500D02*
X72250000Y-82000000D01*
D30*
X63437500Y-95212500D02*
X63437500Y-92700000D01*
%TO.N,Net-(J3-Pin_2)*%
X64700000Y-90450000D02*
X64700000Y-92450000D01*
X64700000Y-92450000D02*
X64750000Y-92500000D01*
%TO.N,Net-(J3-Pin_4)*%
X63900000Y-91900000D02*
X64000000Y-92000000D01*
X56000000Y-94250000D02*
X55000000Y-94250000D01*
X53460000Y-95790000D02*
X53460000Y-97750000D01*
X55000000Y-94250000D02*
X53460000Y-95790000D01*
X63900000Y-90450000D02*
X63900000Y-91900000D01*
%TO.N,Net-(J3-Pin_10)*%
X58750000Y-92931284D02*
X58750000Y-94750000D01*
X61080000Y-97080000D02*
X61080000Y-97750000D01*
X59900000Y-90450000D02*
X59900000Y-91781284D01*
X59900000Y-91781284D02*
X58750000Y-92931284D01*
X58750000Y-94750000D02*
X61080000Y-97080000D01*
%TO.N,MOSI*%
X66150000Y-84200000D02*
X68450000Y-84200000D01*
X75155000Y-90905000D02*
X78700000Y-90905000D01*
X78700000Y-90905000D02*
X79905000Y-90905000D01*
X79905000Y-90905000D02*
X80000000Y-91000000D01*
X68450000Y-84200000D02*
X75155000Y-90905000D01*
%TO.N,Net-(J4-Pin_2)*%
X66150000Y-89000000D02*
X67125000Y-89000000D01*
X68670000Y-90545000D02*
X68670000Y-97750000D01*
X67125000Y-89000000D02*
X68670000Y-90545000D01*
%TO.N,MISO*%
X62300000Y-80250000D02*
X62300000Y-81950000D01*
X79925000Y-92175000D02*
X80000000Y-92250000D01*
X77000000Y-92250000D02*
X78625000Y-92250000D01*
X78625000Y-92250000D02*
X78700000Y-92175000D01*
X78700000Y-92175000D02*
X79925000Y-92175000D01*
%TO.N,Net-(J4-Pin_4)*%
X66150000Y-88200000D02*
X67250000Y-88200000D01*
X67250000Y-88200000D02*
X71210000Y-92160000D01*
X71210000Y-92160000D02*
X71210000Y-97750000D01*
%TO.N,SCK*%
X79885000Y-89635000D02*
X80000000Y-89750000D01*
X66150000Y-83400000D02*
X68650000Y-83400000D01*
X68650000Y-83400000D02*
X74885000Y-89635000D01*
X78700000Y-89635000D02*
X79885000Y-89635000D01*
X74885000Y-89635000D02*
X78700000Y-89635000D01*
%TO.N,Net-(J4-Pin_6)*%
X67400000Y-87400000D02*
X73750000Y-93750000D01*
X66150000Y-87400000D02*
X67400000Y-87400000D01*
X73750000Y-93750000D02*
X73750000Y-97750000D01*
%TO.N,Net-(J4-Pin_8)*%
X76290000Y-95165000D02*
X76290000Y-97750000D01*
X66150000Y-86600000D02*
X67725000Y-86600000D01*
X67725000Y-86600000D02*
X76290000Y-95165000D01*
%TO.N,PROG*%
X56550000Y-85000000D02*
X56200000Y-84650000D01*
X57650000Y-85000000D02*
X56550000Y-85000000D01*
X57875000Y-78725000D02*
X61362500Y-78725000D01*
X61362500Y-78725000D02*
X63200000Y-76887500D01*
X56200000Y-80400000D02*
X57875000Y-78725000D01*
X63887500Y-76887500D02*
X64500000Y-77500000D01*
X63200000Y-76887500D02*
X63887500Y-76887500D01*
X56200000Y-84650000D02*
X56200000Y-80400000D01*
%TO.N,Net-(J4-Pin_10)*%
X78830000Y-96580000D02*
X78830000Y-97750000D01*
X68050000Y-85800000D02*
X78830000Y-96580000D01*
X66150000Y-85800000D02*
X68050000Y-85800000D01*
%TO.N,Net-(J4-Pin_12)*%
X80250000Y-94750000D02*
X81370000Y-95870000D01*
X81370000Y-95870000D02*
X81370000Y-97750000D01*
X66150000Y-85000000D02*
X68250000Y-85000000D01*
X68250000Y-85000000D02*
X78000000Y-94750000D01*
X78000000Y-94750000D02*
X80250000Y-94750000D01*
D29*
%TO.N,+BATT*%
X61300000Y-74612500D02*
X61300000Y-74112500D01*
X68250000Y-71150000D02*
X68250000Y-68750000D01*
X61112500Y-72500000D02*
X61362500Y-72750000D01*
X61112500Y-69500000D02*
X61112500Y-72500000D01*
X64750000Y-72750000D02*
X67500000Y-72750000D01*
X61862500Y-71750000D02*
X63750000Y-71750000D01*
X68000000Y-73250000D02*
X68000000Y-73750000D01*
X63750000Y-71750000D02*
X64750000Y-72750000D01*
X67500000Y-72750000D02*
X68000000Y-73250000D01*
X61112500Y-74425000D02*
X61300000Y-74612500D01*
X61112500Y-72500000D02*
X61112500Y-74425000D01*
X68250000Y-72000000D02*
X68250000Y-71150000D01*
X61112500Y-72500000D02*
X61862500Y-71750000D01*
X67500000Y-72750000D02*
X68250000Y-72000000D01*
D30*
%TO.N,CS*%
X63100000Y-80150000D02*
X63500000Y-79750000D01*
X74615000Y-88365000D02*
X78700000Y-88365000D01*
X66000000Y-79750000D02*
X74615000Y-88365000D01*
X63100000Y-81950000D02*
X63100000Y-80150000D01*
X63500000Y-79750000D02*
X66000000Y-79750000D01*
%TO.N,CE*%
X66500000Y-79250000D02*
X74345000Y-87095000D01*
X62000000Y-79250000D02*
X66500000Y-79250000D01*
X61500000Y-79750000D02*
X62000000Y-79250000D01*
X61500000Y-81950000D02*
X61500000Y-79750000D01*
X74345000Y-87095000D02*
X78700000Y-87095000D01*
%TO.N,Net-(U1-VDDCORE)*%
X62300000Y-90450000D02*
X62300000Y-92089950D01*
X61462500Y-92927450D02*
X61462500Y-94000000D01*
X62300000Y-92089950D02*
X61462500Y-92927450D01*
%TO.N,Net-(U3-STAT)*%
X66225000Y-74612500D02*
X66250000Y-74637500D01*
X63200000Y-74612500D02*
X66225000Y-74612500D01*
%TO.N,Net-(D16-DIN)*%
X78285000Y-77725000D02*
X77435000Y-78575000D01*
X79135000Y-76575000D02*
X78285000Y-77425000D01*
X78285000Y-77425000D02*
X78285000Y-77725000D01*
%TO.N,Net-(D4-DOUT)*%
X81760000Y-71550000D02*
X80910000Y-72400000D01*
X82610000Y-70400000D02*
X81760000Y-71250000D01*
X81760000Y-71250000D02*
X81760000Y-71550000D01*
%TO.N,Net-(D16-DOUT)*%
X80460000Y-69250000D02*
X80110000Y-69600000D01*
X80110000Y-79100000D02*
X79560000Y-79650000D01*
X80895000Y-69250000D02*
X80460000Y-69250000D01*
X79560000Y-79650000D02*
X79225000Y-79650000D01*
X80110000Y-69600000D02*
X80110000Y-79100000D01*
%TO.N,Net-(D5-DOUT)*%
X81810000Y-74650000D02*
X80960000Y-75500000D01*
X82660000Y-73500000D02*
X81810000Y-74350000D01*
X81810000Y-74350000D02*
X81810000Y-74650000D01*
%TO.N,Net-(D6-DOUT)*%
X81810000Y-77650000D02*
X80960000Y-78500000D01*
X81810000Y-77350000D02*
X81810000Y-77650000D01*
X82660000Y-76500000D02*
X81810000Y-77350000D01*
%TO.N,Net-(D7-DOUT)*%
X83610000Y-69550000D02*
X83610000Y-79050000D01*
X84395000Y-69200000D02*
X83960000Y-69200000D01*
X83610000Y-79050000D02*
X83060000Y-79600000D01*
X83060000Y-79600000D02*
X82725000Y-79600000D01*
X83960000Y-69200000D02*
X83610000Y-69550000D01*
%TO.N,Net-(D8-DOUT)*%
X85310000Y-71500000D02*
X84460000Y-72350000D01*
X85310000Y-71200000D02*
X85310000Y-71500000D01*
X86160000Y-70350000D02*
X85310000Y-71200000D01*
%TO.N,Net-(D10-DIN)*%
X85310000Y-74600000D02*
X84460000Y-75450000D01*
X86160000Y-73450000D02*
X85310000Y-74300000D01*
X85310000Y-74300000D02*
X85310000Y-74600000D01*
%TO.N,Net-(D10-DOUT)*%
X85310000Y-77700000D02*
X84460000Y-78550000D01*
X86160000Y-76550000D02*
X85310000Y-77400000D01*
X85310000Y-77400000D02*
X85310000Y-77700000D01*
%TO.N,Net-(D11-DOUT)*%
X86660000Y-79600000D02*
X86325000Y-79600000D01*
X87210000Y-79050000D02*
X86660000Y-79600000D01*
X87560000Y-69200000D02*
X87210000Y-69550000D01*
X87995000Y-69200000D02*
X87560000Y-69200000D01*
X87210000Y-69550000D02*
X87210000Y-79050000D01*
%TO.N,Net-(D12-DOUT)*%
X88910000Y-71500000D02*
X88060000Y-72350000D01*
X89760000Y-70350000D02*
X88910000Y-71200000D01*
X88910000Y-71200000D02*
X88910000Y-71500000D01*
%TO.N,Net-(D13-DOUT)*%
X88910000Y-74600000D02*
X88060000Y-75450000D01*
X88910000Y-74300000D02*
X88910000Y-74600000D01*
X89760000Y-73450000D02*
X88910000Y-74300000D01*
%TO.N,Net-(D14-DOUT)*%
X89660000Y-76550000D02*
X88810000Y-77400000D01*
X88810000Y-77700000D02*
X87960000Y-78550000D01*
X88810000Y-77400000D02*
X88810000Y-77700000D01*
%TD*%
M02*
