%TF.GenerationSoftware,KiCad,Pcbnew,7.0.9*%
%TF.CreationDate,2024-02-03T21:53:43-08:00*%
%TF.ProjectId,Phorae_v1.0,50686f72-6165-45f7-9631-2e302e6b6963,rev?*%
%TF.SameCoordinates,Original*%
%TF.FileFunction,Paste,Top*%
%TF.FilePolarity,Positive*%
%FSLAX46Y46*%
G04 Gerber Fmt 4.6, Leading zero omitted, Abs format (unit mm)*
G04 Created by KiCad (PCBNEW 7.0.9) date 2024-02-03 21:53:43*
%MOMM*%
%LPD*%
G01*
G04 APERTURE LIST*
G04 Aperture macros list*
%AMRoundRect*
0 Rectangle with rounded corners*
0 $1 Rounding radius*
0 $2 $3 $4 $5 $6 $7 $8 $9 X,Y pos of 4 corners*
0 Add a 4 corners polygon primitive as box body*
4,1,4,$2,$3,$4,$5,$6,$7,$8,$9,$2,$3,0*
0 Add four circle primitives for the rounded corners*
1,1,$1+$1,$2,$3*
1,1,$1+$1,$4,$5*
1,1,$1+$1,$6,$7*
1,1,$1+$1,$8,$9*
0 Add four rect primitives between the rounded corners*
20,1,$1+$1,$2,$3,$4,$5,0*
20,1,$1+$1,$4,$5,$6,$7,0*
20,1,$1+$1,$6,$7,$8,$9,0*
20,1,$1+$1,$8,$9,$2,$3,0*%
G04 Aperture macros list end*
%ADD10RoundRect,0.150000X-0.150000X0.512500X-0.150000X-0.512500X0.150000X-0.512500X0.150000X0.512500X0*%
%ADD11RoundRect,0.237500X0.300000X0.237500X-0.300000X0.237500X-0.300000X-0.237500X0.300000X-0.237500X0*%
%ADD12RoundRect,0.175000X-0.175000X-0.175000X0.175000X-0.175000X0.175000X0.175000X-0.175000X0.175000X0*%
%ADD13RoundRect,0.237500X0.237500X-0.300000X0.237500X0.300000X-0.237500X0.300000X-0.237500X-0.300000X0*%
%ADD14RoundRect,0.237500X-0.237500X0.300000X-0.237500X-0.300000X0.237500X-0.300000X0.237500X0.300000X0*%
%ADD15R,1.000000X1.600000*%
%ADD16R,1.600000X0.550000*%
%ADD17R,0.550000X1.600000*%
%ADD18RoundRect,0.200000X-0.350000X-0.200000X0.350000X-0.200000X0.350000X0.200000X-0.350000X0.200000X0*%
%ADD19RoundRect,0.150000X-0.425000X0.150000X-0.425000X-0.150000X0.425000X-0.150000X0.425000X0.150000X0*%
%ADD20RoundRect,0.075000X-0.500000X0.075000X-0.500000X-0.075000X0.500000X-0.075000X0.500000X0.075000X0*%
%ADD21RoundRect,0.250000X-0.750000X0.840000X-0.750000X-0.840000X0.750000X-0.840000X0.750000X0.840000X0*%
%ADD22RoundRect,0.237500X-0.300000X-0.237500X0.300000X-0.237500X0.300000X0.237500X-0.300000X0.237500X0*%
%ADD23RoundRect,0.250000X-1.500000X0.250000X-1.500000X-0.250000X1.500000X-0.250000X1.500000X0.250000X0*%
%ADD24RoundRect,0.250001X-1.449999X0.499999X-1.449999X-0.499999X1.449999X-0.499999X1.449999X0.499999X0*%
G04 APERTURE END LIST*
D10*
%TO.C,U4*%
X72350000Y-75662500D03*
X71400000Y-75662500D03*
X70450000Y-75662500D03*
X70450000Y-77937500D03*
X72350000Y-77937500D03*
%TD*%
D11*
%TO.C,F1*%
X61112500Y-69500000D03*
X59387500Y-69500000D03*
%TD*%
D12*
%TO.C,D15*%
X87985000Y-79650000D03*
X89815000Y-79650000D03*
X89815000Y-78550000D03*
X87985000Y-78550000D03*
%TD*%
D13*
%TO.C,R1*%
X53000000Y-81862500D03*
X53000000Y-80137500D03*
%TD*%
%TO.C,C2*%
X51200000Y-81862500D03*
X51200000Y-80137500D03*
%TD*%
D12*
%TO.C,D2*%
X77395000Y-73450000D03*
X79225000Y-73450000D03*
X79225000Y-72350000D03*
X77395000Y-72350000D03*
%TD*%
D14*
%TO.C,R2*%
X51300000Y-88737500D03*
X51300000Y-90462500D03*
%TD*%
D11*
%TO.C,C1*%
X61112500Y-72500000D03*
X59387500Y-72500000D03*
%TD*%
D14*
%TO.C,C4*%
X76000000Y-84137500D03*
X76000000Y-85862500D03*
%TD*%
D12*
%TO.C,D13*%
X87985000Y-73450000D03*
X89815000Y-73450000D03*
X89815000Y-72350000D03*
X87985000Y-72350000D03*
%TD*%
%TO.C,D6*%
X80895000Y-76550000D03*
X82725000Y-76550000D03*
X82725000Y-75450000D03*
X80895000Y-75450000D03*
%TD*%
%TO.C,D8*%
X84495000Y-70350000D03*
X86325000Y-70350000D03*
X86325000Y-69250000D03*
X84495000Y-69250000D03*
%TD*%
D15*
%TO.C,SW1*%
X65750000Y-68750000D03*
X68250000Y-68750000D03*
X70750000Y-68750000D03*
X65750000Y-71150000D03*
X68250000Y-71150000D03*
X70750000Y-71150000D03*
%TD*%
D12*
%TO.C,D11*%
X84455000Y-79650000D03*
X86285000Y-79650000D03*
X86285000Y-78550000D03*
X84455000Y-78550000D03*
%TD*%
D16*
%TO.C,U1*%
X66150000Y-89000000D03*
X66150000Y-88200000D03*
X66150000Y-87400000D03*
X66150000Y-86600000D03*
X66150000Y-85800000D03*
X66150000Y-85000000D03*
X66150000Y-84200000D03*
X66150000Y-83400000D03*
D17*
X64700000Y-81950000D03*
X63900000Y-81950000D03*
X63100000Y-81950000D03*
X62300000Y-81950000D03*
X61500000Y-81950000D03*
X60700000Y-81950000D03*
X59900000Y-81950000D03*
X59100000Y-81950000D03*
D16*
X57650000Y-83400000D03*
X57650000Y-84200000D03*
X57650000Y-85000000D03*
X57650000Y-85800000D03*
X57650000Y-86600000D03*
X57650000Y-87400000D03*
X57650000Y-88200000D03*
X57650000Y-89000000D03*
D17*
X59100000Y-90450000D03*
X59900000Y-90450000D03*
X60700000Y-90450000D03*
X61500000Y-90450000D03*
X62300000Y-90450000D03*
X63100000Y-90450000D03*
X63900000Y-90450000D03*
X64700000Y-90450000D03*
%TD*%
D12*
%TO.C,D16*%
X77395000Y-79650000D03*
X79225000Y-79650000D03*
X79225000Y-78550000D03*
X77395000Y-78550000D03*
%TD*%
D10*
%TO.C,U3*%
X63200000Y-74612500D03*
X62250000Y-74612500D03*
X61300000Y-74612500D03*
X61300000Y-76887500D03*
X63200000Y-76887500D03*
%TD*%
D18*
%TO.C,U2*%
X78700000Y-85825000D03*
X78700000Y-84555000D03*
X78700000Y-87095000D03*
X78700000Y-88365000D03*
X78700000Y-89635000D03*
X78700000Y-90905000D03*
X78700000Y-92175000D03*
X78700000Y-93445000D03*
%TD*%
D13*
%TO.C,R3*%
X66250000Y-76362500D03*
X66250000Y-74637500D03*
%TD*%
D12*
%TO.C,D4*%
X80895000Y-70350000D03*
X82725000Y-70350000D03*
X82725000Y-69250000D03*
X80895000Y-69250000D03*
%TD*%
D19*
%TO.C,J1*%
X47680000Y-82800000D03*
X47680000Y-83600000D03*
D20*
X47680000Y-84750000D03*
X47680000Y-85750000D03*
X47680000Y-86250000D03*
X47680000Y-87250000D03*
D19*
X47680000Y-88400000D03*
X47680000Y-89200000D03*
X47680000Y-89200000D03*
X47680000Y-88400000D03*
D20*
X47680000Y-87750000D03*
X47680000Y-86750000D03*
X47680000Y-85250000D03*
X47680000Y-84250000D03*
D19*
X47680000Y-83600000D03*
X47680000Y-82800000D03*
D21*
X47105000Y-80890000D03*
X43175000Y-80890000D03*
X47105000Y-91110000D03*
X43175000Y-91110000D03*
%TD*%
D12*
%TO.C,D3*%
X77395000Y-76550000D03*
X79225000Y-76550000D03*
X79225000Y-75450000D03*
X77395000Y-75450000D03*
%TD*%
D22*
%TO.C,C8*%
X70537500Y-73600000D03*
X72262500Y-73600000D03*
%TD*%
D11*
%TO.C,C3*%
X72262500Y-80200000D03*
X70537500Y-80200000D03*
%TD*%
D12*
%TO.C,D1*%
X77395000Y-70350000D03*
X79225000Y-70350000D03*
X79225000Y-69250000D03*
X77395000Y-69250000D03*
%TD*%
D22*
%TO.C,C5*%
X59737500Y-94000000D03*
X61462500Y-94000000D03*
%TD*%
D12*
%TO.C,D10*%
X84455000Y-76550000D03*
X86285000Y-76550000D03*
X86285000Y-75450000D03*
X84455000Y-75450000D03*
%TD*%
%TO.C,D12*%
X87995000Y-70350000D03*
X89825000Y-70350000D03*
X89825000Y-69250000D03*
X87995000Y-69250000D03*
%TD*%
D22*
%TO.C,C6*%
X63437500Y-93950000D03*
X65162500Y-93950000D03*
%TD*%
D12*
%TO.C,D9*%
X84455000Y-73450000D03*
X86285000Y-73450000D03*
X86285000Y-72350000D03*
X84455000Y-72350000D03*
%TD*%
%TO.C,D7*%
X80910000Y-79600000D03*
X82740000Y-79600000D03*
X82740000Y-78500000D03*
X80910000Y-78500000D03*
%TD*%
%TO.C,D14*%
X87985000Y-76550000D03*
X89815000Y-76550000D03*
X89815000Y-75450000D03*
X87985000Y-75450000D03*
%TD*%
%TO.C,D5*%
X80895000Y-73450000D03*
X82725000Y-73450000D03*
X82725000Y-72350000D03*
X80895000Y-72350000D03*
%TD*%
D23*
%TO.C,J2*%
X56100000Y-71500000D03*
X56100000Y-73500000D03*
D24*
X50350000Y-69150000D03*
X50350000Y-75850000D03*
%TD*%
M02*
